  0
SECTION
  2
HEADER
  9
$ACADVER
  1
AC1014
  9
$ACADMAINTVER
 70
     9
  9
$DWGCODEPAGE
  3
ANSI_1251
  9
$INSBASE
 10
0.0
 20
0.0
 30
0.0
  9
$EXTMIN
 10
-4122.025280568536
 20
-445.0
 30
0.0
  9
$EXTMAX
 10
-3252.207098749567
 20
424.8181818189682
 30
0.0
  9
$LIMMIN
 10
0.0
 20
0.0
  9
$LIMMAX
 10
12.0
 20
9.0
  9
$ORTHOMODE
 70
     0
  9
$REGENMODE
 70
     1
  9
$FILLMODE
 70
     1
  9
$QTEXTMODE
 70
     0
  9
$MIRRTEXT
 70
     1
  9
$DRAGMODE
 70
     2
  9
$LTSCALE
 40
1.0
  9
$OSMODE
 70
    37
  9
$ATTMODE
 70
     1
  9
$TEXTSIZE
 40
0.2
  9
$TRACEWID
 40
0.05
  9
$TEXTSTYLE
  7
STANDARD
  9
$CLAYER
  8
0
  9
$CELTYPE
  6
BYLAYER
  9
$CECOLOR
 62
   256
  9
$CELTSCALE
 40
1.0
  9
$DELOBJ
 70
     1
  9
$DISPSILH
 70
     0
  9
$DIMSCALE
 40
1.0
  9
$DIMASZ
 40
0.18
  9
$DIMEXO
 40
0.0625
  9
$DIMDLI
 40
0.38
  9
$DIMRND
 40
0.0
  9
$DIMDLE
 40
0.0
  9
$DIMEXE
 40
0.18
  9
$DIMTP
 40
0.0
  9
$DIMTM
 40
0.0
  9
$DIMTXT
 40
0.18
  9
$DIMCEN
 40
0.09
  9
$DIMTSZ
 40
0.0
  9
$DIMTOL
 70
     0
  9
$DIMLIM
 70
     0
  9
$DIMTIH
 70
     1
  9
$DIMTOH
 70
     1
  9
$DIMSE1
 70
     0
  9
$DIMSE2
 70
     0
  9
$DIMTAD
 70
     0
  9
$DIMZIN
 70
     0
  9
$DIMBLK
  1

  9
$DIMASO
 70
     1
  9
$DIMSHO
 70
     1
  9
$DIMPOST
  1

  9
$DIMAPOST
  1

  9
$DIMALT
 70
     0
  9
$DIMALTD
 70
     2
  9
$DIMALTF
 40
25.4
  9
$DIMLFAC
 40
1.0
  9
$DIMTOFL
 70
     0
  9
$DIMTVP
 40
0.0
  9
$DIMTIX
 70
     0
  9
$DIMSOXD
 70
     0
  9
$DIMSAH
 70
     0
  9
$DIMBLK1
  1

  9
$DIMBLK2
  1

  9
$DIMSTYLE
  2
STANDARD
  9
$DIMCLRD
 70
     0
  9
$DIMCLRE
 70
     0
  9
$DIMCLRT
 70
     0
  9
$DIMTFAC
 40
1.0
  9
$DIMGAP
 40
0.09
  9
$DIMJUST
 70
     0
  9
$DIMSD1
 70
     0
  9
$DIMSD2
 70
     0
  9
$DIMTOLJ
 70
     1
  9
$DIMTZIN
 70
     0
  9
$DIMALTZ
 70
     0
  9
$DIMALTTZ
 70
     0
  9
$DIMFIT
 70
     5
  9
$DIMUPT
 70
     0
  9
$DIMUNIT
 70
     2
  9
$DIMDEC
 70
     4
  9
$DIMTDEC
 70
     4
  9
$DIMALTU
 70
     2
  9
$DIMALTTD
 70
     2
  9
$DIMTXSTY
  7
STANDARD
  9
$DIMAUNIT
 70
     0
  9
$LUNITS
 70
     2
  9
$LUPREC
 70
     2
  9
$SKETCHINC
 40
0.1
  9
$FILLETRAD
 40
0.5
  9
$AUNITS
 70
     0
  9
$AUPREC
 70
     0
  9
$MENU
  1
.
  9
$ELEVATION
 40
0.0
  9
$PELEVATION
 40
0.0
  9
$THICKNESS
 40
0.0
  9
$LIMCHECK
 70
     0
  9
$CHAMFERA
 40
0.0
  9
$CHAMFERB
 40
0.0
  9
$CHAMFERC
 40
0.0
  9
$CHAMFERD
 40
0.0
  9
$SKPOLY
 70
     0
  9
$TDCREATE
 40
2459312.493240313
  9
$TDUPDATE
 40
2459312.493255046
  9
$TDINDWG
 40
0.0000000116
  9
$TDUSRTIMER
 40
0.0000000116
  9
$USRTIMER
 70
     1
  9
$ANGBASE
 50
0.0
  9
$ANGDIR
 70
     0
  9
$PDMODE
 70
     0
  9
$PDSIZE
 40
0.0
  9
$PLINEWID
 40
0.0
  9
$COORDS
 70
     1
  9
$SPLFRAME
 70
     0
  9
$SPLINETYPE
 70
     6
  9
$SPLINESEGS
 70
     8
  9
$ATTDIA
 70
     0
  9
$ATTREQ
 70
     1
  9
$HANDLING
 70
     1
  9
$HANDSEED
  5
197
  9
$SURFTAB1
 70
     6
  9
$SURFTAB2
 70
     6
  9
$SURFTYPE
 70
     6
  9
$SURFU
 70
     6
  9
$SURFV
 70
     6
  9
$UCSNAME
  2

  9
$UCSORG
 10
0.0
 20
0.0
 30
0.0
  9
$UCSXDIR
 10
1.0
 20
0.0
 30
0.0
  9
$UCSYDIR
 10
0.0
 20
1.0
 30
0.0
  9
$PUCSNAME
  2

  9
$PUCSORG
 10
0.0
 20
0.0
 30
0.0
  9
$PUCSXDIR
 10
1.0
 20
0.0
 30
0.0
  9
$PUCSYDIR
 10
0.0
 20
1.0
 30
0.0
  9
$USERI1
 70
     0
  9
$USERI2
 70
     0
  9
$USERI3
 70
     0
  9
$USERI4
 70
     0
  9
$USERI5
 70
     0
  9
$USERR1
 40
0.0
  9
$USERR2
 40
0.0
  9
$USERR3
 40
0.0
  9
$USERR4
 40
0.0
  9
$USERR5
 40
0.0
  9
$WORLDVIEW
 70
     1
  9
$SHADEDGE
 70
     3
  9
$SHADEDIF
 70
    70
  9
$TILEMODE
 70
     1
  9
$MAXACTVP
 70
    64
  9
$PINSBASE
 10
0.0
 20
0.0
 30
0.0
  9
$PLIMCHECK
 70
     0
  9
$PEXTMIN
 10
1.000000000000000E+20
 20
1.000000000000000E+20
 30
1.000000000000000E+20
  9
$PEXTMAX
 10
-1.000000000000000E+20
 20
-1.000000000000000E+20
 30
-1.000000000000000E+20
  9
$PLIMMIN
 10
0.0
 20
0.0
  9
$PLIMMAX
 10
12.0
 20
9.0
  9
$UNITMODE
 70
     0
  9
$VISRETAIN
 70
     1
  9
$PLINEGEN
 70
     0
  9
$PSLTSCALE
 70
     1
  9
$TREEDEPTH
 70
  3020
  9
$PICKSTYLE
 70
     1
  9
$CMLSTYLE
  2
STANDARD
  9
$CMLJUST
 70
     0
  9
$CMLSCALE
 40
1.0
  9
$PROXYGRAPHICS
 70
     1
  9
$MEASUREMENT
 70
     0
  0
ENDSEC
  0
SECTION
  2
CLASSES
  0
CLASS
  1
ACDBDICTIONARYWDFLT
  2
AcDbDictionaryWithDefault
  3
ObjectDBX Classes
 90
        0
280
     0
281
     0
  0
CLASS
  1
VISUALSTYLE
  2
AcDbVisualStyle
  3
ObjectDBX Classes
 90
     4095
280
     0
281
     0
  0
CLASS
  1
MATERIAL
  2
AcDbMaterial
  3
ObjectDBX Classes
 90
     1153
280
     0
281
     0
  0
CLASS
  1
SCALE
  2
AcDbScale
  3
ObjectDBX Classes
 90
     1153
280
     0
281
     0
  0
CLASS
  1
SUN
  2
AcDbSun
  3
SCENEOE
 90
     1153
280
     0
281
     0
  0
CLASS
  1
DICTIONARYVAR
  2
AcDbDictionaryVar
  3
ObjectDBX Classes
 90
        0
280
     0
281
     0
  0
CLASS
  1
XRECORD
  2
AcDbXrecord
  3
ObjectDBX Classes
 90
        0
280
     0
281
     0
  0
CLASS
  1
LWPOLYLINE
  2
AcDbPolyline
  3
ObjectDBX Classes
 90
        0
280
     0
281
     1
  0
CLASS
  1
HATCH
  2
AcDbHatch
  3
ObjectDBX Classes
 90
        0
280
     0
281
     1
  0
CLASS
  1
ACDBPLACEHOLDER
  2
AcDbPlaceHolder
  3
ObjectDBX Classes
 90
        0
280
     0
281
     0
  0
CLASS
  1
LAYOUT
  2
AcDbLayout
  3
ObjectDBX Classes
 90
        0
280
     0
281
     0
  0
ENDSEC
  0
SECTION
  2
TABLES
  0
TABLE
  2
VPORT
  5
8
330
0
100
AcDbSymbolTable
 70
     1
  0
VPORT
  5
29
330
8
100
AcDbSymbolTableRecord
100
AcDbViewportTableRecord
  2
*ACTIVE
 70
     0
 10
0.0
 20
0.0
 11
1.0
 21
1.0
 12
-3687.116189659052
 22
-10.09090909051588
 13
0.0
 23
0.0
 14
0.5
 24
0.5
 15
0.5
 25
0.5
 16
0.0
 26
0.0
 36
1.0
 17
0.0
 27
0.0
 37
0.0
 40
887.2145454553477
 41
1.0
 42
50.0
 43
0.0
 44
0.0
 50
0.0
 51
0.0
 71
     0
 72
   100
 73
     1
 74
     3
 75
     0
 76
     0
 77
     0
 78
     0
  0
ENDTAB
  0
TABLE
  2
LTYPE
  5
5
330
0
100
AcDbSymbolTable
 70
     1
  0
LTYPE
  5
14
330
5
100
AcDbSymbolTableRecord
100
AcDbLinetypeTableRecord
  2
BYBLOCK
 70
     0
  3

 72
    65
 73
     0
 40
0.0
  0
LTYPE
  5
15
330
5
100
AcDbSymbolTableRecord
100
AcDbLinetypeTableRecord
  2
BYLAYER
 70
     0
  3

 72
    65
 73
     0
 40
0.0
  0
LTYPE
  5
16
330
5
100
AcDbSymbolTableRecord
100
AcDbLinetypeTableRecord
  2
CONTINUOUS
 70
     0
  3
Solid line
 72
    65
 73
     0
 40
0.0
  0
ENDTAB
  0
TABLE
  2
LAYER
  5
2
330
0
100
AcDbSymbolTable
 70
     3
  0
LAYER
  5
10
330
2
100
AcDbSymbolTableRecord
100
AcDbLayerTableRecord
  2
0
 70
     0
 62
     7
  6
CONTINUOUS
  0
LAYER
  5
6A
330
2
100
AcDbSymbolTableRecord
100
AcDbLayerTableRecord
  2
LAYER_01
 70
     0
 62
     1
  6
CONTINUOUS
  0
LAYER
  5
83
330
2
100
AcDbSymbolTableRecord
100
AcDbLayerTableRecord
  2
LAYER_02
 70
     0
 62
     3
  6
CONTINUOUS
  0
ENDTAB
  0
TABLE
  2
STYLE
  5
3
330
0
100
AcDbSymbolTable
 70
     1
  0
STYLE
  5
11
330
3
100
AcDbSymbolTableRecord
100
AcDbTextStyleTableRecord
  2
STANDARD
 70
     0
 40
0.0
 41
1.0
 50
0.0
 71
     0
 42
0.2
  3
txt
  4

  0
ENDTAB
  0
TABLE
  2
VIEW
  5
6
330
0
100
AcDbSymbolTable
 70
     0
  0
ENDTAB
  0
TABLE
  2
UCS
  5
7
330
0
100
AcDbSymbolTable
 70
     0
  0
ENDTAB
  0
TABLE
  2
APPID
  5
9
330
0
100
AcDbSymbolTable
 70
     1
  0
APPID
  5
12
330
9
100
AcDbSymbolTableRecord
100
AcDbRegAppTableRecord
  2
ACAD
 70
     0
  0
ENDTAB
  0
TABLE
  2
DIMSTYLE
  5
A
330
0
100
AcDbSymbolTable
 70
     1
  0
DIMSTYLE
105
27
330
A
100
AcDbSymbolTableRecord
100
AcDbDimStyleTableRecord
  2
STANDARD
 70
     0
  3

  4

  5

  6

  7

 40
1.0
 41
0.18
 42
0.0625
 43
0.38
 44
0.18
 45
0.0
 46
0.0
 47
0.0
 48
0.0
140
0.18
141
0.09
142
0.0
143
25.4
144
1.0
145
0.0
146
1.0
147
0.09
 71
     0
 72
     0
 73
     1
 74
     1
 75
     0
 76
     0
 77
     0
 78
     0
170
     0
171
     2
172
     0
173
     0
174
     0
175
     0
176
     0
177
     0
178
     0
270
     2
271
     4
272
     4
273
     2
274
     2
340
11
275
     0
280
     0
281
     0
282
     0
283
     1
284
     0
285
     0
286
     0
287
     3
288
     0
  0
ENDTAB
  0
TABLE
  2
BLOCK_RECORD
  5
1
330
0
100
AcDbSymbolTable
 70
     1
  0
BLOCK_RECORD
  5
1F
330
1
100
AcDbSymbolTableRecord
100
AcDbBlockTableRecord
  2
*MODEL_SPACE
  0
BLOCK_RECORD
  5
1B
330
1
100
AcDbSymbolTableRecord
100
AcDbBlockTableRecord
  2
*PAPER_SPACE
  0
ENDTAB
  0
ENDSEC
  0
SECTION
  2
BLOCKS
  0
BLOCK
  5
20
330
1F
100
AcDbEntity
  8
0
100
AcDbBlockBegin
  2
*MODEL_SPACE
 70
     0
 10
0.0
 20
0.0
 30
0.0
  3
*MODEL_SPACE
  1

  0
ENDBLK
  5
21
330
1F
100
AcDbEntity
  8
0
100
AcDbBlockEnd
  0
BLOCK
  5
1C
330
1B
100
AcDbEntity
 67
     1
  8
0
100
AcDbBlockBegin
  2
*PAPER_SPACE
 70
     0
 10
0.0
 20
0.0
 30
0.0
  3
*PAPER_SPACE
  1

  0
ENDBLK
  5
1D
330
1B
100
AcDbEntity
 67
     1
  8
0
100
AcDbBlockEnd
  0
ENDSEC
  0
SECTION
  2
ENTITIES
  0
ARC
  5
6B
330
1F
100
AcDbEntity
  8
LAYER_01
100
AcDbCircle
 10
-3687.116189659052
 20
-10.09090909051588
 30
0.0
 40
384.0909090912564
100
AcDbArc
 50
344.9999999998913
 51
14.99999999989124
  0
ARC
  5
6C
330
1F
100
AcDbEntity
  8
LAYER_01
100
AcDbCircle
 10
-3687.116189659052
 20
-10.09090909051588
 30
0.0
 40
384.0909090912564
100
AcDbArc
 50
315.0000000000001
 51
344.9999999998913
  0
ARC
  5
6D
330
1F
100
AcDbEntity
  8
LAYER_01
100
AcDbCircle
 10
-3687.116189659052
 20
-10.09090909051588
 30
0.0
 40
384.0909090912564
100
AcDbArc
 50
284.9999999998913
 51
315.0000000000001
  0
ARC
  5
6E
330
1F
100
AcDbEntity
  8
LAYER_01
100
AcDbCircle
 10
-3687.116189659052
 20
-10.09090909051588
 30
0.0
 40
384.0909090912564
100
AcDbArc
 50
254.9999999998913
 51
284.9999999998913
  0
ARC
  5
6F
330
1F
100
AcDbEntity
  8
LAYER_01
100
AcDbCircle
 10
-3687.116189659052
 20
-10.09090909051588
 30
0.0
 40
384.0909090912564
100
AcDbArc
 50
225.0
 51
254.9999999998913
  0
ARC
  5
70
330
1F
100
AcDbEntity
  8
LAYER_01
100
AcDbCircle
 10
-3687.116189659052
 20
-10.09090909051588
 30
0.0
 40
384.0909090912564
100
AcDbArc
 50
194.9999999998913
 51
225.0
  0
ARC
  5
71
330
1F
100
AcDbEntity
  8
LAYER_01
100
AcDbCircle
 10
-3687.116189659052
 20
-10.09090909051588
 30
0.0
 40
384.0909090912564
100
AcDbArc
 50
164.9999999998913
 51
194.9999999998913
  0
ARC
  5
72
330
1F
100
AcDbEntity
  8
LAYER_01
100
AcDbCircle
 10
-3687.116189659052
 20
-10.09090909051588
 30
0.0
 40
384.0909090912564
100
AcDbArc
 50
135.0
 51
164.9999999998913
  0
ARC
  5
73
330
1F
100
AcDbEntity
  8
LAYER_01
100
AcDbCircle
 10
-3687.116189659052
 20
-10.09090909051588
 30
0.0
 40
384.0909090912564
100
AcDbArc
 50
104.9999999998912
 51
135.0
  0
ARC
  5
74
330
1F
100
AcDbEntity
  8
LAYER_01
100
AcDbCircle
 10
-3687.116189659052
 20
-10.09090909051588
 30
0.0
 40
384.0909090912564
100
AcDbArc
 50
74.99999999988025
 51
104.9999999998912
  0
ARC
  5
75
330
1F
100
AcDbEntity
  8
LAYER_01
100
AcDbCircle
 10
-3687.116189659052
 20
-10.09090909051588
 30
0.0
 40
384.0909090912564
100
AcDbArc
 50
44.99999999999997
 51
74.99999999988025
  0
ARC
  5
76
330
1F
100
AcDbEntity
  8
LAYER_01
100
AcDbCircle
 10
-3687.116189659052
 20
-10.09090909051588
 30
0.0
 40
384.0909090912564
100
AcDbArc
 50
14.99999999989125
 51
44.99999999999997
  0
ARC
  5
77
330
1F
100
AcDbEntity
  8
LAYER_01
100
AcDbCircle
 10
-3687.116189659052
 20
-10.09090909051587
 30
0.0
 40
325.0000000002939
100
AcDbArc
 50
344.9999999998912
 51
14.99999999989123
  0
ARC
  5
78
330
1F
100
AcDbEntity
  8
LAYER_01
100
AcDbCircle
 10
-3687.116189659052
 20
-10.09090909051587
 30
0.0
 40
325.0000000002939
100
AcDbArc
 50
315.0
 51
344.9999999998912
  0
ARC
  5
79
330
1F
100
AcDbEntity
  8
LAYER_01
100
AcDbCircle
 10
-3687.116189659052
 20
-10.09090909051587
 30
0.0
 40
325.0000000002939
100
AcDbArc
 50
284.9999999998914
 51
315.0
  0
ARC
  5
7A
330
1F
100
AcDbEntity
  8
LAYER_01
100
AcDbCircle
 10
-3687.116189659052
 20
-10.09090909051587
 30
0.0
 40
325.0000000002939
100
AcDbArc
 50
254.9999999998913
 51
284.9999999998914
  0
ARC
  5
7B
330
1F
100
AcDbEntity
  8
LAYER_01
100
AcDbCircle
 10
-3687.116189659052
 20
-10.09090909051587
 30
0.0
 40
325.0000000002939
100
AcDbArc
 50
225.0
 51
254.9999999998913
  0
ARC
  5
7C
330
1F
100
AcDbEntity
  8
LAYER_01
100
AcDbCircle
 10
-3687.116189659052
 20
-10.09090909051587
 30
0.0
 40
325.0000000002939
100
AcDbArc
 50
194.9999999998912
 51
225.0
  0
ARC
  5
7D
330
1F
100
AcDbEntity
  8
LAYER_01
100
AcDbCircle
 10
-3687.116189659052
 20
-10.09090909051587
 30
0.0
 40
325.0000000002939
100
AcDbArc
 50
164.9999999998912
 51
194.9999999998912
  0
ARC
  5
7E
330
1F
100
AcDbEntity
  8
LAYER_01
100
AcDbCircle
 10
-3687.116189659052
 20
-10.09090909051587
 30
0.0
 40
325.0000000002939
100
AcDbArc
 50
135.0
 51
164.9999999998912
  0
ARC
  5
7F
330
1F
100
AcDbEntity
  8
LAYER_01
100
AcDbCircle
 10
-3687.116189659052
 20
-10.09090909051587
 30
0.0
 40
325.0000000002939
100
AcDbArc
 50
104.9999999998913
 51
135.0
  0
ARC
  5
80
330
1F
100
AcDbEntity
  8
LAYER_01
100
AcDbCircle
 10
-3687.116189659052
 20
-10.09090909051587
 30
0.0
 40
325.0000000002939
100
AcDbArc
 50
74.99999999988025
 51
104.9999999998913
  0
ARC
  5
81
330
1F
100
AcDbEntity
  8
LAYER_01
100
AcDbCircle
 10
-3687.116189659052
 20
-10.09090909051587
 30
0.0
 40
325.0000000002939
100
AcDbArc
 50
44.99999999999999
 51
74.99999999988025
  0
ARC
  5
82
330
1F
100
AcDbEntity
  8
LAYER_01
100
AcDbCircle
 10
-3687.116189659052
 20
-10.09090909051587
 30
0.0
 40
325.0000000002939
100
AcDbArc
 50
14.99999999989124
 51
44.99999999999999
  0
CIRCLE
  5
84
330
1F
100
AcDbEntity
  8
LAYER_02
100
AcDbCircle
 10
-3733.377999084421
 20
341.3024201210186
 30
0.0
 40
5.0
  0
CIRCLE
  5
85
330
1F
100
AcDbEntity
  8
LAYER_02
100
AcDbCircle
 10
-3822.748952075973
 20
317.3555454403433
 30
0.0
 40
5.0
  0
CIRCLE
  5
86
330
1F
100
AcDbEntity
  8
LAYER_02
100
AcDbCircle
 10
-3902.876756452406
 20
271.0937360142367
 30
0.0
 40
5.0
  0
CIRCLE
  5
87
330
1F
100
AcDbEntity
  8
LAYER_02
100
AcDbCircle
 10
-3968.300834762998
 20
205.6696577038881
 30
0.0
 40
5.0
  0
CIRCLE
  5
88
330
1F
100
AcDbEntity
  8
LAYER_02
100
AcDbCircle
 10
-4014.562644189398
 20
125.5418533276438
 30
0.0
 40
5.0
  0
CIRCLE
  5
89
330
1F
100
AcDbEntity
  8
LAYER_02
100
AcDbCircle
 10
-4038.509518870383
 20
36.17090033640045
 30
0.0
 40
5.0
  0
CIRCLE
  5
8A
330
1F
100
AcDbEntity
  8
LAYER_02
100
AcDbCircle
 10
-4038.509518870625
 20
-56.35271851558623
 30
0.0
 40
5.0
  0
CIRCLE
  5
8B
330
1F
100
AcDbEntity
  8
LAYER_02
100
AcDbCircle
 10
-4014.562644189895
 20
-145.7236715074761
 30
0.0
 40
5.0
  0
CIRCLE
  5
8C
330
1F
100
AcDbEntity
  8
LAYER_02
100
AcDbCircle
 10
-3968.30083476381
 20
-225.851475883862
 30
0.0
 40
5.0
  0
CIRCLE
  5
8D
330
1F
100
AcDbEntity
  8
LAYER_02
100
AcDbCircle
 10
-3902.876756452568
 20
-291.2755541951438
 30
0.0
 40
5.0
  0
CIRCLE
  5
8E
330
1F
100
AcDbEntity
  8
LAYER_02
100
AcDbCircle
 10
-3822.748952077201
 20
-337.5373636208664
 30
0.0
 40
5.0
  0
CIRCLE
  5
8F
330
1F
100
AcDbEntity
  8
LAYER_02
100
AcDbCircle
 10
-3733.377999085968
 20
-361.4842383018467
 30
0.0
 40
5.0
  0
CIRCLE
  5
90
330
1F
100
AcDbEntity
  8
LAYER_02
100
AcDbCircle
 10
-3640.854380233477
 20
-361.4842383020235
 30
0.0
 40
5.0
  0
CIRCLE
  5
91
330
1F
100
AcDbEntity
  8
LAYER_02
100
AcDbCircle
 10
-3551.483427242047
 20
-337.5373636213405
 30
0.0
 40
5.0
  0
CIRCLE
  5
92
330
1F
100
AcDbEntity
  8
LAYER_02
100
AcDbCircle
 10
-3471.355622864895
 20
-291.2755541946531
 30
0.0
 40
5.0
  0
CIRCLE
  5
93
330
1F
100
AcDbEntity
  8
LAYER_02
100
AcDbCircle
 10
-3405.931544554465
 20
-225.851475884087
 30
0.0
 40
5.0
  0
CIRCLE
  5
94
330
1F
100
AcDbEntity
  8
LAYER_02
100
AcDbCircle
 10
-3359.669735128415
 20
-145.723671507974
 30
0.0
 40
5.0
  0
CIRCLE
  5
95
330
1F
100
AcDbEntity
  8
LAYER_02
100
AcDbCircle
 10
-3335.72286044772
 20
-56.35271851743219
 30
0.0
 40
5.0
  0
CIRCLE
  5
96
330
1F
100
AcDbEntity
  8
LAYER_02
100
AcDbCircle
 10
-3335.722860447547
 20
36.17090033508158
 30
0.0
 40
5.0
  0
CIRCLE
  5
97
330
1F
100
AcDbEntity
  8
LAYER_02
100
AcDbCircle
 10
-3359.669735128192
 20
125.5418533264053
 30
0.0
 40
5.0
  0
CIRCLE
  5
98
330
1F
100
AcDbEntity
  8
LAYER_02
100
AcDbCircle
 10
-3405.931544554299
 20
205.669657702838
 30
0.0
 40
5.0
  0
CIRCLE
  5
99
330
1F
100
AcDbEntity
  8
LAYER_02
100
AcDbCircle
 10
-3471.355622864642
 20
271.0937360134266
 30
0.0
 40
5.0
  0
CIRCLE
  5
9A
330
1F
100
AcDbEntity
  8
LAYER_02
100
AcDbCircle
 10
-3551.483427240901
 20
317.3555454398341
 30
0.0
 40
5.0
  0
CIRCLE
  5
9B
330
1F
100
AcDbEntity
  8
LAYER_02
100
AcDbCircle
 10
-3640.854380232135
 20
341.302420120815
 30
0.0
 40
5.0
  0
LINE
  5
9C
330
1F
100
AcDbEntity
  8
LAYER_02
100
AcDbLine
 10
-3958.709476069122
 20
261.5023773204807
 30
0.0
 11
-3956.523865211532
 21
259.3167664628839
 31
0.0
  0
ARC
  5
9D
330
1F
100
AcDbEntity
  8
LAYER_02
100
AcDbCircle
 10
-3959.352292336283
 20
256.4883393381425
 30
0.0
 40
3.999999999999982
100
AcDbArc
 50
293.8086812689718
 51
44.99999999990558
  0
ARC
  5
9E
330
1F
100
AcDbEntity
  8
LAYER_02
100
AcDbCircle
 10
-3954.294521092561
 20
245.0255410347137
 30
0.0
 40
8.529038067581595
100
AcDbArc
 50
113.8086812689738
 51
336.1913187308304
  0
ARC
  5
9F
330
1F
100
AcDbEntity
  8
LAYER_02
100
AcDbCircle
 10
-3942.831722789149
 20
239.9677697909527
 30
0.0
 40
4.000000000000101
100
AcDbArc
 50
44.99999999990011
 51
156.191318730829
  0
LINE
  5
A0
330
1F
100
AcDbEntity
  8
LAYER_02
100
AcDbLine
 10
-3940.003295664398
 20
242.7961969156941
 30
0.0
 11
-3935.632073949218
 21
238.4249752004987
 31
0.0
  0
ARC
  5
A1
330
1F
100
AcDbEntity
  8
LAYER_02
100
AcDbCircle
 10
-3932.803646824467
 20
241.25340232524
 30
0.0
 40
4.00000000000002
100
AcDbArc
 50
224.9999999998995
 51
336.1913187308301
  0
ARC
  5
A2
330
1F
100
AcDbEntity
  8
LAYER_02
100
AcDbCircle
 10
-3921.340848521055
 20
236.1956310814791
 30
0.0
 40
8.52903806758165
100
AcDbArc
 50
293.8086812689736
 51
156.1913187308305
  0
ARC
  5
A3
330
1F
100
AcDbEntity
  8
LAYER_02
100
AcDbCircle
 10
-3916.283077277334
 20
224.7328327780503
 30
0.0
 40
3.99999999999994
100
AcDbArc
 50
113.808681268972
 51
224.999999999905
  0
LINE
  5
A4
330
1F
100
AcDbEntity
  8
LAYER_02
100
AcDbLine
 10
-3919.111504402084
 20
221.9044056533089
 30
0.0
 11
-3916.925893544495
 21
219.718794795712
 31
0.0
  0
LINE
  5
A5
330
1F
100
AcDbEntity
  8
LAYER_02
100
AcDbLine
 10
-4058.119518392954
 20
89.31913323374656
 30
0.0
 11
-4055.133918438696
 21
88.51914413707469
 31
0.0
  0
ARC
  5
A6
330
1F
100
AcDbEntity
  8
LAYER_02
100
AcDbCircle
 10
-4056.169194619114
 20
84.65544083192036
 30
0.0
 40
3.999999999999982
100
AcDbArc
 50
323.8086812689638
 51
74.999999999891
  0
ARC
  5
A7
330
1F
100
AcDbEntity
  8
LAYER_02
100
AcDbCircle
 10
-4046.057637083807
 20
77.25725192455286
 30
0.0
 40
8.529038067581595
100
AcDbArc
 50
143.8086812689624
 51
6.191318730819676
  0
ARC
  5
A8
330
1F
100
AcDbEntity
  8
LAYER_02
100
AcDbCircle
 10
-4033.601676932715
 20
78.60849269262873
 30
0.0
 40
4.000000000000101
100
AcDbArc
 50
74.99999999989117
 51
186.1913187308169
  0
LINE
  5
A9
330
1F
100
AcDbEntity
  8
LAYER_02
100
AcDbLine
 10
-4032.566400752297
 20
82.4721959977831
 30
0.0
 11
-4026.59520084378
 21
80.87221780443883
 31
0.0
  0
ARC
  5
AA
330
1F
100
AcDbEntity
  8
LAYER_02
100
AcDbCircle
 10
-4025.559924663362
 20
84.73592110959314
 30
0.0
 40
4.00000000000002
100
AcDbArc
 50
254.9999999998909
 51
6.191318730818189
  0
ARC
  5
AB
330
1F
100
AcDbEntity
  8
LAYER_02
100
AcDbCircle
 10
-4013.10396451227
 20
86.0871618776691
 30
0.0
 40
8.52903806758165
100
AcDbArc
 50
323.8086812689622
 51
186.19131873082
  0
ARC
  5
AC
330
1F
100
AcDbEntity
  8
LAYER_02
100
AcDbCircle
 10
-4002.992406976963
 20
78.68897297030155
 30
0.0
 40
3.99999999999994
100
AcDbArc
 50
143.8086812689639
 51
254.9999999998908
  0
LINE
  5
AD
330
1F
100
AcDbEntity
  8
LAYER_02
100
AcDbLine
 10
-4004.027683157381
 20
74.82526966514727
 30
0.0
 11
-4001.042083203123
 21
74.02528056847541
 31
0.0
  0
LINE
  5
AE
330
1F
100
AcDbEntity
  8
LAYER_02
100
AcDbLine
 10
-4058.119518393331
 20
-109.5009514133698
 30
0.0
 11
-4055.133918439071
 21
-108.7009623167093
 31
0.0
  0
ARC
  5
AF
330
1F
100
AcDbEntity
  8
LAYER_02
100
AcDbCircle
 10
-4054.098642258667
 20
-112.5646656218675
 30
0.0
 40
3.999999999999982
100
AcDbArc
 50
353.8086812689637
 51
104.9999999998934
  0
ARC
  5
B0
330
1F
100
AcDbEntity
  8
LAYER_02
100
AcDbCircle
 10
-4041.642682107581
 20
-113.9159063899908
 30
0.0
 40
8.529038067581595
100
AcDbArc
 50
173.8086812689622
 51
36.19131873081984
  0
ARC
  5
B1
330
1F
100
AcDbEntity
  8
LAYER_02
100
AcDbCircle
 10
-4031.531124572246
 20
-106.5177174826617
 30
0.0
 40
4.000000000000101
100
AcDbArc
 50
104.9999999998864
 51
216.1913187308177
  0
LINE
  5
B2
330
1F
100
AcDbEntity
  8
LAYER_02
100
AcDbLine
 10
-4032.566400752649
 20
-102.6540141775033
 30
0.0
 11
-4026.595200844125
 21
-101.0540359841818
 31
0.0
  0
ARC
  5
B3
330
1F
100
AcDbEntity
  8
LAYER_02
100
AcDbCircle
 10
-4027.630477024528
 20
-97.19033267902348
 30
0.0
 40
4.00000000000002
100
AcDbArc
 50
284.999999999893
 51
36.19131873081751
  0
ARC
  5
B4
330
1F
100
AcDbEntity
  8
LAYER_02
100
AcDbCircle
 10
-4017.518919489193
 20
-89.79214377169434
 30
0.0
 40
8.52903806758165
100
AcDbArc
 50
353.8086812689624
 51
216.1913187308201
  0
ARC
  5
B5
330
1F
100
AcDbEntity
  8
LAYER_02
100
AcDbCircle
 10
-4005.062959338106
 20
-91.14338453981769
 30
0.0
 40
3.99999999999994
100
AcDbArc
 50
173.8086812689633
 51
284.9999999998935
  0
LINE
  5
B6
330
1F
100
AcDbEntity
  8
LAYER_02
100
AcDbLine
 10
-4004.027683157703
 20
-95.00708784497584
 30
0.0
 11
-4001.042083203442
 21
-94.20709874831533
 31
0.0
  0
LINE
  5
B7
330
1F
100
AcDbEntity
  8
LAYER_02
100
AcDbLine
 10
-3958.709476069585
 20
-281.684195501049
 30
0.0
 11
-3956.523865211992
 21
-279.4985846434558
 31
0.0
  0
ARC
  5
B8
330
1F
100
AcDbEntity
  8
LAYER_02
100
AcDbCircle
 10
-3953.695438087245
 20
-282.3270117682019
 30
0.0
 40
3.999999999999982
100
AcDbArc
 50
23.80868126907182
 51
135.0000000000011
  0
ARC
  5
B9
330
1F
100
AcDbEntity
  8
LAYER_02
100
AcDbCircle
 10
-3942.232639783825
 20
-277.2692405244607
 30
0.0
 40
8.529038067581595
100
AcDbArc
 50
203.8086812690713
 51
66.19131873092918
  0
ARC
  5
BA
330
1F
100
AcDbEntity
  8
LAYER_02
100
AcDbCircle
 10
-3937.174868540083
 20
-265.8064422210405
 30
0.0
 40
4.000000000000101
100
AcDbArc
 50
134.9999999999989
 51
246.1913187309293
  0
LINE
  5
BB
330
1F
100
AcDbEntity
  8
LAYER_02
100
AcDbLine
 10
-3940.00329566483
 20
-262.9780150962941
 30
0.0
 11
-3935.632073949642
 21
-258.6067933811063
 31
0.0
  0
ARC
  5
BC
330
1F
100
AcDbEntity
  8
LAYER_02
100
AcDbCircle
 10
-3938.460501074388
 20
-255.7783662563601
 30
0.0
 40
4.00000000000002
100
AcDbArc
 50
314.9999999999994
 51
66.19131873092918
  0
ARC
  5
BD
330
1F
100
AcDbEntity
  8
LAYER_02
100
AcDbCircle
 10
-3933.402729830647
 20
-244.3155679529399
 30
0.0
 40
8.52903806758165
100
AcDbArc
 50
23.80868126907115
 51
246.1913187309293
  0
ARC
  5
BE
330
1F
100
AcDbEntity
  8
LAYER_02
100
AcDbCircle
 10
-3921.939931527227
 20
-239.2577967091986
 30
0.0
 40
3.99999999999994
100
AcDbArc
 50
203.8086812690715
 51
315.0000000000014
  0
LINE
  5
BF
330
1F
100
AcDbEntity
  8
LAYER_02
100
AcDbLine
 10
-3919.11150440248
 20
-242.0862238339447
 30
0.0
 11
-3916.925893544887
 21
-239.9006129763516
 31
0.0
  0
LINE
  5
C0
330
1F
100
AcDbEntity
  8
LAYER_02
100
AcDbLine
 10
-3786.526231983314
 20
-381.0942378244185
 30
0.0
 11
-3785.726242886642
 21
-378.1086378701607
 31
0.0
  0
ARC
  5
C1
330
1F
100
AcDbEntity
  8
LAYER_02
100
AcDbCircle
 10
-3781.862539581487
 20
-379.143914050578
 30
0.0
 40
3.999999999999982
100
AcDbArc
 50
53.80868126896494
 51
164.9999999998925
  0
ARC
  5
C2
330
1F
100
AcDbEntity
  8
LAYER_02
100
AcDbCircle
 10
-3774.46435067412
 20
-369.0323565152715
 30
0.0
 40
8.529038067581595
100
AcDbArc
 50
233.8086812689617
 51
96.19131873081768
  0
ARC
  5
C3
330
1F
100
AcDbEntity
  8
LAYER_02
100
AcDbCircle
 10
-3775.815591442196
 20
-356.5763963641793
 30
0.0
 40
4.000000000000101
100
AcDbArc
 50
164.9999999998903
 51
276.1913187308168
  0
LINE
  5
C4
330
1F
100
AcDbEntity
  8
LAYER_02
100
AcDbLine
 10
-3779.67929474735
 20
-355.5411201837617
 30
0.0
 11
-3778.079316554006
 21
-349.569920275244
 31
0.0
  0
ARC
  5
C5
330
1F
100
AcDbEntity
  8
LAYER_02
100
AcDbCircle
 10
-3781.94301985916
 20
-348.5346440948265
 30
0.0
 40
4.00000000000002
100
AcDbArc
 50
344.9999999998894
 51
96.19131873081687
  0
ARC
  5
C6
330
1F
100
AcDbEntity
  8
LAYER_02
100
AcDbCircle
 10
-3783.294260627236
 20
-336.0786839437342
 30
0.0
 40
8.52903806758165
100
AcDbArc
 50
53.80868126896201
 51
276.1913187308207
  0
ARC
  5
C7
330
1F
100
AcDbEntity
  8
LAYER_02
100
AcDbCircle
 10
-3775.896071719869
 20
-325.9671264084278
 30
0.0
 40
3.99999999999994
100
AcDbArc
 50
233.8086812689645
 51
344.9999999998917
  0
LINE
  5
C8
330
1F
100
AcDbEntity
  8
LAYER_02
100
AcDbLine
 10
-3772.032368414714
 20
-327.0024025888451
 30
0.0
 11
-3771.232379318043
 21
-324.0168026345872
 31
0.0
  0
LINE
  5
C9
330
1F
100
AcDbEntity
  8
LAYER_02
100
AcDbLine
 10
-3587.706147336197
 20
-381.0942378247959
 30
0.0
 11
-3588.506136432858
 21
-378.108637870535
 31
0.0
  0
ARC
  5
CA
330
1F
100
AcDbEntity
  8
LAYER_02
100
AcDbCircle
 10
-3584.6424331277
 20
-377.0733616901321
 30
0.0
 40
3.999999999999982
100
AcDbArc
 50
83.80868126896681
 51
194.9999999998933
  0
ARC
  5
CB
330
1F
100
AcDbEntity
  8
LAYER_02
100
AcDbCircle
 10
-3583.291192359577
 20
-364.6174015390451
 30
0.0
 40
8.529038067581595
100
AcDbArc
 50
263.8086812689612
 51
126.191318730819
  0
ARC
  5
CC
330
1F
100
AcDbEntity
  8
LAYER_02
100
AcDbCircle
 10
-3590.689381266906
 20
-354.5058440037104
 30
0.0
 40
4.000000000000101
100
AcDbArc
 50
194.9999999998902
 51
306.1913187308162
  0
LINE
  5
CD
330
1F
100
AcDbEntity
  8
LAYER_02
100
AcDbLine
 10
-3594.553084572064
 20
-355.5411201841131
 30
0.0
 11
-3596.153062765386
 21
-349.5699202755893
 31
0.0
  0
ARC
  5
CE
330
1F
100
AcDbEntity
  8
LAYER_02
100
AcDbCircle
 10
-3600.016766070544
 20
-350.605196455992
 30
0.0
 40
4.00000000000002
100
AcDbArc
 50
14.99999999989019
 51
126.1913187308172
  0
ARC
  5
CF
330
1F
100
AcDbEntity
  8
LAYER_02
100
AcDbCircle
 10
-3607.414954977873
 20
-340.4936389206574
 30
0.0
 40
8.52903806758165
100
AcDbArc
 50
83.80868126896118
 51
306.191318730819
  0
ARC
  5
D0
330
1F
100
AcDbEntity
  8
LAYER_02
100
AcDbCircle
 10
-3606.06371420975
 20
-328.0376787695703
 30
0.0
 40
3.99999999999994
100
AcDbArc
 50
263.8086812689668
 51
14.99999999989254
  0
LINE
  5
D1
330
1F
100
AcDbEntity
  8
LAYER_02
100
AcDbLine
 10
-3602.200010904592
 20
-327.0024025891674
 30
0.0
 11
-3603.000000001252
 21
-324.0168026349066
 31
0.0
  0
LINE
  5
D2
330
1F
100
AcDbEntity
  8
LAYER_02
100
AcDbLine
 10
-3415.522903249034
 20
-281.6841955015648
 30
0.0
 11
-3417.708514106623
 21
-279.4985846439675
 31
0.0
  0
ARC
  5
D3
330
1F
100
AcDbEntity
  8
LAYER_02
100
AcDbCircle
 10
-3414.880086981872
 20
-276.6701575192266
 30
0.0
 40
3.999999999999982
100
AcDbArc
 50
113.8086812689639
 51
224.9999999998912
  0
ARC
  5
D4
330
1F
100
AcDbEntity
  8
LAYER_02
100
AcDbCircle
 10
-3419.937858225591
 20
-265.2073592157968
 30
0.0
 40
8.529038067581595
100
AcDbArc
 50
293.8086812689636
 51
156.1913187308203
  0
ARC
  5
D5
330
1F
100
AcDbEntity
  8
LAYER_02
100
AcDbCircle
 10
-3431.400656529002
 20
-260.1495879720336
 30
0.0
 40
4.000000000000101
100
AcDbArc
 50
224.99999999989
 51
336.1913187308174
  0
LINE
  5
D6
330
1F
100
AcDbEntity
  8
LAYER_02
100
AcDbLine
 10
-3434.229083653753
 20
-262.9780150967744
 30
0.0
 11
-3438.600305368933
 21
-258.6067933815783
 31
0.0
  0
ARC
  5
D7
330
1F
100
AcDbEntity
  8
LAYER_02
100
AcDbCircle
 10
-3441.428732493684
 20
-261.4352205063191
 30
0.0
 40
4.00000000000002
100
AcDbArc
 50
44.99999999988946
 51
156.1913187308182
  0
ARC
  5
D8
330
1F
100
AcDbEntity
  8
LAYER_02
100
AcDbCircle
 10
-3452.891530797095
 20
-256.3774492625558
 30
0.0
 40
8.52903806758165
100
AcDbArc
 50
113.8086812689634
 51
336.1913187308199
  0
ARC
  5
D9
330
1F
100
AcDbEntity
  8
LAYER_02
100
AcDbCircle
 10
-3457.949302040814
 20
-244.9146509591261
 30
0.0
 40
3.99999999999994
100
AcDbArc
 50
293.8086812689642
 51
44.99999999989032
  0
LINE
  5
DA
330
1F
100
AcDbEntity
  8
LAYER_02
100
AcDbLine
 10
-3455.120874916063
 20
-242.0862238343853
 30
0.0
 11
-3457.306485773652
 21
-239.900612976788
 31
0.0
  0
LINE
  5
DB
330
1F
100
AcDbEntity
  8
LAYER_02
100
AcDbLine
 10
-3316.112860925149
 20
-109.5009514147786
 30
0.0
 11
-3319.098460879407
 21
-108.7009623181068
 31
0.0
  0
ARC
  5
DC
330
1F
100
AcDbEntity
  8
LAYER_02
100
AcDbCircle
 10
-3318.06318469899
 20
-104.8372590129524
 30
0.0
 40
3.999999999999982
100
AcDbArc
 50
143.8086812689638
 51
254.999999999891
  0
ARC
  5
DD
330
1F
100
AcDbEntity
  8
LAYER_02
100
AcDbCircle
 10
-3328.174742234296
 20
-97.43907010558493
 30
0.0
 40
8.529038067581595
100
AcDbArc
 50
323.8086812689623
 51
186.1913187308196
  0
ARC
  5
DE
330
1F
100
AcDbEntity
  8
LAYER_02
100
AcDbCircle
 10
-3340.630702385388
 20
-98.79031087366077
 30
0.0
 40
4.000000000000101
100
AcDbArc
 50
254.9999999998912
 51
6.191318730816881
  0
LINE
  5
DF
330
1F
100
AcDbEntity
  8
LAYER_02
100
AcDbLine
 10
-3341.665978565806
 20
-102.6540141788151
 30
0.0
 11
-3347.637178474323
 21
-101.0540359854709
 31
0.0
  0
ARC
  5
E0
330
1F
100
AcDbEntity
  8
LAYER_02
100
AcDbCircle
 10
-3348.672454654741
 20
-104.9177392906252
 30
0.0
 40
4.00000000000002
100
AcDbArc
 50
74.9999999998909
 51
186.1913187308182
  0
ARC
  5
E1
330
1F
100
AcDbEntity
  8
LAYER_02
100
AcDbCircle
 10
-3361.128414805833
 20
-106.2689800587011
 30
0.0
 40
8.52903806758165
100
AcDbArc
 50
143.8086812689621
 51
6.191318730819959
  0
ARC
  5
E2
330
1F
100
AcDbEntity
  8
LAYER_02
100
AcDbCircle
 10
-3371.23997234114
 20
-98.87079115133355
 30
0.0
 40
3.99999999999994
100
AcDbArc
 50
323.8086812689639
 51
74.9999999998908
  0
LINE
  5
E3
330
1F
100
AcDbEntity
  8
LAYER_02
100
AcDbLine
 10
-3370.204696160723
 20
-95.00708784617927
 30
0.0
 11
-3373.19029611498
 21
-94.20709874950741
 31
0.0
  0
LINE
  5
E4
330
1F
100
AcDbEntity
  8
LAYER_02
100
AcDbLine
 10
-3316.112860924772
 20
89.31913323233805
 30
0.0
 11
-3319.098460879032
 21
88.51914413567754
 31
0.0
  0
ARC
  5
E5
330
1F
100
AcDbEntity
  8
LAYER_02
100
AcDbCircle
 10
-3320.133737059436
 20
92.38284744083572
 30
0.0
 40
3.999999999999982
100
AcDbArc
 50
173.8086812689637
 51
284.9999999998934
  0
ARC
  5
E6
330
1F
100
AcDbEntity
  8
LAYER_02
100
AcDbCircle
 10
-3332.589697210522
 20
93.73408820895902
 30
0.0
 40
8.529038067581595
100
AcDbArc
 50
353.8086812689621
 51
216.1913187308199
  0
ARC
  5
E7
330
1F
100
AcDbEntity
  8
LAYER_02
100
AcDbCircle
 10
-3342.701254745857
 20
86.33589930162996
 30
0.0
 40
4.000000000000101
100
AcDbArc
 50
284.9999999998864
 51
36.19131873081768
  0
LINE
  5
E8
330
1F
100
AcDbEntity
  8
LAYER_02
100
AcDbLine
 10
-3341.665978565454
 20
82.4721959964716
 30
0.0
 11
-3347.637178473978
 21
80.87221780315002
 31
0.0
  0
ARC
  5
E9
330
1F
100
AcDbEntity
  8
LAYER_02
100
AcDbCircle
 10
-3346.601902293575
 20
77.00851449799174
 30
0.0
 40
4.00000000000002
100
AcDbArc
 50
104.999999999893
 51
216.1913187308177
  0
ARC
  5
EA
330
1F
100
AcDbEntity
  8
LAYER_02
100
AcDbCircle
 10
-3356.71345982891
 20
69.6103255906626
 30
0.0
 40
8.52903806758165
100
AcDbArc
 50
173.8086812689623
 51
36.19131873082016
  0
ARC
  5
EB
330
1F
100
AcDbEntity
  8
LAYER_02
100
AcDbCircle
 10
-3369.169419979997
 20
70.96156635878594
 30
0.0
 40
3.99999999999994
100
AcDbArc
 50
353.8086812689633
 51
104.9999999998935
  0
LINE
  5
EC
330
1F
100
AcDbEntity
  8
LAYER_02
100
AcDbLine
 10
-3370.2046961604
 20
74.8252696639441
 30
0.0
 11
-3373.190296114661
 21
74.02528056728359
 31
0.0
  0
LINE
  5
ED
330
1F
100
AcDbEntity
  8
LAYER_02
100
AcDbLine
 10
-3415.522903248519
 20
261.5023773200173
 30
0.0
 11
-3417.708514106112
 21
259.3167664624242
 31
0.0
  0
ARC
  5
EE
330
1F
100
AcDbEntity
  8
LAYER_02
100
AcDbCircle
 10
-3420.536941230858
 20
262.1451935871702
 30
0.0
 40
3.999999999999982
100
AcDbArc
 50
203.8086812690718
 51
315.0000000000011
  0
ARC
  5
EF
330
1F
100
AcDbEntity
  8
LAYER_02
100
AcDbCircle
 10
-3431.999739534278
 20
257.087422343429
 30
0.0
 40
8.529038067581595
100
AcDbArc
 50
23.80868126907132
 51
246.1913187309292
  0
ARC
  5
F0
330
1F
100
AcDbEntity
  8
LAYER_02
100
AcDbCircle
 10
-3437.05751077802
 20
245.6246240400088
 30
0.0
 40
4.000000000000101
100
AcDbArc
 50
314.9999999999986
 51
66.19131873092934
  0
LINE
  5
F1
330
1F
100
AcDbEntity
  8
LAYER_02
100
AcDbLine
 10
-3434.229083653273
 20
242.7961969152624
 30
0.0
 11
-3438.600305368461
 21
238.4249752000746
 31
0.0
  0
ARC
  5
F2
330
1F
100
AcDbEntity
  8
LAYER_02
100
AcDbCircle
 10
-3435.771878243715
 20
235.5965480753284
 30
0.0
 40
4.00000000000002
100
AcDbArc
 50
134.9999999999994
 51
246.1913187309292
  0
ARC
  5
F3
330
1F
100
AcDbEntity
  8
LAYER_02
100
AcDbCircle
 10
-3440.829649487456
 20
224.1337497719082
 30
0.0
 40
8.52903806758165
100
AcDbArc
 50
203.8086812690711
 51
66.19131873092934
  0
ARC
  5
F4
330
1F
100
AcDbEntity
  8
LAYER_02
100
AcDbCircle
 10
-3452.292447790876
 20
219.075978528167
 30
0.0
 40
3.99999999999994
100
AcDbArc
 50
23.80868126907145
 51
135.0000000000014
  0
LINE
  5
F5
330
1F
100
AcDbEntity
  8
LAYER_02
100
AcDbLine
 10
-3455.120874915623
 20
221.904405652913
 30
0.0
 11
-3457.306485773216
 21
219.7187947953199
 31
0.0
  0
LINE
  5
F6
330
1F
100
AcDbEntity
  8
LAYER_02
100
AcDbLine
 10
-3587.706147334718
 20
360.9124196433676
 30
0.0
 11
-3588.506136431391
 21
357.9268196891099
 31
0.0
  0
ARC
  5
F7
330
1F
100
AcDbEntity
  8
LAYER_02
100
AcDbCircle
 10
-3592.369839736544
 20
358.9620958695279
 30
0.0
 40
3.999999999999982
100
AcDbArc
 50
233.80868126895
 51
344.9999999998823
  0
ARC
  5
F8
330
1F
100
AcDbEntity
  8
LAYER_02
100
AcDbCircle
 10
-3599.768028643914
 20
348.850538334223
 30
0.0
 40
8.529038067581595
100
AcDbArc
 50
53.80868126895055
 51
276.1913187308084
  0
ARC
  5
F9
330
1F
100
AcDbEntity
  8
LAYER_02
100
AcDbCircle
 10
-3598.41678787584
 20
336.3945781831304
 30
0.0
 40
4.000000000000101
100
AcDbArc
 50
344.9999999998784
 51
96.19131873081011
  0
LINE
  5
FA
330
1F
100
AcDbEntity
  8
LAYER_02
100
AcDbLine
 10
-3594.553084570686
 20
335.3593020027121
 30
0.0
 11
-3596.153062764031
 21
329.3881020941947
 31
0.0
  0
ARC
  5
FB
330
1F
100
AcDbEntity
  8
LAYER_02
100
AcDbCircle
 10
-3592.289359458878
 20
328.3528259137765
 30
0.0
 40
4.00000000000002
100
AcDbArc
 50
164.9999999998792
 51
276.1913187308103
  0
ARC
  5
FC
330
1F
100
AcDbEntity
  8
LAYER_02
100
AcDbCircle
 10
-3590.938118690804
 20
315.8968657626839
 30
0.0
 40
8.52903806758165
100
AcDbArc
 50
233.8086812689507
 51
96.19131873080838
  0
ARC
  5
FD
330
1F
100
AcDbEntity
  8
LAYER_02
100
AcDbCircle
 10
-3598.336307598173
 20
305.7853082273789
 30
0.0
 40
3.99999999999994
100
AcDbArc
 50
53.8086812689501
 51
164.9999999998815
  0
LINE
  5
FE
330
1F
100
AcDbEntity
  8
LAYER_02
100
AcDbLine
 10
-3602.200010903328
 20
306.820584407797
 30
0.0
 11
-3603.0
 21
303.8349844535393
 31
0.0
  0
LINE
  5
FF
330
1F
100
AcDbEntity
  8
LAYER_02
100
AcDbLine
 10
-3786.526231981905
 20
360.9124196437641
 30
0.0
 11
-3785.726242885245
 21
357.9268196895032
 31
0.0
  0
ARC
  5
100
330
1F
100
AcDbEntity
  8
LAYER_02
100
AcDbCircle
 10
-3789.589946190403
 20
356.8915435091004
 30
0.0
 40
3.999999999999982
100
AcDbArc
 50
263.8086812689668
 51
14.99999999989333
  0
ARC
  5
101
330
1F
100
AcDbEntity
  8
LAYER_02
100
AcDbCircle
 10
-3790.941186958526
 20
344.4355833580133
 30
0.0
 40
8.529038067581595
100
AcDbArc
 50
83.80868126896115
 51
306.191318730819
  0
ARC
  5
102
330
1F
100
AcDbEntity
  8
LAYER_02
100
AcDbCircle
 10
-3783.542998051197
 20
334.3240258226787
 30
0.0
 40
4.000000000000101
100
AcDbArc
 50
14.99999999989019
 51
126.1913187308162
  0
LINE
  5
103
330
1F
100
AcDbEntity
  8
LAYER_02
100
AcDbLine
 10
-3779.679294746039
 20
335.3593020030813
 30
0.0
 11
-3778.079316552718
 21
329.3881020945576
 31
0.0
  0
ARC
  5
104
330
1F
100
AcDbEntity
  8
LAYER_02
100
AcDbCircle
 10
-3774.215613247559
 20
330.4233782749602
 30
0.0
 40
4.00000000000002
100
AcDbArc
 50
194.9999999998902
 51
306.1913187308172
  0
ARC
  5
105
330
1F
100
AcDbEntity
  8
LAYER_02
100
AcDbCircle
 10
-3766.81742434023
 20
320.3118207396256
 30
0.0
 40
8.52903806758165
100
AcDbArc
 50
263.8086812689612
 51
126.191318730819
  0
ARC
  5
106
330
1F
100
AcDbEntity
  8
LAYER_02
100
AcDbCircle
 10
-3768.168665108353
 20
307.8558605885385
 30
0.0
 40
3.99999999999994
100
AcDbArc
 50
83.80868126896681
 51
194.9999999998925
  0
LINE
  5
107
330
1F
100
AcDbEntity
  8
LAYER_02
100
AcDbLine
 10
-3772.032368413511
 20
306.8205844081357
 30
0.0
 11
-3771.232379316851
 21
303.8349844538748
 31
0.0
  0
LINE
  5
108
330
1F
100
AcDbEntity
  8
LAYER_02
100
AcDbLine
 10
-4019.748674294782
 20
181.9545454557331
 30
0.0
 11
-3968.574445889231
 21
152.4090909103557
 31
0.0
  0
LINE
  5
109
330
1F
100
AcDbEntity
  8
LAYER_02
100
AcDbLine
 10
-4071.207098750655
 20
-10.09090908999981
 30
0.0
 11
-4012.116189659693
 21
-10.0909090898798
 31
0.0
  0
LINE
  5
10A
330
1F
100
AcDbEntity
  8
LAYER_02
100
AcDbLine
 10
-4019.748674295298
 20
-202.1363636358706
 30
0.0
 11
-3968.574445889868
 21
-172.5909090902854
 31
0.0
  0
LINE
  5
10B
330
1F
100
AcDbEntity
  8
LAYER_02
100
AcDbLine
 10
-3879.1616442053
 20
-342.7233937262462
 30
0.0
 11
-3849.616189659923
 21
-291.5491653206956
 31
0.0
  0
LINE
  5
10C
330
1F
100
AcDbEntity
  8
LAYER_02
100
AcDbLine
 10
-3687.116189659568
 20
-394.1818181821197
 30
0.0
 11
-3687.116189659688
 21
-335.090909091157
 31
0.0
  0
LINE
  5
10D
330
1F
100
AcDbEntity
  8
LAYER_02
100
AcDbLine
 10
-3495.070735113697
 20
-342.7233937267624
 30
0.0
 11
-3524.616189659282
 21
-291.5491653213318
 31
0.0
  0
LINE
  5
10E
330
1F
100
AcDbEntity
  8
LAYER_02
100
AcDbLine
 10
-3354.483705023322
 20
-202.1363636367651
 30
0.0
 11
-3405.657933428872
 21
-172.5909090913877
 31
0.0
  0
LINE
  5
10F
330
1F
100
AcDbEntity
  8
LAYER_02
100
AcDbLine
 10
-3303.025280567448
 20
-10.09090909103193
 30
0.0
 11
-3362.11618965841
 21
-10.09090909115194
 31
0.0
  0
LINE
  5
110
330
1F
100
AcDbEntity
  8
LAYER_02
100
AcDbLine
 10
-3354.483705022805
 20
181.9545454548388
 30
0.0
 11
-3405.657933428236
 21
152.4090909092536
 31
0.0
  0
LINE
  5
111
330
1F
100
AcDbEntity
  8
LAYER_02
100
AcDbLine
 10
-3495.070735112802
 20
322.5415755452141
 30
0.0
 11
-3524.61618965818
 21
271.3673471396637
 31
0.0
  0
POLYLINE
  5
112
330
1F
100
AcDbEntity
  8
LAYER_02
100
AcDb2dPolyline
 66
     1
 10
0.0
 20
0.0
 30
0.0
  0
VERTEX
  5
113
330
112
100
AcDbEntity
  8
LAYER_02
100
AcDbVertex
100
AcDb2dVertex
 10
-3727.298007840235
 20
332.6363636370667
 30
0.0
  0
VERTEX
  5
114
330
112
100
AcDbEntity
  8
LAYER_02
100
AcDbVertex
100
AcDb2dVertex
 10
-3727.298007840235
 20
424.8181818189682
 30
0.0
  0
VERTEX
  5
115
330
112
100
AcDbEntity
  8
LAYER_02
100
AcDbVertex
100
AcDb2dVertex
 10
-3646.934371476526
 20
424.8181818189682
 30
0.0
  0
VERTEX
  5
116
330
112
100
AcDbEntity
  8
LAYER_02
100
AcDbVertex
100
AcDb2dVertex
 10
-3646.934371476526
 20
332.6363636370667
 30
0.0
  0
SEQEND
  5
117
330
112
100
AcDbEntity
  8
LAYER_02
  0
LINE
  5
118
330
1F
100
AcDbEntity
  8
LAYER_02
100
AcDbLine
 10
-3727.298007840235
 20
332.6363636370667
 30
0.0
 11
-3646.934371476526
 21
332.6363636370667
 31
0.0
  0
LINE
  5
119
330
1F
100
AcDbEntity
  8
LAYER_02
100
AcDbLine
 10
-3893.278301337995
 20
266.6287065707365
 30
0.0
 11
-3823.681350706528
 21
306.810524752591
 31
0.0
  0
POLYLINE
  5
11A
330
1F
100
AcDbEntity
  8
LAYER_02
100
AcDb2dPolyline
 66
     1
 10
0.0
 20
0.0
 30
0.0
  0
VERTEX
  5
11B
330
11A
100
AcDbEntity
  8
LAYER_02
100
AcDbVertex
100
AcDb2dVertex
 10
-3893.278301337995
 20
266.6287065707365
 30
0.0
  0
VERTEX
  5
11C
330
11A
100
AcDbEntity
  8
LAYER_02
100
AcDbVertex
100
AcDb2dVertex
 10
-3939.369210428946
 20
346.4605028833015
 30
0.0
  0
VERTEX
  5
11D
330
11A
100
AcDbEntity
  8
LAYER_02
100
AcDbVertex
100
AcDb2dVertex
 10
-3869.772259797479
 20
386.642321065156
 30
0.0
  0
VERTEX
  5
11E
330
11A
100
AcDbEntity
  8
LAYER_02
100
AcDbVertex
100
AcDb2dVertex
 10
-3823.681350706528
 20
306.810524752591
 30
0.0
  0
SEQEND
  5
11F
330
11A
100
AcDbEntity
  8
LAYER_02
  0
LINE
  5
120
330
1F
100
AcDbEntity
  8
LAYER_02
100
AcDbLine
 10
-4004.017623501487
 20
126.474251958123
 30
0.0
 11
-3963.835805319633
 21
196.0712025895899
 31
0.0
  0
POLYLINE
  5
121
330
1F
100
AcDbEntity
  8
LAYER_02
100
AcDb2dPolyline
 66
     1
 10
0.0
 20
0.0
 30
0.0
  0
VERTEX
  5
122
330
121
100
AcDbEntity
  8
LAYER_02
100
AcDbVertex
100
AcDb2dVertex
 10
-4004.017623501487
 20
126.474251958123
 30
0.0
  0
VERTEX
  5
123
330
121
100
AcDbEntity
  8
LAYER_02
100
AcDbVertex
100
AcDb2dVertex
 10
-4083.849419814052
 20
172.5651610490738
 30
0.0
  0
VERTEX
  5
124
330
121
100
AcDbEntity
  8
LAYER_02
100
AcDbVertex
100
AcDb2dVertex
 10
-4043.667601632198
 20
242.1621116805408
 30
0.0
  0
VERTEX
  5
125
330
121
100
AcDbEntity
  8
LAYER_02
100
AcDbVertex
100
AcDb2dVertex
 10
-3963.835805319633
 20
196.0712025895899
 30
0.0
  0
SEQEND
  5
126
330
121
100
AcDbEntity
  8
LAYER_02
  0
LINE
  5
127
330
1F
100
AcDbEntity
  8
LAYER_02
100
AcDbLine
 10
-4029.843462386634
 20
-50.27272727169947
 30
0.0
 11
-4029.843462386634
 21
30.09090909200956
 31
0.0
  0
POLYLINE
  5
128
330
1F
100
AcDbEntity
  8
LAYER_02
100
AcDb2dPolyline
 66
     1
 10
0.0
 20
0.0
 30
0.0
  0
VERTEX
  5
129
330
128
100
AcDbEntity
  8
LAYER_02
100
AcDbVertex
100
AcDb2dVertex
 10
-4029.843462386634
 20
-50.27272727169947
 30
0.0
  0
VERTEX
  5
12A
330
128
100
AcDbEntity
  8
LAYER_02
100
AcDbVertex
100
AcDb2dVertex
 10
-4122.025280568536
 20
-50.27272727169947
 30
0.0
  0
VERTEX
  5
12B
330
128
100
AcDbEntity
  8
LAYER_02
100
AcDbVertex
100
AcDb2dVertex
 10
-4122.025280568536
 20
30.09090909200956
 30
0.0
  0
VERTEX
  5
12C
330
128
100
AcDbEntity
  8
LAYER_02
100
AcDbVertex
100
AcDb2dVertex
 10
-4029.843462386634
 20
30.09090909200956
 30
0.0
  0
SEQEND
  5
12D
330
128
100
AcDbEntity
  8
LAYER_02
  0
LINE
  5
12E
330
1F
100
AcDbEntity
  8
LAYER_02
100
AcDbLine
 10
-3963.835805320304
 20
-216.2530207694595
 30
0.0
 11
-4004.017623502158
 21
-146.6560701379926
 31
0.0
  0
POLYLINE
  5
12F
330
1F
100
AcDbEntity
  8
LAYER_02
100
AcDb2dPolyline
 66
     1
 10
0.0
 20
0.0
 30
0.0
  0
VERTEX
  5
130
330
12F
100
AcDbEntity
  8
LAYER_02
100
AcDbVertex
100
AcDb2dVertex
 10
-3963.835805320304
 20
-216.2530207694595
 30
0.0
  0
VERTEX
  5
131
330
12F
100
AcDbEntity
  8
LAYER_02
100
AcDbVertex
100
AcDb2dVertex
 10
-4043.667601632869
 20
-262.3439298604103
 30
0.0
  0
VERTEX
  5
132
330
12F
100
AcDbEntity
  8
LAYER_02
100
AcDbVertex
100
AcDb2dVertex
 10
-4083.849419814724
 20
-192.7469792289434
 30
0.0
  0
VERTEX
  5
133
330
12F
100
AcDbEntity
  8
LAYER_02
100
AcDbVertex
100
AcDb2dVertex
 10
-4004.017623502158
 20
-146.6560701379926
 30
0.0
  0
SEQEND
  5
134
330
12F
100
AcDbEntity
  8
LAYER_02
  0
LINE
  5
135
330
1F
100
AcDbEntity
  8
LAYER_02
100
AcDbLine
 10
-3823.68135070769
 20
-326.9923429329518
 30
0.0
 11
-3893.278301339157
 21
-286.8105247510973
 31
0.0
  0
POLYLINE
  5
136
330
1F
100
AcDbEntity
  8
LAYER_02
100
AcDb2dPolyline
 66
     1
 10
0.0
 20
0.0
 30
0.0
  0
VERTEX
  5
137
330
136
100
AcDbEntity
  8
LAYER_02
100
AcDbVertex
100
AcDb2dVertex
 10
-3823.68135070769
 20
-326.9923429329518
 30
0.0
  0
VERTEX
  5
138
330
136
100
AcDbEntity
  8
LAYER_02
100
AcDbVertex
100
AcDb2dVertex
 10
-3869.772259798641
 20
-406.8241392455168
 30
0.0
  0
VERTEX
  5
139
330
136
100
AcDbEntity
  8
LAYER_02
100
AcDbVertex
100
AcDb2dVertex
 10
-3939.369210430108
 20
-366.6423210636623
 30
0.0
  0
VERTEX
  5
13A
330
136
100
AcDbEntity
  8
LAYER_02
100
AcDbVertex
100
AcDb2dVertex
 10
-3893.278301339157
 20
-286.8105247510973
 30
0.0
  0
SEQEND
  5
13B
330
136
100
AcDbEntity
  8
LAYER_02
  0
LINE
  5
13C
330
1F
100
AcDbEntity
  8
LAYER_02
100
AcDbLine
 10
-3646.934371477868
 20
-352.8181818180985
 30
0.0
 11
-3727.298007841577
 21
-352.8181818180985
 31
0.0
  0
POLYLINE
  5
13D
330
1F
100
AcDbEntity
  8
LAYER_02
100
AcDb2dPolyline
 66
     1
 10
0.0
 20
0.0
 30
0.0
  0
VERTEX
  5
13E
330
13D
100
AcDbEntity
  8
LAYER_02
100
AcDbVertex
100
AcDb2dVertex
 10
-3646.934371477868
 20
-352.8181818180985
 30
0.0
  0
VERTEX
  5
13F
330
13D
100
AcDbEntity
  8
LAYER_02
100
AcDbVertex
100
AcDb2dVertex
 10
-3646.934371477868
 20
-445.0
 30
0.0
  0
VERTEX
  5
140
330
13D
100
AcDbEntity
  8
LAYER_02
100
AcDbVertex
100
AcDb2dVertex
 10
-3727.298007841577
 20
-445.0
 30
0.0
  0
VERTEX
  5
141
330
13D
100
AcDbEntity
  8
LAYER_02
100
AcDbVertex
100
AcDb2dVertex
 10
-3727.298007841577
 20
-352.8181818180985
 30
0.0
  0
SEQEND
  5
142
330
13D
100
AcDbEntity
  8
LAYER_02
  0
LINE
  5
143
330
1F
100
AcDbEntity
  8
LAYER_02
100
AcDbLine
 10
-3480.954077980108
 20
-286.8105247517682
 30
0.0
 11
-3550.551028611575
 21
-326.9923429336228
 31
0.0
  0
POLYLINE
  5
144
330
1F
100
AcDbEntity
  8
LAYER_02
100
AcDb2dPolyline
 66
     1
 10
0.0
 20
0.0
 30
0.0
  0
VERTEX
  5
145
330
144
100
AcDbEntity
  8
LAYER_02
100
AcDbVertex
100
AcDb2dVertex
 10
-3480.954077980108
 20
-286.8105247517682
 30
0.0
  0
VERTEX
  5
146
330
144
100
AcDbEntity
  8
LAYER_02
100
AcDbVertex
100
AcDb2dVertex
 10
-3434.863168889157
 20
-366.6423210643332
 30
0.0
  0
VERTEX
  5
147
330
144
100
AcDbEntity
  8
LAYER_02
100
AcDbVertex
100
AcDb2dVertex
 10
-3504.460119520624
 20
-406.8241392461877
 30
0.0
  0
VERTEX
  5
148
330
144
100
AcDbEntity
  8
LAYER_02
100
AcDbVertex
100
AcDb2dVertex
 10
-3550.551028611575
 20
-326.9923429336228
 30
0.0
  0
SEQEND
  5
149
330
144
100
AcDbEntity
  8
LAYER_02
  0
LINE
  5
14A
330
1F
100
AcDbEntity
  8
LAYER_02
100
AcDbLine
 10
-3370.214755816616
 20
-146.6560701391549
 30
0.0
 11
-3410.39657399847
 21
-216.2530207706218
 31
0.0
  0
POLYLINE
  5
14B
330
1F
100
AcDbEntity
  8
LAYER_02
100
AcDb2dPolyline
 66
     1
 10
0.0
 20
0.0
 30
0.0
  0
VERTEX
  5
14C
330
14B
100
AcDbEntity
  8
LAYER_02
100
AcDbVertex
100
AcDb2dVertex
 10
-3370.214755816616
 20
-146.6560701391549
 30
0.0
  0
VERTEX
  5
14D
330
14B
100
AcDbEntity
  8
LAYER_02
100
AcDbVertex
100
AcDb2dVertex
 10
-3290.382959504051
 20
-192.7469792301057
 30
0.0
  0
VERTEX
  5
14E
330
14B
100
AcDbEntity
  8
LAYER_02
100
AcDbVertex
100
AcDb2dVertex
 10
-3330.564777685905
 20
-262.3439298615726
 30
0.0
  0
VERTEX
  5
14F
330
14B
100
AcDbEntity
  8
LAYER_02
100
AcDbVertex
100
AcDb2dVertex
 10
-3410.39657399847
 20
-216.2530207706218
 30
0.0
  0
SEQEND
  5
150
330
14B
100
AcDbEntity
  8
LAYER_02
  0
LINE
  5
151
330
1F
100
AcDbEntity
  8
LAYER_02
100
AcDbLine
 10
-3344.388916931469
 20
30.09090909066774
 30
0.0
 11
-3344.388916931469
 21
-50.2727272730413
 31
0.0
  0
POLYLINE
  5
152
330
1F
100
AcDbEntity
  8
LAYER_02
100
AcDb2dPolyline
 66
     1
 10
0.0
 20
0.0
 30
0.0
  0
VERTEX
  5
153
330
152
100
AcDbEntity
  8
LAYER_02
100
AcDbVertex
100
AcDb2dVertex
 10
-3344.388916931469
 20
30.09090909066774
 30
0.0
  0
VERTEX
  5
154
330
152
100
AcDbEntity
  8
LAYER_02
100
AcDbVertex
100
AcDb2dVertex
 10
-3252.207098749567
 20
30.09090909066774
 30
0.0
  0
VERTEX
  5
155
330
152
100
AcDbEntity
  8
LAYER_02
100
AcDbVertex
100
AcDb2dVertex
 10
-3252.207098749567
 20
-50.2727272730413
 30
0.0
  0
VERTEX
  5
156
330
152
100
AcDbEntity
  8
LAYER_02
100
AcDbVertex
100
AcDb2dVertex
 10
-3344.388916931469
 20
-50.2727272730413
 30
0.0
  0
SEQEND
  5
157
330
152
100
AcDbEntity
  8
LAYER_02
  0
LINE
  5
158
330
1F
100
AcDbEntity
  8
LAYER_02
100
AcDbLine
 10
-3410.396573997799
 20
196.0712025884279
 30
0.0
 11
-3370.214755815945
 21
126.474251956961
 31
0.0
  0
POLYLINE
  5
159
330
1F
100
AcDbEntity
  8
LAYER_02
100
AcDb2dPolyline
 66
     1
 10
0.0
 20
0.0
 30
0.0
  0
VERTEX
  5
15A
330
159
100
AcDbEntity
  8
LAYER_02
100
AcDbVertex
100
AcDb2dVertex
 10
-3410.396573997799
 20
196.0712025884279
 30
0.0
  0
VERTEX
  5
15B
330
159
100
AcDbEntity
  8
LAYER_02
100
AcDbVertex
100
AcDb2dVertex
 10
-3330.564777685234
 20
242.1621116793787
 30
0.0
  0
VERTEX
  5
15C
330
159
100
AcDbEntity
  8
LAYER_02
100
AcDbVertex
100
AcDb2dVertex
 10
-3290.382959503379
 20
172.5651610479117
 30
0.0
  0
VERTEX
  5
15D
330
159
100
AcDbEntity
  8
LAYER_02
100
AcDbVertex
100
AcDb2dVertex
 10
-3370.214755815945
 20
126.474251956961
 30
0.0
  0
SEQEND
  5
15E
330
159
100
AcDbEntity
  8
LAYER_02
  0
LINE
  5
15F
330
1F
100
AcDbEntity
  8
LAYER_02
100
AcDbLine
 10
-3550.551028610413
 20
306.81052475192
 30
0.0
 11
-3480.954077978946
 21
266.6287065700654
 31
0.0
  0
POLYLINE
  5
160
330
1F
100
AcDbEntity
  8
LAYER_02
100
AcDb2dPolyline
 66
     1
 10
0.0
 20
0.0
 30
0.0
  0
VERTEX
  5
161
330
160
100
AcDbEntity
  8
LAYER_02
100
AcDbVertex
100
AcDb2dVertex
 10
-3550.551028610413
 20
306.81052475192
 30
0.0
  0
VERTEX
  5
162
330
160
100
AcDbEntity
  8
LAYER_02
100
AcDbVertex
100
AcDb2dVertex
 10
-3504.460119519462
 20
386.642321064485
 30
0.0
  0
VERTEX
  5
163
330
160
100
AcDbEntity
  8
LAYER_02
100
AcDbVertex
100
AcDb2dVertex
 10
-3434.863168887995
 20
346.4605028826304
 30
0.0
  0
VERTEX
  5
164
330
160
100
AcDbEntity
  8
LAYER_02
100
AcDbVertex
100
AcDb2dVertex
 10
-3480.954077978946
 20
266.6287065700654
 30
0.0
  0
SEQEND
  5
165
330
160
100
AcDbEntity
  8
LAYER_02
  0
LINE
  5
166
330
1F
100
AcDbEntity
  8
LAYER_02
100
AcDbLine
 10
-3687.116189658535
 20
374.0000000010879
 30
0.0
 11
-3687.116189658415
 21
314.9090909101253
 31
0.0
  0
LINE
  5
167
330
1F
100
AcDbEntity
  8
LAYER_02
100
AcDbLine
 10
-3879.161644204093
 20
322.5415755455106
 30
0.0
 11
-3849.616189658702
 21
271.367347139968
 31
0.0
  0
ENDSEC
  0
SECTION
  2
OBJECTS
  0
DICTIONARY
  5
C
330
0
100
AcDbDictionary
  3
ACAD_GROUP
350
D
  3
ACAD_LAYOUT
350
1A
  3
ACAD_MATERIAL
350
43
  3
ACAD_MLEADERSTYLE
350
18A
  3
ACAD_MLINESTYLE
350
17
  3
ACAD_PLOTSETTINGS
350
19
  3
ACAD_SCALELIST
350
47
  3
ACAD_VISUALSTYLE
350
2A
  3
ACDBHEADERROUNDTRIPXREC
350
168
  3
ACDBVARIABLEDICTIONARY
350
188
  0
DICTIONARY
  5
D
102
{ACAD_REACTORS
330
C
102
}
330
C
100
AcDbDictionary
  0
DICTIONARY
  5
1A
102
{ACAD_REACTORS
330
C
102
}
330
C
100
AcDbDictionary
  0
DICTIONARY
  5
43
102
{ACAD_REACTORS
330
C
102
}
330
C
100
AcDbDictionary
  3
BYBLOCK
350
45
  3
BYLAYER
350
44
  3
GLOBAL
350
46
  0
DICTIONARY
  5
18A
102
{ACAD_REACTORS
330
C
102
}
330
C
100
AcDbDictionary
  0
DICTIONARY
  5
17
102
{ACAD_REACTORS
330
C
102
}
330
C
100
AcDbDictionary
  3
STANDARD
350
18
  0
DICTIONARY
  5
19
102
{ACAD_REACTORS
330
C
102
}
330
C
100
AcDbDictionary
  0
DICTIONARY
  5
47
102
{ACAD_REACTORS
330
C
102
}
330
C
100
AcDbDictionary
  3
A0
350
48
  3
A1
350
49
  3
A2
350
4A
  3
A3
350
4B
  3
A4
350
4C
  3
A5
350
4D
  3
A6
350
4E
  3
A7
350
4F
  3
A8
350
50
  3
A9
350
51
  3
B0
350
52
  3
B1
350
53
  3
B2
350
54
  3
B3
350
55
  3
B4
350
56
  3
B5
350
57
  3
B6
350
58
  3
B7
350
59
  3
B8
350
5A
  3
B9
350
5B
  3
C0
350
5C
  3
C1
350
5D
  3
C2
350
5E
  3
C3
350
5F
  3
C4
350
60
  3
C5
350
61
  3
C6
350
62
  3
C7
350
63
  3
C8
350
64
  3
C9
350
65
  3
D0
350
66
  3
D1
350
67
  3
D2
350
68
  0
DICTIONARY
  5
2A
102
{ACAD_REACTORS
330
C
102
}
330
C
100
AcDbDictionary
  3
2DWIREFRAME
350
2F
  3
BASIC
350
32
  3
BRIGHTEN
350
36
  3
COLORCHANGE
350
3A
  3
CONCEPTUAL
350
34
  3
DIM
350
35
  3
EDGECOLOROFF
350
3D
  3
FACEPATTERN
350
39
  3
FLAT
350
2B
  3
FLATWITHEDGES
350
2C
  3
GOURAUD
350
2D
  3
GOURAUDWITHEDGES
350
2E
  3
HIDDEN
350
31
  3
JITTEROFF
350
3B
  3
LINEPATTERN
350
38
  3
OVERHANGOFF
350
3C
  3
REALISTIC
350
33
  3
SHADED
350
42
  3
SHADED_WITH_EDGES
350
41
  3
SHADES_OF_GRAY
350
3E
  3
SKETCHY
350
3F
  3
THICKEN
350
37
  3
WIREFRAME
350
30
  3
X-RAY
350
40
  0
DICTIONARY
  5
168
102
{ACAD_REACTORS
330
C
102
}
330
C
100
AcDbDictionary
  3
CEPSNTYPE
350
171
  3
DIMSTYLEDATA
350
187
  3
FINGERPRINTGUID
350
172
  3
HYPERLINKBASE
350
16B
  3
INSUNITS
350
170
  3
LAYOUTDICT
350
16D
  3
LWETCUNION
350
16F
  3
PLOTSETDICT
350
16E
  3
PSVPSCALE
350
174
  3
PUCSBASE
350
177
  3
PUCSORGBACK
350
17D
  3
PUCSORGBOTTOM
350
179
  3
PUCSORGFRONT
350
17C
  3
PUCSORGLEFT
350
17A
  3
PUCSORGRIGHT
350
17B
  3
PUCSORGTOP
350
178
  3
PUCSORTHOREF
350
175
  3
PUCSORTHOVIEW
350
176
  3
STYLESHEET
350
16C
  3
TSTACKALIGN
350
169
  3
TSTACKSIZE
350
16A
  3
UCSBASE
350
180
  3
UCSORGBACK
350
186
  3
UCSORGBOTTOM
350
182
  3
UCSORGFRONT
350
185
  3
UCSORGLEFT
350
183
  3
UCSORGRIGHT
350
184
  3
UCSORGTOP
350
181
  3
UCSORTHOREF
350
17E
  3
UCSORTHOVIEW
350
17F
  3
VERSIONGUID
350
173
  0
DICTIONARY
  5
188
102
{ACAD_REACTORS
330
C
102
}
330
C
100
AcDbDictionary
  3
CANNOSCALE
350
18F
  3
DIMASSOC
350
18D
  3
HIDETEXT
350
18E
  3
MSLTSCALE
350
190
  0
MATERIAL
  5
45
102
{ACAD_REACTORS
330
43
102
}
102
{ACAD_XDICTIONARY
360
193
102
}
330
43
100
AcDbMaterial
  1
BYBLOCK
  0
MATERIAL
  5
44
102
{ACAD_REACTORS
330
43
102
}
102
{ACAD_XDICTIONARY
360
191
102
}
330
43
100
AcDbMaterial
  1
BYLAYER
  0
MATERIAL
  5
46
102
{ACAD_REACTORS
330
43
102
}
102
{ACAD_XDICTIONARY
360
195
102
}
330
43
100
AcDbMaterial
  1
GLOBAL
  0
MLINESTYLE
  5
18
102
{ACAD_REACTORS
330
17
102
}
330
17
100
AcDbMlineStyle
  2
Standard
 70
     0
  3

 62
   256
 51
90.0
 52
90.0
 71
     2
 49
0.5
 62
   256
  6
BYLAYER
 49
-0.5
 62
   256
  6
BYLAYER
  0
ACAD_PROXY_OBJECT
  5
48
102
{ACAD_REACTORS
330
47
102
}
330
47
100
AcDbProxyObject
 90
      499
 91
      503
 93
       41
310
903313A31580
  0
ACAD_PROXY_OBJECT
  5
49
102
{ACAD_REACTORS
330
47
102
}
330
47
100
AcDbProxyObject
 90
      499
 91
      503
 93
      105
310
903313A324000000000000004000
  0
ACAD_PROXY_OBJECT
  5
4A
102
{ACAD_REACTORS
330
47
102
}
330
47
100
AcDbProxyObject
 90
      499
 91
      503
 93
      105
310
903313A344000000000000104000
  0
ACAD_PROXY_OBJECT
  5
4B
102
{ACAD_REACTORS
330
47
102
}
330
47
100
AcDbProxyObject
 90
      499
 91
      503
 93
      105
310
903313A354000000000000144000
  0
ACAD_PROXY_OBJECT
  5
4C
102
{ACAD_REACTORS
330
47
102
}
330
47
100
AcDbProxyObject
 90
      499
 91
      503
 93
      105
310
903313A384000000000000204000
  0
ACAD_PROXY_OBJECT
  5
4D
102
{ACAD_REACTORS
330
47
102
}
330
47
100
AcDbProxyObject
 90
      499
 91
      503
 93
      113
310
904313A31304000000000000244000
  0
ACAD_PROXY_OBJECT
  5
4E
102
{ACAD_REACTORS
330
47
102
}
330
47
100
AcDbProxyObject
 90
      499
 91
      503
 93
      113
310
904313A31364000000000000304000
  0
ACAD_PROXY_OBJECT
  5
4F
102
{ACAD_REACTORS
330
47
102
}
330
47
100
AcDbProxyObject
 90
      499
 91
      503
 93
      113
310
904313A32304000000000000344000
  0
ACAD_PROXY_OBJECT
  5
50
102
{ACAD_REACTORS
330
47
102
}
330
47
100
AcDbProxyObject
 90
      499
 91
      503
 93
      113
310
904313A333040000000000003E4000
  0
ACAD_PROXY_OBJECT
  5
51
102
{ACAD_REACTORS
330
47
102
}
330
47
100
AcDbProxyObject
 90
      499
 91
      503
 93
      113
310
904313A34304000000000000444000
  0
ACAD_PROXY_OBJECT
  5
52
102
{ACAD_REACTORS
330
47
102
}
330
47
100
AcDbProxyObject
 90
      499
 91
      503
 93
      113
310
904313A35304000000000000494000
  0
ACAD_PROXY_OBJECT
  5
53
102
{ACAD_REACTORS
330
47
102
}
330
47
100
AcDbProxyObject
 90
      499
 91
      503
 93
      121
310
905313A3130304000000000000594000
  0
ACAD_PROXY_OBJECT
  5
54
102
{ACAD_REACTORS
330
47
102
}
330
47
100
AcDbProxyObject
 90
      499
 91
      503
 93
      105
310
903323A310000000000000010100
  0
ACAD_PROXY_OBJECT
  5
55
102
{ACAD_REACTORS
330
47
102
}
330
47
100
AcDbProxyObject
 90
      499
 91
      503
 93
      105
310
903343A310000000000000410100
  0
ACAD_PROXY_OBJECT
  5
56
102
{ACAD_REACTORS
330
47
102
}
330
47
100
AcDbProxyObject
 90
      499
 91
      503
 93
      105
310
903383A310000000000000810100
  0
ACAD_PROXY_OBJECT
  5
57
102
{ACAD_REACTORS
330
47
102
}
330
47
100
AcDbProxyObject
 90
      499
 91
      503
 93
      113
310
90431303A310000000000000910100
  0
ACAD_PROXY_OBJECT
  5
58
102
{ACAD_REACTORS
330
47
102
}
330
47
100
AcDbProxyObject
 90
      499
 91
      503
 93
      121
310
9053130303A310000000000001650100
  0
ACAD_PROXY_OBJECT
  5
59
102
{ACAD_REACTORS
330
47
102
}
330
47
100
AcDbProxyObject
 90
      499
 91
      503
 93
      257
310
90E312F31323822203D2031272D3022000000000000200FC000000000000284000
  0
ACAD_PROXY_OBJECT
  5
5A
102
{ACAD_REACTORS
330
47
102
}
330
47
100
AcDbProxyObject
 90
      499
 91
      503
 93
      249
310
90D312F363422203D2031272D3022000000000000240FC000000000000284000
  0
ACAD_PROXY_OBJECT
  5
5B
102
{ACAD_REACTORS
330
47
102
}
330
47
100
AcDbProxyObject
 90
      499
 91
      503
 93
      249
310
90D312F333222203D2031272D3022000000000000280FC000000000000284000
  0
ACAD_PROXY_OBJECT
  5
5C
102
{ACAD_REACTORS
330
47
102
}
330
47
100
AcDbProxyObject
 90
      499
 91
      503
 93
      249
310
90D312F313622203D2031272D30220000000000002C0FC000000000000284000
  0
ACAD_PROXY_OBJECT
  5
5D
102
{ACAD_REACTORS
330
47
102
}
330
47
100
AcDbProxyObject
 90
      499
 91
      503
 93
      249
310
90D332F333222203D2031272D30220000000000002E0FC000000000000284000
  0
ACAD_PROXY_OBJECT
  5
5E
102
{ACAD_REACTORS
330
47
102
}
330
47
100
AcDbProxyObject
 90
      499
 91
      503
 93
      241
310
90C312F3822203D2031272D3022000000000000300FC000000000000284000
  0
ACAD_PROXY_OBJECT
  5
5F
102
{ACAD_REACTORS
330
47
102
}
330
47
100
AcDbProxyObject
 90
      499
 91
      503
 93
      249
310
90D332F313622203D2031272D3022000000000000320FC000000000000284000
  0
ACAD_PROXY_OBJECT
  5
60
102
{ACAD_REACTORS
330
47
102
}
330
47
100
AcDbProxyObject
 90
      499
 91
      503
 93
      241
310
90C312F3422203D2031272D3022000000000000340FC000000000000284000
  0
ACAD_PROXY_OBJECT
  5
61
102
{ACAD_REACTORS
330
47
102
}
330
47
100
AcDbProxyObject
 90
      499
 91
      503
 93
      241
310
90C332F3822203D2031272D3022000000000000360FC000000000000284000
  0
ACAD_PROXY_OBJECT
  5
62
102
{ACAD_REACTORS
330
47
102
}
330
47
100
AcDbProxyObject
 90
      499
 91
      503
 93
      241
310
90C312F3222203D2031272D3022000000000000380FC000000000000284000
  0
ACAD_PROXY_OBJECT
  5
63
102
{ACAD_REACTORS
330
47
102
}
330
47
100
AcDbProxyObject
 90
      499
 91
      503
 93
      241
310
90C332F3422203D2031272D30220000000000003A0FC000000000000284000
  0
ACAD_PROXY_OBJECT
  5
64
102
{ACAD_REACTORS
330
47
102
}
330
47
100
AcDbProxyObject
 90
      499
 91
      503
 93
      161
310
90A3122203D2031272D30224000000000000284000
  0
ACAD_PROXY_OBJECT
  5
65
102
{ACAD_REACTORS
330
47
102
}
330
47
100
AcDbProxyObject
 90
      499
 91
      503
 93
      257
310
90E312D312F3222203D2031272D30220000000000003E0FC000000000000284000
  0
ACAD_PROXY_OBJECT
  5
66
102
{ACAD_REACTORS
330
47
102
}
330
47
100
AcDbProxyObject
 90
      499
 91
      503
 93
      225
310
90A3322203D2031272D302200000000000002100000000000000284000
  0
ACAD_PROXY_OBJECT
  5
67
102
{ACAD_REACTORS
330
47
102
}
330
47
100
AcDbProxyObject
 90
      499
 91
      503
 93
      225
310
90A3622203D2031272D302200000000000006100000000000000284000
  0
ACAD_PROXY_OBJECT
  5
68
102
{ACAD_REACTORS
330
47
102
}
330
47
100
AcDbProxyObject
 90
      499
 91
      503
 93
      249
310
90D31272D3022203D2031272D30220000000000000A100000000000000284000
  0
ACAD_PROXY_OBJECT
  5
2F
102
{ACAD_REACTORS
330
2A
102
}
330
2A
100
AcDbProxyObject
 90
      499
 91
      501
 93
      436
310
42CC9915DA5C99599C985B595049028333333333333E33F0000000000000F90107901411070040501600405405064090741402480A0340
1001
ACAD
1000
AcDbSavedByObjectVersion
1070
     0
  0
ACAD_PROXY_OBJECT
  5
32
102
{ACAD_REACTORS
330
2A
102
}
330
2A
100
AcDbProxyObject
 90
      499
 91
      501
 93
      388
310
4150985CDA58D07406404333333333333E33F0000000000000F90107A41107004050150841D405064090741402480A0350
1001
ACAD
1000
AcDbSavedByObjectVersion
1070
     0
  0
ACAD_PROXY_OBJECT
  5
36
102
{ACAD_REACTORS
330
2A
102
}
330
2A
100
AcDbProxyObject
 90
      499
 91
      501
 93
      428
310
42109C9A59DA1D195B90C409028333333333333E33F0000000000000F9010790141107004050150841D405064090741402480A029950
1001
ACAD
1000
AcDbSavedByObjectVersion
1070
     0
  0
ACAD_PROXY_OBJECT
  5
3A
102
{ACAD_REACTORS
330
2A
102
}
330
2A
100
AcDbProxyObject
 90
      499
 91
      501
 93
      452
310
42D0DBDB1BDC90DA185B99D95104090240C333333333333E33F0000000000000F90108901411070040501508421405064090741402480A0350
1001
ACAD
1000
AcDbSavedByObjectVersion
1070
     0
  0
ACAD_PROXY_OBJECT
  5
34
102
{ACAD_REACTORS
330
2A
102
}
330
2A
100
AcDbProxyObject
 90
      499
 91
      501
 93
      500
310
4290DBDB98D95C1D1D585B10940D028333333333333E33F0000000000000F90107902409070040501000000000018199010841D405064090740C02480A0340
1001
ACAD
1000
AcDbSavedByObjectVersion
1070
     0
  0
ACAD_PROXY_OBJECT
  5
35
102
{ACAD_REACTORS
330
2A
102
}
330
2A
100
AcDbProxyObject
 90
      499
 91
      501
 93
      412
310
40D11A5B50B409028333333333333E33F0000000000000F9010790141107004050150841D405064090741402480A02677FFFFFD0
1001
ACAD
1000
AcDbSavedByObjectVersion
1070
     0
  0
ACAD_PROXY_OBJECT
  5
3D
102
{ACAD_REACTORS
330
2A
102
}
330
2A
100
AcDbProxyObject
 90
      499
 91
      501
 93
      452
310
43115919D950DBDB1BDC93D999916409028333333333333E33F0000000000000F9010790141107004050150841D405064090741402480A0350
1001
ACAD
1000
AcDbSavedByObjectVersion
1070
     0
  0
ACAD_PROXY_OBJECT
  5
39
102
{ACAD_REACTORS
330
2A
102
}
330
2A
100
AcDbProxyObject
 90
      499
 91
      501
 93
      444
310
42D19858D95C185D1D195C9B90F409028333333333333E33F0000000000000F9010790141107004050150841D405064090741402480A0350
1001
ACAD
1000
AcDbSavedByObjectVersion
1070
     0
  0
ACAD_PROXY_OBJECT
  5
2B
102
{ACAD_REACTORS
330
2A
102
}
330
2A
100
AcDbProxyObject
 90
      499
 91
      501
 93
      380
310
41119B185D240901404333333333333E33F0000000000000F9010740A907004050150841D405064090741402480A1B50
1001
ACAD
1000
AcDbSavedByObjectVersion
1070
     0
  0
ACAD_PROXY_OBJECT
  5
2C
102
{ACAD_REACTORS
330
2A
102
}
330
2A
100
AcDbProxyObject
 90
      499
 91
      501
 93
      468
310
43519B185D15DA5D1A115919D95CD0140901404333333333333E33F0000000000000F90107409019070040501600405405064090741402480A1B50
1001
ACAD
1000
AcDbSavedByObjectVersion
1070
     0
  0
ACAD_PROXY_OBJECT
  5
2D
102
{ACAD_REACTORS
330
2A
102
}
330
2A
100
AcDbProxyObject
 90
      499
 91
      501
 93
      404
310
41D1DBDD5C985D5910240902404333333333333E33F0000000000000F9010740A9070040501641D405064090741402480A1B50
1001
ACAD
1000
AcDbSavedByObjectVersion
1070
     0
  0
ACAD_PROXY_OBJECT
  5
2E
102
{ACAD_REACTORS
330
2A
102
}
330
2A
100
AcDbProxyObject
 90
      499
 91
      501
 93
      492
310
4411DBDD5C985D5915DA5D1A115919D95CD0340902404333333333333E33F0000000000000F90107409019070040501600405405064090741402480A1B50
1001
ACAD
1000
AcDbSavedByObjectVersion
1070
     0
  0
ACAD_PROXY_OBJECT
  5
31
102
{ACAD_REACTORS
330
2A
102
}
330
2A
100
AcDbProxyObject
 90
      499
 91
      501
 93
      476
310
41921A5919195B90640502408333333333333E33F0000000000000F901079024090700405020000000000001110200405405064090740C02480A0340
1001
ACAD
1000
AcDbSavedByObjectVersion
1070
     0
  0
ACAD_PROXY_OBJECT
  5
3B
102
{ACAD_REACTORS
330
2A
102
}
330
2A
100
AcDbProxyObject
 90
      499
 91
      501
 93
      428
310
42529A5D1D195C93D999914409028333333333333E33F0000000000000F9010790141107004050150A41D405064090741402480A0350
1001
ACAD
1000
AcDbSavedByObjectVersion
1070
     0
  0
ACAD_PROXY_OBJECT
  5
38
102
{ACAD_REACTORS
330
2A
102
}
330
2A
100
AcDbProxyObject
 90
      499
 91
      501
 93
      444
310
42D31A5B995C185D1D195C9B90E409028333333333333E33F0000000000000F9010790141107004050750841D405064090741402483A0350
1001
ACAD
1000
AcDbSavedByObjectVersion
1070
     0
  0
ACAD_PROXY_OBJECT
  5
3C
102
{ACAD_REACTORS
330
2A
102
}
330
2A
100
AcDbProxyObject
 90
      499
 91
      501
 93
      444
310
42D3DD995C9A185B99D3D999915409028333333333333E33F0000000000000F9010790141107004050150941D405064090741402480A0350
1001
ACAD
1000
AcDbSavedByObjectVersion
1070
     0
  0
ACAD_PROXY_OBJECT
  5
33
102
{ACAD_REACTORS
330
2A
102
}
330
2A
100
AcDbProxyObject
 90
      499
 91
      501
 93
      428
310
425499585B1A5CDD1A58D08409038333333333333E33F0000000000000F9010740A907004050150800405405064090740C02480A1B40
1001
ACAD
1000
AcDbSavedByObjectVersion
1070
     0
  0
ACAD_PROXY_OBJECT
  5
42
102
{ACAD_REACTORS
330
2A
102
}
330
2A
100
AcDbProxyObject
 90
      499
 91
      501
 93
      420
310
4194DA1859195911B40902404333333333333E33F0000000000000F9010740A41107004050150800405405064090840C02480A0B40
1001
ACAD
1000
AcDbSavedByObjectVersion
1070
     0
  0
ACAD_PROXY_OBJECT
  5
41
102
{ACAD_REACTORS
330
2A
102
}
330
2A
100
AcDbProxyObject
 90
      499
 91
      501
 93
      516
310
4454DA18591959081DDA5D1A08195919D95CD1A40902404333333333333E33F0000000000000F901074090142907004050250800405405064090740C02480A0B40
1001
ACAD
1000
AcDbSavedByObjectVersion
1070
     0
  0
ACAD_PROXY_OBJECT
  5
3E
102
{ACAD_REACTORS
330
2A
102
}
330
2A
100
AcDbProxyObject
 90
      499
 91
      501
 93
      532
310
4394DA1859195CC81BD98811DC985E5174090240C333333333333E33F0000000000000F901079024090741D01000000000000111010841D405064090740C02480A0340
1001
ACAD
1000
AcDbSavedByObjectVersion
1070
     0
  0
ACAD_PROXY_OBJECT
  5
3F
102
{ACAD_REACTORS
330
2A
102
}
330
2A
100
AcDbProxyObject
 90
      499
 91
      501
 93
      476
310
41D4DAD95D18DA1E51840502408333333333333E33F0000000000000F901079024090741D01000000000000111010B41D405064090741802480A0340
1001
ACAD
1000
AcDbSavedByObjectVersion
1070
     0
  0
ACAD_PROXY_OBJECT
  5
37
102
{ACAD_REACTORS
330
2A
102
}
330
2A
100
AcDbProxyObject
 90
      499
 91
      501
 93
      412
310
41D51A1A58DAD95B90D409028333333333333E33F0000000000000F9010790141107004050150C41D405064090741402480A0350
1001
ACAD
1000
AcDbSavedByObjectVersion
1070
     0
  0
ACAD_PROXY_OBJECT
  5
30
102
{ACAD_REACTORS
330
2A
102
}
330
2A
100
AcDbProxyObject
 90
      499
 91
      501
 93
      420
310
4255DA5C99599C985B595059028333333333333E33F0000000000000F90107901411070040501600405405064090740C02480A0340
1001
ACAD
1000
AcDbSavedByObjectVersion
1070
     0
  0
ACAD_PROXY_OBJECT
  5
40
102
{ACAD_REACTORS
330
2A
102
}
330
2A
100
AcDbProxyObject
 90
      499
 91
      501
 93
      404
310
41560B54985E51940902404000000000000E03F0000000000000F9010740501907004050150841D405064090740C02480A1B40
1001
ACAD
1000
AcDbSavedByObjectVersion
1070
     0
  0
XRECORD
  5
171
102
{ACAD_REACTORS
330
168
102
}
330
168
100
AcDbXrecord
 90
        0
  0
XRECORD
  5
187
102
{ACAD_REACTORS
330
168
102
}
330
168
100
AcDbXrecord
1000
DSTYLE
1002
{
1070
   279
 70
     2
1070
   340
340
11
1002
}
  0
XRECORD
  5
172
102
{ACAD_REACTORS
330
168
102
}
330
168
100
AcDbXrecord
  1
{171F7CE2-3C2A-43D2-A284-A2CDC5628AD5}
  0
XRECORD
  5
16B
102
{ACAD_REACTORS
330
168
102
}
330
168
100
AcDbXrecord
  1

  0
XRECORD
  5
170
102
{ACAD_REACTORS
330
168
102
}
330
168
100
AcDbXrecord
 90
        4
  0
XRECORD
  5
16D
102
{ACAD_REACTORS
330
168
102
}
330
168
100
AcDbXrecord
340
1A
  0
XRECORD
  5
16F
102
{ACAD_REACTORS
330
168
102
}
330
168
100
AcDbXrecord
 90
    10781
  0
XRECORD
  5
16E
102
{ACAD_REACTORS
330
168
102
}
330
168
100
AcDbXrecord
340
19
  0
XRECORD
  5
174
102
{ACAD_REACTORS
330
168
102
}
330
168
100
AcDbXrecord
 40
0.0
  0
XRECORD
  5
177
102
{ACAD_REACTORS
330
168
102
}
330
168
100
AcDbXrecord
340
0
  0
XRECORD
  5
17D
102
{ACAD_REACTORS
330
168
102
}
330
168
100
AcDbXrecord
 10
0.0
 20
0.0
 30
0.0
  0
XRECORD
  5
179
102
{ACAD_REACTORS
330
168
102
}
330
168
100
AcDbXrecord
 10
0.0
 20
0.0
 30
0.0
  0
XRECORD
  5
17C
102
{ACAD_REACTORS
330
168
102
}
330
168
100
AcDbXrecord
 10
0.0
 20
0.0
 30
0.0
  0
XRECORD
  5
17A
102
{ACAD_REACTORS
330
168
102
}
330
168
100
AcDbXrecord
 10
0.0
 20
0.0
 30
0.0
  0
XRECORD
  5
17B
102
{ACAD_REACTORS
330
168
102
}
330
168
100
AcDbXrecord
 10
0.0
 20
0.0
 30
0.0
  0
XRECORD
  5
178
102
{ACAD_REACTORS
330
168
102
}
330
168
100
AcDbXrecord
 10
0.0
 20
0.0
 30
0.0
  0
XRECORD
  5
175
102
{ACAD_REACTORS
330
168
102
}
330
168
100
AcDbXrecord
340
0
  0
XRECORD
  5
176
102
{ACAD_REACTORS
330
168
102
}
330
168
100
AcDbXrecord
 70
     0
  0
XRECORD
  5
16C
102
{ACAD_REACTORS
330
168
102
}
330
168
100
AcDbXrecord
  1

  0
XRECORD
  5
169
102
{ACAD_REACTORS
330
168
102
}
330
168
100
AcDbXrecord
 90
        1
  0
XRECORD
  5
16A
102
{ACAD_REACTORS
330
168
102
}
330
168
100
AcDbXrecord
 90
       70
  0
XRECORD
  5
180
102
{ACAD_REACTORS
330
168
102
}
330
168
100
AcDbXrecord
340
0
  0
XRECORD
  5
186
102
{ACAD_REACTORS
330
168
102
}
330
168
100
AcDbXrecord
 10
0.0
 20
0.0
 30
0.0
  0
XRECORD
  5
182
102
{ACAD_REACTORS
330
168
102
}
330
168
100
AcDbXrecord
 10
0.0
 20
0.0
 30
0.0
  0
XRECORD
  5
185
102
{ACAD_REACTORS
330
168
102
}
330
168
100
AcDbXrecord
 10
0.0
 20
0.0
 30
0.0
  0
XRECORD
  5
183
102
{ACAD_REACTORS
330
168
102
}
330
168
100
AcDbXrecord
 10
0.0
 20
0.0
 30
0.0
  0
XRECORD
  5
184
102
{ACAD_REACTORS
330
168
102
}
330
168
100
AcDbXrecord
 10
0.0
 20
0.0
 30
0.0
  0
XRECORD
  5
181
102
{ACAD_REACTORS
330
168
102
}
330
168
100
AcDbXrecord
 10
0.0
 20
0.0
 30
0.0
  0
XRECORD
  5
17E
102
{ACAD_REACTORS
330
168
102
}
330
168
100
AcDbXrecord
340
0
  0
XRECORD
  5
17F
102
{ACAD_REACTORS
330
168
102
}
330
168
100
AcDbXrecord
 70
     0
  0
XRECORD
  5
173
102
{ACAD_REACTORS
330
168
102
}
330
168
100
AcDbXrecord
  1
{FAEB1C32-E019-11D5-929B-00C0DF256EC4}
  0
DICTIONARYVAR
  5
18F
102
{ACAD_REACTORS
330
188
102
}
330
188
100
DictionaryVariables
280
     0
  1
1:1
  0
DICTIONARYVAR
  5
18D
102
{ACAD_REACTORS
330
188
102
}
330
188
100
DictionaryVariables
280
     0
  1
2
  0
DICTIONARYVAR
  5
18E
102
{ACAD_REACTORS
330
188
102
}
330
188
100
DictionaryVariables
280
     0
  1
1
  0
DICTIONARYVAR
  5
190
102
{ACAD_REACTORS
330
188
102
}
330
188
100
DictionaryVariables
280
     0
  1
1
  0
DICTIONARY
  5
193
330
45
100
AcDbDictionary
280
     1
  3
ACAD_XREC_ROUNDTRIP
360
194
  0
DICTIONARY
  5
191
330
44
100
AcDbDictionary
280
     1
  3
ACAD_XREC_ROUNDTRIP
360
192
  0
DICTIONARY
  5
195
330
46
100
AcDbDictionary
280
     1
  3
ACAD_XREC_ROUNDTRIP
360
196
  0
XRECORD
  5
194
102
{ACAD_REACTORS
330
193
102
}
330
193
100
AcDbXrecord
102
MATERIAL
148
0.0
149
0.0
149
0.0
 93
        0
 94
      127
282
     0
 72
     1
 77
     1
171
     1
175
     1
179
     1
273
     0
  0
XRECORD
  5
192
102
{ACAD_REACTORS
330
191
102
}
330
191
100
AcDbXrecord
102
MATERIAL
148
0.0
149
0.0
149
0.0
 93
        0
 94
      127
282
     0
 72
     1
 77
     1
171
     1
175
     1
179
     1
273
     0
  0
XRECORD
  5
196
102
{ACAD_REACTORS
330
195
102
}
330
195
100
AcDbXrecord
102
MATERIAL
148
0.0
149
0.0
149
0.0
 93
        0
 94
      127
282
     0
 72
     1
 77
     1
171
     1
175
     1
179
     1
273
     0
  0
ENDSEC
  0
EOF
