  0
SECTION
  2
HEADER
  9
$ACADVER
  1
AC1014
  9
$ACADMAINTVER
 70
     9
  9
$DWGCODEPAGE
  3
ANSI_1251
  9
$INSBASE
 10
0.0
 20
0.0
 30
0.0
  9
$EXTMIN
 10
-433.1741200142243
 20
619.8383131871748
 30
0.0
  9
$EXTMAX
 10
-24.93981729670038
 20
1013.09090909154
 30
0.0
  9
$LIMMIN
 10
0.0
 20
0.0
  9
$LIMMAX
 10
12.0
 20
9.0
  9
$ORTHOMODE
 70
     0
  9
$REGENMODE
 70
     1
  9
$FILLMODE
 70
     1
  9
$QTEXTMODE
 70
     0
  9
$MIRRTEXT
 70
     1
  9
$DRAGMODE
 70
     2
  9
$LTSCALE
 40
1.0
  9
$OSMODE
 70
    37
  9
$ATTMODE
 70
     1
  9
$TEXTSIZE
 40
0.2
  9
$TRACEWID
 40
0.05
  9
$TEXTSTYLE
  7
STANDARD
  9
$CLAYER
  8
LAYER_02
  9
$CELTYPE
  6
BYLAYER
  9
$CECOLOR
 62
   256
  9
$CELTSCALE
 40
1.0
  9
$DELOBJ
 70
     1
  9
$DISPSILH
 70
     0
  9
$DIMSCALE
 40
1.0
  9
$DIMASZ
 40
0.18
  9
$DIMEXO
 40
0.0625
  9
$DIMDLI
 40
0.38
  9
$DIMRND
 40
0.0
  9
$DIMDLE
 40
0.0
  9
$DIMEXE
 40
0.18
  9
$DIMTP
 40
0.0
  9
$DIMTM
 40
0.0
  9
$DIMTXT
 40
0.18
  9
$DIMCEN
 40
0.09
  9
$DIMTSZ
 40
0.0
  9
$DIMTOL
 70
     0
  9
$DIMLIM
 70
     0
  9
$DIMTIH
 70
     1
  9
$DIMTOH
 70
     1
  9
$DIMSE1
 70
     0
  9
$DIMSE2
 70
     0
  9
$DIMTAD
 70
     0
  9
$DIMZIN
 70
     0
  9
$DIMBLK
  1

  9
$DIMASO
 70
     1
  9
$DIMSHO
 70
     1
  9
$DIMPOST
  1

  9
$DIMAPOST
  1

  9
$DIMALT
 70
     0
  9
$DIMALTD
 70
     2
  9
$DIMALTF
 40
25.4
  9
$DIMLFAC
 40
1.0
  9
$DIMTOFL
 70
     0
  9
$DIMTVP
 40
0.0
  9
$DIMTIX
 70
     0
  9
$DIMSOXD
 70
     0
  9
$DIMSAH
 70
     0
  9
$DIMBLK1
  1

  9
$DIMBLK2
  1

  9
$DIMSTYLE
  2
STANDARD
  9
$DIMCLRD
 70
     0
  9
$DIMCLRE
 70
     0
  9
$DIMCLRT
 70
     0
  9
$DIMTFAC
 40
1.0
  9
$DIMGAP
 40
0.09
  9
$DIMJUST
 70
     0
  9
$DIMSD1
 70
     0
  9
$DIMSD2
 70
     0
  9
$DIMTOLJ
 70
     1
  9
$DIMTZIN
 70
     0
  9
$DIMALTZ
 70
     0
  9
$DIMALTTZ
 70
     0
  9
$DIMFIT
 70
     5
  9
$DIMUPT
 70
     0
  9
$DIMUNIT
 70
     2
  9
$DIMDEC
 70
     4
  9
$DIMTDEC
 70
     4
  9
$DIMALTU
 70
     2
  9
$DIMALTTD
 70
     2
  9
$DIMTXSTY
  7
STANDARD
  9
$DIMAUNIT
 70
     0
  9
$LUNITS
 70
     2
  9
$LUPREC
 70
     2
  9
$SKETCHINC
 40
0.1
  9
$FILLETRAD
 40
0.5
  9
$AUNITS
 70
     0
  9
$AUPREC
 70
     0
  9
$MENU
  1
.
  9
$ELEVATION
 40
0.0
  9
$PELEVATION
 40
0.0
  9
$THICKNESS
 40
0.0
  9
$LIMCHECK
 70
     0
  9
$CHAMFERA
 40
0.0
  9
$CHAMFERB
 40
0.0
  9
$CHAMFERC
 40
0.0
  9
$CHAMFERD
 40
0.0
  9
$SKPOLY
 70
     0
  9
$TDCREATE
 40
2458947.491696123
  9
$TDUPDATE
 40
2458947.491709386
  9
$TDINDWG
 40
0.0000000116
  9
$TDUSRTIMER
 40
0.0000000116
  9
$USRTIMER
 70
     1
  9
$ANGBASE
 50
0.0
  9
$ANGDIR
 70
     0
  9
$PDMODE
 70
     0
  9
$PDSIZE
 40
0.0
  9
$PLINEWID
 40
0.0
  9
$COORDS
 70
     1
  9
$SPLFRAME
 70
     0
  9
$SPLINETYPE
 70
     6
  9
$SPLINESEGS
 70
     8
  9
$ATTDIA
 70
     0
  9
$ATTREQ
 70
     1
  9
$HANDLING
 70
     1
  9
$HANDSEED
  5
1D9
  9
$SURFTAB1
 70
     6
  9
$SURFTAB2
 70
     6
  9
$SURFTYPE
 70
     6
  9
$SURFU
 70
     6
  9
$SURFV
 70
     6
  9
$UCSNAME
  2

  9
$UCSORG
 10
0.0
 20
0.0
 30
0.0
  9
$UCSXDIR
 10
1.0
 20
0.0
 30
0.0
  9
$UCSYDIR
 10
0.0
 20
1.0
 30
0.0
  9
$PUCSNAME
  2

  9
$PUCSORG
 10
0.0
 20
0.0
 30
0.0
  9
$PUCSXDIR
 10
1.0
 20
0.0
 30
0.0
  9
$PUCSYDIR
 10
0.0
 20
1.0
 30
0.0
  9
$USERI1
 70
     0
  9
$USERI2
 70
     0
  9
$USERI3
 70
     0
  9
$USERI4
 70
     0
  9
$USERI5
 70
     0
  9
$USERR1
 40
0.0
  9
$USERR2
 40
0.0
  9
$USERR3
 40
0.0
  9
$USERR4
 40
0.0
  9
$USERR5
 40
0.0
  9
$WORLDVIEW
 70
     1
  9
$SHADEDGE
 70
     3
  9
$SHADEDIF
 70
    70
  9
$TILEMODE
 70
     1
  9
$MAXACTVP
 70
    64
  9
$PINSBASE
 10
0.0
 20
0.0
 30
0.0
  9
$PLIMCHECK
 70
     0
  9
$PEXTMIN
 10
1.000000000000000E+20
 20
1.000000000000000E+20
 30
1.000000000000000E+20
  9
$PEXTMAX
 10
-1.000000000000000E+20
 20
-1.000000000000000E+20
 30
-1.000000000000000E+20
  9
$PLIMMIN
 10
0.0
 20
0.0
  9
$PLIMMAX
 10
12.0
 20
9.0
  9
$UNITMODE
 70
     0
  9
$VISRETAIN
 70
     1
  9
$PLINEGEN
 70
     0
  9
$PSLTSCALE
 70
     1
  9
$TREEDEPTH
 70
  3020
  9
$PICKSTYLE
 70
     1
  9
$CMLSTYLE
  2
STANDARD
  9
$CMLJUST
 70
     0
  9
$CMLSCALE
 40
1.0
  9
$PROXYGRAPHICS
 70
     1
  9
$MEASUREMENT
 70
     0
  0
ENDSEC
  0
SECTION
  2
CLASSES
  0
CLASS
  1
ACDBDICTIONARYWDFLT
  2
AcDbDictionaryWithDefault
  3
ObjectDBX Classes
 90
        0
280
     0
281
     0
  0
CLASS
  1
VISUALSTYLE
  2
AcDbVisualStyle
  3
ObjectDBX Classes
 90
     4095
280
     0
281
     0
  0
CLASS
  1
MATERIAL
  2
AcDbMaterial
  3
ObjectDBX Classes
 90
     1153
280
     0
281
     0
  0
CLASS
  1
SCALE
  2
AcDbScale
  3
ObjectDBX Classes
 90
     1153
280
     0
281
     0
  0
CLASS
  1
SUN
  2
AcDbSun
  3
SCENEOE
 90
     1153
280
     0
281
     0
  0
CLASS
  1
DICTIONARYVAR
  2
AcDbDictionaryVar
  3
ObjectDBX Classes
 90
        0
280
     0
281
     0
  0
CLASS
  1
XRECORD
  2
AcDbXrecord
  3
ObjectDBX Classes
 90
        0
280
     0
281
     0
  0
CLASS
  1
LWPOLYLINE
  2
AcDbPolyline
  3
ObjectDBX Classes
 90
        0
280
     0
281
     1
  0
CLASS
  1
HATCH
  2
AcDbHatch
  3
ObjectDBX Classes
 90
        0
280
     0
281
     1
  0
CLASS
  1
ACDBPLACEHOLDER
  2
AcDbPlaceHolder
  3
ObjectDBX Classes
 90
        0
280
     0
281
     0
  0
CLASS
  1
LAYOUT
  2
AcDbLayout
  3
ObjectDBX Classes
 90
        0
280
     0
281
     0
  0
ENDSEC
  0
SECTION
  2
TABLES
  0
TABLE
  2
VPORT
  5
8
330
0
100
AcDbSymbolTable
 70
     1
  0
VPORT
  5
29
330
8
100
AcDbSymbolTableRecord
100
AcDbViewportTableRecord
  2
*ACTIVE
 70
     0
 10
0.0
 20
0.0
 11
1.0
 21
1.0
 12
-229.0569686554623
 22
816.4646111393572
 13
0.0
 23
0.0
 14
0.5
 24
0.5
 15
0.5
 25
0.5
 16
0.0
 26
0.0
 36
1.0
 17
0.0
 27
0.0
 37
0.0
 40
401.1176478224522
 41
1.038096905066082
 42
50.0
 43
0.0
 44
0.0
 50
0.0
 51
0.0
 71
     0
 72
   100
 73
     1
 74
     3
 75
     0
 76
     0
 77
     0
 78
     0
  0
ENDTAB
  0
TABLE
  2
LTYPE
  5
5
330
0
100
AcDbSymbolTable
 70
     1
  0
LTYPE
  5
14
330
5
100
AcDbSymbolTableRecord
100
AcDbLinetypeTableRecord
  2
BYBLOCK
 70
     0
  3

 72
    65
 73
     0
 40
0.0
  0
LTYPE
  5
15
330
5
100
AcDbSymbolTableRecord
100
AcDbLinetypeTableRecord
  2
BYLAYER
 70
     0
  3

 72
    65
 73
     0
 40
0.0
  0
LTYPE
  5
16
330
5
100
AcDbSymbolTableRecord
100
AcDbLinetypeTableRecord
  2
CONTINUOUS
 70
     0
  3
Solid line
 72
    65
 73
     0
 40
0.0
  0
ENDTAB
  0
TABLE
  2
LAYER
  5
2
330
0
100
AcDbSymbolTable
 70
     3
  0
LAYER
  5
10
330
2
100
AcDbSymbolTableRecord
100
AcDbLayerTableRecord
  2
0
 70
     0
 62
     7
  6
CONTINUOUS
  0
LAYER
  5
6A
330
2
100
AcDbSymbolTableRecord
100
AcDbLayerTableRecord
  2
LAYER_01
 70
     0
 62
     1
  6
CONTINUOUS
  0
LAYER
  5
74
330
2
100
AcDbSymbolTableRecord
100
AcDbLayerTableRecord
  2
LAYER_02
 70
     0
 62
     3
  6
CONTINUOUS
  0
ENDTAB
  0
TABLE
  2
STYLE
  5
3
330
0
100
AcDbSymbolTable
 70
     1
  0
STYLE
  5
11
330
3
100
AcDbSymbolTableRecord
100
AcDbTextStyleTableRecord
  2
STANDARD
 70
     0
 40
0.0
 41
1.0
 50
0.0
 71
     0
 42
0.2
  3
txt
  4

  0
ENDTAB
  0
TABLE
  2
VIEW
  5
6
330
0
100
AcDbSymbolTable
 70
     0
  0
ENDTAB
  0
TABLE
  2
UCS
  5
7
330
0
100
AcDbSymbolTable
 70
     0
  0
ENDTAB
  0
TABLE
  2
APPID
  5
9
330
0
100
AcDbSymbolTable
 70
     1
  0
APPID
  5
12
330
9
100
AcDbSymbolTableRecord
100
AcDbRegAppTableRecord
  2
ACAD
 70
     0
  0
ENDTAB
  0
TABLE
  2
DIMSTYLE
  5
A
330
0
100
AcDbSymbolTable
 70
     1
  0
DIMSTYLE
105
27
330
A
100
AcDbSymbolTableRecord
100
AcDbDimStyleTableRecord
  2
STANDARD
 70
     0
  3

  4

  5

  6

  7

 40
1.0
 41
0.18
 42
0.0625
 43
0.38
 44
0.18
 45
0.0
 46
0.0
 47
0.0
 48
0.0
140
0.18
141
0.09
142
0.0
143
25.4
144
1.0
145
0.0
146
1.0
147
0.09
 71
     0
 72
     0
 73
     1
 74
     1
 75
     0
 76
     0
 77
     0
 78
     0
170
     0
171
     2
172
     0
173
     0
174
     0
175
     0
176
     0
177
     0
178
     0
270
     2
271
     4
272
     4
273
     2
274
     2
340
11
275
     0
280
     0
281
     0
282
     0
283
     1
284
     0
285
     0
286
     0
287
     3
288
     0
  0
ENDTAB
  0
TABLE
  2
BLOCK_RECORD
  5
1
330
0
100
AcDbSymbolTable
 70
     1
  0
BLOCK_RECORD
  5
1F
330
1
100
AcDbSymbolTableRecord
100
AcDbBlockTableRecord
  2
*MODEL_SPACE
  0
BLOCK_RECORD
  5
1B
330
1
100
AcDbSymbolTableRecord
100
AcDbBlockTableRecord
  2
*PAPER_SPACE
  0
ENDTAB
  0
ENDSEC
  0
SECTION
  2
BLOCKS
  0
BLOCK
  5
20
330
1F
100
AcDbEntity
  8
0
100
AcDbBlockBegin
  2
*MODEL_SPACE
 70
     0
 10
0.0
 20
0.0
 30
0.0
  3
*MODEL_SPACE
  1

  0
ENDBLK
  5
21
330
1F
100
AcDbEntity
  8
0
100
AcDbBlockEnd
  0
BLOCK
  5
1C
330
1B
100
AcDbEntity
 67
     1
  8
0
100
AcDbBlockBegin
  2
*PAPER_SPACE
 70
     0
 10
0.0
 20
0.0
 30
0.0
  3
*PAPER_SPACE
  1

  0
ENDBLK
  5
1D
330
1B
100
AcDbEntity
 67
     1
  8
0
100
AcDbBlockEnd
  0
ENDSEC
  0
SECTION
  2
ENTITIES
  0
LINE
  5
6B
330
1F
100
AcDbEntity
  8
LAYER_01
100
AcDbLine
 10
-137.2938526648105
 20
622.929233704053
 30
0.0
 11
-137.2938526641604
 21
619.8383131871748
 31
0.0
  0
ARC
  5
6C
330
1F
100
AcDbEntity
  8
LAYER_01
100
AcDbCircle
 10
-133.2938526648107
 20
622.9292337040466
 30
0.0
 40
3.999999999999746
100
AcDbArc
 50
68.80868126897015
 51
179.9999999999072
  0
ARC
  5
6D
330
1F
100
AcDbEntity
  8
LAYER_01
100
AcDbCircle
 10
-128.764814597209
 20
634.6110404599004
 30
0.0
 40
8.52903806758137
100
AcDbArc
 50
248.8086812689767
 51
111.1913187308269
  0
ARC
  5
6E
330
1F
100
AcDbEntity
  8
LAYER_01
100
AcDbCircle
 10
-133.2938526647704
 20
646.2928472157699
 30
0.0
 40
4.000000000000122
100
AcDbArc
 50
179.999999999899
 51
291.1913187308293
  0
LINE
  5
6F
330
1F
100
AcDbEntity
  8
LAYER_01
100
AcDbLine
 10
-137.29385266476
 20
652.4746882495355
 30
0.0
 11
-137.2938526647706
 21
646.292847215777
 31
0.0
  0
ARC
  5
70
330
1F
100
AcDbEntity
  8
LAYER_01
100
AcDbCircle
 10
-141.29385266476
 20
652.4746882495425
 30
0.0
 40
3.999999999999982
100
AcDbArc
 50
359.9999999998974
 51
111.1913187308306
  0
ARC
  5
71
330
1F
100
AcDbEntity
  8
LAYER_01
100
AcDbCircle
 10
-145.8228907323222
 20
664.156495005412
 30
0.0
 40
8.52903806758149
100
AcDbArc
 50
68.80868126897475
 51
291.19131873083
  0
ARC
  5
72
330
1F
100
AcDbEntity
  8
LAYER_01
100
AcDbCircle
 10
-141.2938526647201
 20
675.8383017612659
 30
0.0
 40
3.99999999999991
100
AcDbArc
 50
248.8086812689735
 51
359.9999999999072
  0
LINE
  5
73
330
1F
100
AcDbEntity
  8
LAYER_01
100
AcDbLine
 10
-137.2938526641605
 20
678.9292222781374
 30
0.0
 11
-137.2938526647202
 21
675.8383017612596
 31
0.0
  0
ARC
  5
75
330
1F
100
AcDbEntity
  8
LAYER_02
100
AcDbCircle
 10
-137.2938526641604
 20
1003.929222278421
 30
0.0
 40
325.0000000002838
100
AcDbArc
 50
254.9999999999451
 51
285.0000000000548
  0
ARC
  5
76
330
1F
100
AcDbEntity
  8
LAYER_02
100
AcDbCircle
 10
-137.2938526641605
 20
1003.929222278432
 30
0.0
 40
384.0909090912575
100
AcDbArc
 50
254.9999999999457
 51
285.0000000000543
  0
LINE
  5
77
330
1F
100
AcDbEntity
  8
LAYER_02
100
AcDbLine
 10
-38.68379943754735
 20
635.9114934985247
 30
0.0
 11
-37.88381034025036
 21
632.9258935444344
 31
0.0
  0
ARC
  5
78
330
1F
100
AcDbEntity
  8
LAYER_02
100
AcDbCircle
 10
-34.82009613239063
 20
636.9467696789321
 30
0.0
 40
3.999999999999746
100
AcDbArc
 50
83.80868126902463
 51
194.9999999999617
  0
ARC
  5
79
330
1F
100
AcDbEntity
  8
LAYER_02
100
AcDbCircle
 10
-33.46885536428175
 20
649.4027298300203
 30
0.0
 40
8.52903806758137
100
AcDbArc
 50
263.808681269031
 51
126.1913187308814
  0
ARC
  5
7A
330
1F
100
AcDbEntity
  8
LAYER_02
100
AcDbCircle
 10
-40.86704427162175
 20
659.5142873653467
 30
0.0
 40
4.000000000000122
100
AcDbArc
 50
194.9999999999535
 51
306.1913187308839
  0
LINE
  5
7B
330
1F
100
AcDbEntity
  8
LAYER_02
100
AcDbLine
 10
-46.33072577010739
 20
664.4502110934617
 30
0.0
 11
-44.73074757677898
 21
658.4790111849397
 31
0.0
  0
ARC
  5
7C
330
1F
100
AcDbEntity
  8
LAYER_02
100
AcDbCircle
 10
-50.19442907526451
 20
663.4149349130548
 30
0.0
 40
3.999999999999982
100
AcDbArc
 50
14.99999999995239
 51
126.1913187308849
  0
ARC
  5
7D
330
1F
100
AcDbEntity
  8
LAYER_02
100
AcDbCircle
 10
-57.59261798260496
 20
673.5264924483807
 30
0.0
 40
8.52903806758149
100
AcDbArc
 50
83.80868126902904
 51
306.1913187308847
  0
ARC
  5
7E
330
1F
100
AcDbEntity
  8
LAYER_02
100
AcDbCircle
 10
-56.24137721449597
 20
685.9824525994693
 30
0.0
 40
3.99999999999991
100
AcDbArc
 50
263.808681269028
 51
14.9999999999611
  0
LINE
  5
7F
330
1F
100
AcDbEntity
  8
LAYER_02
100
AcDbLine
 10
-53.17766300546742
 20
690.00332873428
 30
0.0
 11
-52.37767390933908
 21
687.0177287798767
 31
0.0
  0
ARC
  5
80
330
1F
100
AcDbEntity
  8
LAYER_02
100
AcDbCircle
 10
-137.2938526641604
 20
1065.929222278421
 30
0.0
 40
325.0000000002838
100
AcDbArc
 50
254.9999999999451
 51
285.0000000000548
  0
ARC
  5
81
330
1F
100
AcDbEntity
  8
LAYER_02
100
AcDbCircle
 10
-137.2938526641605
 20
1065.929222278432
 30
0.0
 40
384.0909090912575
100
AcDbArc
 50
254.9999999999457
 51
285.0000000000543
  0
LINE
  5
82
330
1F
100
AcDbEntity
  8
LAYER_02
100
AcDbLine
 10
-38.68379943754735
 20
697.9114934985247
 30
0.0
 11
-37.88381034025036
 21
694.9258935444344
 31
0.0
  0
ARC
  5
83
330
1F
100
AcDbEntity
  8
LAYER_02
100
AcDbCircle
 10
-34.82009613239063
 20
698.9467696789321
 30
0.0
 40
3.999999999999746
100
AcDbArc
 50
83.80868126902463
 51
194.9999999999617
  0
ARC
  5
84
330
1F
100
AcDbEntity
  8
LAYER_02
100
AcDbCircle
 10
-33.46885536428175
 20
711.4027298300203
 30
0.0
 40
8.52903806758137
100
AcDbArc
 50
263.808681269031
 51
126.1913187308814
  0
ARC
  5
85
330
1F
100
AcDbEntity
  8
LAYER_02
100
AcDbCircle
 10
-40.86704427162175
 20
721.5142873653467
 30
0.0
 40
4.000000000000122
100
AcDbArc
 50
194.9999999999535
 51
306.1913187308839
  0
LINE
  5
86
330
1F
100
AcDbEntity
  8
LAYER_02
100
AcDbLine
 10
-46.33072577010739
 20
726.4502110934617
 30
0.0
 11
-44.73074757677898
 21
720.4790111849397
 31
0.0
  0
ARC
  5
87
330
1F
100
AcDbEntity
  8
LAYER_02
100
AcDbCircle
 10
-50.19442907526451
 20
725.4149349130548
 30
0.0
 40
3.999999999999982
100
AcDbArc
 50
14.99999999995239
 51
126.1913187308849
  0
ARC
  5
88
330
1F
100
AcDbEntity
  8
LAYER_02
100
AcDbCircle
 10
-57.59261798260496
 20
735.5264924483807
 30
0.0
 40
8.52903806758149
100
AcDbArc
 50
83.80868126902904
 51
306.1913187308847
  0
ARC
  5
89
330
1F
100
AcDbEntity
  8
LAYER_02
100
AcDbCircle
 10
-56.24137721449597
 20
747.9824525994693
 30
0.0
 40
3.99999999999991
100
AcDbArc
 50
263.808681269028
 51
14.9999999999611
  0
LINE
  5
8A
330
1F
100
AcDbEntity
  8
LAYER_02
100
AcDbLine
 10
-53.17766300546742
 20
752.00332873428
 30
0.0
 11
-52.37767390933908
 21
749.0177287798767
 31
0.0
  0
LINE
  5
8B
330
1F
100
AcDbEntity
  8
LAYER_01
100
AcDbLine
 10
-137.2938526648105
 20
684.929233704053
 30
0.0
 11
-137.2938526641604
 21
681.8383131871748
 31
0.0
  0
ARC
  5
8C
330
1F
100
AcDbEntity
  8
LAYER_01
100
AcDbCircle
 10
-133.2938526648107
 20
684.9292337040466
 30
0.0
 40
3.999999999999746
100
AcDbArc
 50
68.80868126897015
 51
179.9999999999072
  0
ARC
  5
8D
330
1F
100
AcDbEntity
  8
LAYER_01
100
AcDbCircle
 10
-128.764814597209
 20
696.6110404599004
 30
0.0
 40
8.52903806758137
100
AcDbArc
 50
248.8086812689767
 51
111.1913187308269
  0
ARC
  5
8E
330
1F
100
AcDbEntity
  8
LAYER_01
100
AcDbCircle
 10
-133.2938526647704
 20
708.2928472157699
 30
0.0
 40
4.000000000000122
100
AcDbArc
 50
179.999999999899
 51
291.1913187308293
  0
LINE
  5
8F
330
1F
100
AcDbEntity
  8
LAYER_01
100
AcDbLine
 10
-137.29385266476
 20
714.4746882495355
 30
0.0
 11
-137.2938526647706
 21
708.292847215777
 31
0.0
  0
ARC
  5
90
330
1F
100
AcDbEntity
  8
LAYER_01
100
AcDbCircle
 10
-141.29385266476
 20
714.4746882495425
 30
0.0
 40
3.999999999999982
100
AcDbArc
 50
359.9999999998974
 51
111.1913187308306
  0
ARC
  5
91
330
1F
100
AcDbEntity
  8
LAYER_01
100
AcDbCircle
 10
-145.8228907323222
 20
726.156495005412
 30
0.0
 40
8.52903806758149
100
AcDbArc
 50
68.80868126897475
 51
291.19131873083
  0
ARC
  5
92
330
1F
100
AcDbEntity
  8
LAYER_01
100
AcDbCircle
 10
-141.2938526647201
 20
737.8383017612659
 30
0.0
 40
3.99999999999991
100
AcDbArc
 50
248.8086812689735
 51
359.9999999999072
  0
LINE
  5
93
330
1F
100
AcDbEntity
  8
LAYER_01
100
AcDbLine
 10
-137.2938526641605
 20
740.9292222781374
 30
0.0
 11
-137.2938526647202
 21
737.8383017612596
 31
0.0
  0
LINE
  5
94
330
1F
100
AcDbEntity
  8
LAYER_01
100
AcDbLine
 10
-137.2938526648105
 20
746.929233704053
 30
0.0
 11
-137.2938526641604
 21
743.8383131871748
 31
0.0
  0
ARC
  5
95
330
1F
100
AcDbEntity
  8
LAYER_01
100
AcDbCircle
 10
-133.2938526648107
 20
746.9292337040466
 30
0.0
 40
3.999999999999746
100
AcDbArc
 50
68.80868126897015
 51
179.9999999999072
  0
ARC
  5
96
330
1F
100
AcDbEntity
  8
LAYER_01
100
AcDbCircle
 10
-128.764814597209
 20
758.6110404599004
 30
0.0
 40
8.52903806758137
100
AcDbArc
 50
248.8086812689767
 51
111.1913187308269
  0
ARC
  5
97
330
1F
100
AcDbEntity
  8
LAYER_01
100
AcDbCircle
 10
-133.2938526647704
 20
770.2928472157699
 30
0.0
 40
4.000000000000122
100
AcDbArc
 50
179.999999999899
 51
291.1913187308293
  0
LINE
  5
98
330
1F
100
AcDbEntity
  8
LAYER_01
100
AcDbLine
 10
-137.29385266476
 20
776.4746882495355
 30
0.0
 11
-137.2938526647706
 21
770.292847215777
 31
0.0
  0
ARC
  5
99
330
1F
100
AcDbEntity
  8
LAYER_01
100
AcDbCircle
 10
-141.29385266476
 20
776.4746882495425
 30
0.0
 40
3.999999999999982
100
AcDbArc
 50
359.9999999998974
 51
111.1913187308306
  0
ARC
  5
9A
330
1F
100
AcDbEntity
  8
LAYER_01
100
AcDbCircle
 10
-145.8228907323222
 20
788.156495005412
 30
0.0
 40
8.52903806758149
100
AcDbArc
 50
68.80868126897475
 51
291.19131873083
  0
ARC
  5
9B
330
1F
100
AcDbEntity
  8
LAYER_01
100
AcDbCircle
 10
-141.2938526647201
 20
799.8383017612659
 30
0.0
 40
3.99999999999991
100
AcDbArc
 50
248.8086812689735
 51
359.9999999999072
  0
LINE
  5
9C
330
1F
100
AcDbEntity
  8
LAYER_01
100
AcDbLine
 10
-137.2938526641605
 20
802.9292222781374
 30
0.0
 11
-137.2938526647202
 21
799.8383017612596
 31
0.0
  0
ARC
  5
9D
330
1F
100
AcDbEntity
  8
LAYER_02
100
AcDbCircle
 10
-137.2938526641604
 20
1127.929222278421
 30
0.0
 40
325.0000000002838
100
AcDbArc
 50
254.9999999999451
 51
285.0000000000548
  0
ARC
  5
9E
330
1F
100
AcDbEntity
  8
LAYER_02
100
AcDbCircle
 10
-137.2938526641605
 20
1127.929222278432
 30
0.0
 40
384.0909090912575
100
AcDbArc
 50
254.9999999999457
 51
285.0000000000543
  0
LINE
  5
9F
330
1F
100
AcDbEntity
  8
LAYER_02
100
AcDbLine
 10
-38.68379943754735
 20
759.9114934985247
 30
0.0
 11
-37.88381034025036
 21
756.9258935444344
 31
0.0
  0
ARC
  5
A0
330
1F
100
AcDbEntity
  8
LAYER_02
100
AcDbCircle
 10
-34.82009613239063
 20
760.9467696789321
 30
0.0
 40
3.999999999999746
100
AcDbArc
 50
83.80868126902463
 51
194.9999999999617
  0
ARC
  5
A1
330
1F
100
AcDbEntity
  8
LAYER_02
100
AcDbCircle
 10
-33.46885536428175
 20
773.4027298300203
 30
0.0
 40
8.52903806758137
100
AcDbArc
 50
263.808681269031
 51
126.1913187308814
  0
ARC
  5
A2
330
1F
100
AcDbEntity
  8
LAYER_02
100
AcDbCircle
 10
-40.86704427162175
 20
783.5142873653467
 30
0.0
 40
4.000000000000122
100
AcDbArc
 50
194.9999999999535
 51
306.1913187308839
  0
LINE
  5
A3
330
1F
100
AcDbEntity
  8
LAYER_02
100
AcDbLine
 10
-46.33072577010739
 20
788.4502110934617
 30
0.0
 11
-44.73074757677898
 21
782.4790111849397
 31
0.0
  0
ARC
  5
A4
330
1F
100
AcDbEntity
  8
LAYER_02
100
AcDbCircle
 10
-50.19442907526451
 20
787.4149349130548
 30
0.0
 40
3.999999999999982
100
AcDbArc
 50
14.99999999995239
 51
126.1913187308849
  0
ARC
  5
A5
330
1F
100
AcDbEntity
  8
LAYER_02
100
AcDbCircle
 10
-57.59261798260496
 20
797.5264924483807
 30
0.0
 40
8.52903806758149
100
AcDbArc
 50
83.80868126902904
 51
306.1913187308847
  0
ARC
  5
A6
330
1F
100
AcDbEntity
  8
LAYER_02
100
AcDbCircle
 10
-56.24137721449597
 20
809.9824525994693
 30
0.0
 40
3.99999999999991
100
AcDbArc
 50
263.808681269028
 51
14.9999999999611
  0
LINE
  5
A7
330
1F
100
AcDbEntity
  8
LAYER_02
100
AcDbLine
 10
-53.17766300546742
 20
814.00332873428
 30
0.0
 11
-52.37767390933908
 21
811.0177287798767
 31
0.0
  0
LINE
  5
A8
330
1F
100
AcDbEntity
  8
LAYER_01
100
AcDbLine
 10
-137.2938526648106
 20
808.9292337040526
 30
0.0
 11
-137.2938526641605
 21
805.8383131871744
 31
0.0
  0
ARC
  5
A9
330
1F
100
AcDbEntity
  8
LAYER_01
100
AcDbCircle
 10
-133.2938526648108
 20
808.9292337040463
 30
0.0
 40
3.999999999999746
100
AcDbArc
 50
68.80868126897015
 51
179.9999999999072
  0
ARC
  5
AA
330
1F
100
AcDbEntity
  8
LAYER_01
100
AcDbCircle
 10
-128.7648145972091
 20
820.6110404599001
 30
0.0
 40
8.52903806758137
100
AcDbArc
 50
248.8086812689767
 51
111.1913187308269
  0
ARC
  5
AB
330
1F
100
AcDbEntity
  8
LAYER_01
100
AcDbCircle
 10
-133.2938526647706
 20
832.2928472157696
 30
0.0
 40
4.000000000000122
100
AcDbArc
 50
179.999999999899
 51
291.1913187308293
  0
LINE
  5
AC
330
1F
100
AcDbEntity
  8
LAYER_01
100
AcDbLine
 10
-137.2938526647602
 20
838.4746882495351
 30
0.0
 11
-137.2938526647707
 21
832.2928472157766
 31
0.0
  0
ARC
  5
AD
330
1F
100
AcDbEntity
  8
LAYER_01
100
AcDbCircle
 10
-141.2938526647601
 20
838.4746882495422
 30
0.0
 40
3.999999999999982
100
AcDbArc
 50
359.9999999998974
 51
111.1913187308306
  0
ARC
  5
AE
330
1F
100
AcDbEntity
  8
LAYER_01
100
AcDbCircle
 10
-145.8228907323223
 20
850.1564950054117
 30
0.0
 40
8.52903806758149
100
AcDbArc
 50
68.80868126897475
 51
291.19131873083
  0
ARC
  5
AF
330
1F
100
AcDbEntity
  8
LAYER_01
100
AcDbCircle
 10
-141.2938526647202
 20
861.8383017612656
 30
0.0
 40
3.99999999999991
100
AcDbArc
 50
248.8086812689735
 51
359.9999999999072
  0
LINE
  5
B0
330
1F
100
AcDbEntity
  8
LAYER_01
100
AcDbLine
 10
-137.2938526641606
 20
864.9292222781371
 30
0.0
 11
-137.2938526647203
 21
861.8383017612592
 31
0.0
  0
ARC
  5
B1
330
1F
100
AcDbEntity
  8
LAYER_02
100
AcDbCircle
 10
-137.2938526641605
 20
1189.929222278421
 30
0.0
 40
325.0000000002838
100
AcDbArc
 50
254.9999999999451
 51
285.0000000000548
  0
ARC
  5
B2
330
1F
100
AcDbEntity
  8
LAYER_02
100
AcDbCircle
 10
-137.2938526641606
 20
1189.929222278432
 30
0.0
 40
384.0909090912575
100
AcDbArc
 50
254.9999999999457
 51
285.0000000000543
  0
LINE
  5
B3
330
1F
100
AcDbEntity
  8
LAYER_02
100
AcDbLine
 10
-38.68379943754746
 20
821.9114934985244
 30
0.0
 11
-37.88381034025048
 21
818.9258935444341
 31
0.0
  0
ARC
  5
B4
330
1F
100
AcDbEntity
  8
LAYER_02
100
AcDbCircle
 10
-34.82009613239074
 20
822.9467696789318
 30
0.0
 40
3.999999999999746
100
AcDbArc
 50
83.80868126902463
 51
194.9999999999617
  0
ARC
  5
B5
330
1F
100
AcDbEntity
  8
LAYER_02
100
AcDbCircle
 10
-33.46885536428186
 20
835.40272983002
 30
0.0
 40
8.52903806758137
100
AcDbArc
 50
263.808681269031
 51
126.1913187308814
  0
ARC
  5
B6
330
1F
100
AcDbEntity
  8
LAYER_02
100
AcDbCircle
 10
-40.86704427162186
 20
845.5142873653464
 30
0.0
 40
4.000000000000122
100
AcDbArc
 50
194.9999999999535
 51
306.1913187308839
  0
LINE
  5
B7
330
1F
100
AcDbEntity
  8
LAYER_02
100
AcDbLine
 10
-46.33072577010751
 20
850.4502110934613
 30
0.0
 11
-44.73074757677909
 21
844.4790111849394
 31
0.0
  0
ARC
  5
B8
330
1F
100
AcDbEntity
  8
LAYER_02
100
AcDbCircle
 10
-50.19442907526462
 20
849.4149349130545
 30
0.0
 40
3.999999999999982
100
AcDbArc
 50
14.99999999995239
 51
126.1913187308849
  0
ARC
  5
B9
330
1F
100
AcDbEntity
  8
LAYER_02
100
AcDbCircle
 10
-57.59261798260508
 20
859.5264924483804
 30
0.0
 40
8.52903806758149
100
AcDbArc
 50
83.80868126902904
 51
306.1913187308847
  0
ARC
  5
BA
330
1F
100
AcDbEntity
  8
LAYER_02
100
AcDbCircle
 10
-56.24137721449608
 20
871.982452599469
 30
0.0
 40
3.99999999999991
100
AcDbArc
 50
263.808681269028
 51
14.9999999999611
  0
LINE
  5
BB
330
1F
100
AcDbEntity
  8
LAYER_02
100
AcDbLine
 10
-53.17766300546754
 20
876.0033287342796
 30
0.0
 11
-52.37767390933919
 21
873.0177287798764
 31
0.0
  0
LINE
  5
BC
330
1F
100
AcDbEntity
  8
LAYER_01
100
AcDbLine
 10
-137.2938526648106
 20
870.9292337040526
 30
0.0
 11
-137.2938526641605
 21
867.8383131871744
 31
0.0
  0
ARC
  5
BD
330
1F
100
AcDbEntity
  8
LAYER_01
100
AcDbCircle
 10
-133.2938526648108
 20
870.9292337040463
 30
0.0
 40
3.999999999999746
100
AcDbArc
 50
68.80868126897015
 51
179.9999999999072
  0
ARC
  5
BE
330
1F
100
AcDbEntity
  8
LAYER_01
100
AcDbCircle
 10
-128.7648145972091
 20
882.6110404599001
 30
0.0
 40
8.52903806758137
100
AcDbArc
 50
248.8086812689767
 51
111.1913187308269
  0
ARC
  5
BF
330
1F
100
AcDbEntity
  8
LAYER_01
100
AcDbCircle
 10
-133.2938526647706
 20
894.2928472157696
 30
0.0
 40
4.000000000000122
100
AcDbArc
 50
179.999999999899
 51
291.1913187308293
  0
LINE
  5
C0
330
1F
100
AcDbEntity
  8
LAYER_01
100
AcDbLine
 10
-137.2938526647602
 20
900.4746882495351
 30
0.0
 11
-137.2938526647707
 21
894.2928472157766
 31
0.0
  0
ARC
  5
C1
330
1F
100
AcDbEntity
  8
LAYER_01
100
AcDbCircle
 10
-141.2938526647601
 20
900.4746882495422
 30
0.0
 40
3.999999999999982
100
AcDbArc
 50
359.9999999998974
 51
111.1913187308306
  0
ARC
  5
C2
330
1F
100
AcDbEntity
  8
LAYER_01
100
AcDbCircle
 10
-145.8228907323223
 20
912.1564950054117
 30
0.0
 40
8.52903806758149
100
AcDbArc
 50
68.80868126897475
 51
291.19131873083
  0
ARC
  5
C3
330
1F
100
AcDbEntity
  8
LAYER_01
100
AcDbCircle
 10
-141.2938526647202
 20
923.8383017612656
 30
0.0
 40
3.99999999999991
100
AcDbArc
 50
248.8086812689735
 51
359.9999999999072
  0
LINE
  5
C4
330
1F
100
AcDbEntity
  8
LAYER_01
100
AcDbLine
 10
-137.2938526641606
 20
926.9292222781371
 30
0.0
 11
-137.2938526647203
 21
923.8383017612592
 31
0.0
  0
ARC
  5
C5
330
1F
100
AcDbEntity
  8
LAYER_02
100
AcDbCircle
 10
-137.2938526641605
 20
1251.929222278421
 30
0.0
 40
325.0000000002838
100
AcDbArc
 50
254.9999999999451
 51
285.0000000000548
  0
ARC
  5
C6
330
1F
100
AcDbEntity
  8
LAYER_02
100
AcDbCircle
 10
-137.2938526641606
 20
1251.929222278432
 30
0.0
 40
384.0909090912575
100
AcDbArc
 50
254.9999999999457
 51
285.0000000000543
  0
LINE
  5
C7
330
1F
100
AcDbEntity
  8
LAYER_02
100
AcDbLine
 10
-38.68379943754746
 20
883.9114934985244
 30
0.0
 11
-37.88381034025048
 21
880.9258935444341
 31
0.0
  0
ARC
  5
C8
330
1F
100
AcDbEntity
  8
LAYER_02
100
AcDbCircle
 10
-34.82009613239074
 20
884.9467696789318
 30
0.0
 40
3.999999999999746
100
AcDbArc
 50
83.80868126902463
 51
194.9999999999617
  0
ARC
  5
C9
330
1F
100
AcDbEntity
  8
LAYER_02
100
AcDbCircle
 10
-33.46885536428186
 20
897.40272983002
 30
0.0
 40
8.52903806758137
100
AcDbArc
 50
263.808681269031
 51
126.1913187308814
  0
ARC
  5
CA
330
1F
100
AcDbEntity
  8
LAYER_02
100
AcDbCircle
 10
-40.86704427162186
 20
907.5142873653464
 30
0.0
 40
4.000000000000122
100
AcDbArc
 50
194.9999999999535
 51
306.1913187308839
  0
LINE
  5
CB
330
1F
100
AcDbEntity
  8
LAYER_02
100
AcDbLine
 10
-46.33072577010751
 20
912.4502110934613
 30
0.0
 11
-44.73074757677909
 21
906.4790111849394
 31
0.0
  0
ARC
  5
CC
330
1F
100
AcDbEntity
  8
LAYER_02
100
AcDbCircle
 10
-50.19442907526462
 20
911.4149349130545
 30
0.0
 40
3.999999999999982
100
AcDbArc
 50
14.99999999995239
 51
126.1913187308849
  0
ARC
  5
CD
330
1F
100
AcDbEntity
  8
LAYER_02
100
AcDbCircle
 10
-57.59261798260508
 20
921.5264924483804
 30
0.0
 40
8.52903806758149
100
AcDbArc
 50
83.80868126902904
 51
306.1913187308847
  0
ARC
  5
CE
330
1F
100
AcDbEntity
  8
LAYER_02
100
AcDbCircle
 10
-56.24137721449608
 20
933.982452599469
 30
0.0
 40
3.99999999999991
100
AcDbArc
 50
263.808681269028
 51
14.9999999999611
  0
LINE
  5
CF
330
1F
100
AcDbEntity
  8
LAYER_02
100
AcDbLine
 10
-53.17766300546754
 20
938.0033287342796
 30
0.0
 11
-52.37767390933919
 21
935.0177287798764
 31
0.0
  0
LINE
  5
D0
330
1F
100
AcDbEntity
  8
LAYER_01
100
AcDbLine
 10
-137.2938526648106
 20
932.9292337040526
 30
0.0
 11
-137.2938526641605
 21
929.8383131871744
 31
0.0
  0
ARC
  5
D1
330
1F
100
AcDbEntity
  8
LAYER_01
100
AcDbCircle
 10
-133.2938526648108
 20
932.9292337040463
 30
0.0
 40
3.999999999999746
100
AcDbArc
 50
68.80868126897015
 51
179.9999999999072
  0
ARC
  5
D2
330
1F
100
AcDbEntity
  8
LAYER_01
100
AcDbCircle
 10
-128.7648145972091
 20
944.6110404599001
 30
0.0
 40
8.52903806758137
100
AcDbArc
 50
248.8086812689767
 51
111.1913187308269
  0
ARC
  5
D3
330
1F
100
AcDbEntity
  8
LAYER_01
100
AcDbCircle
 10
-133.2938526647706
 20
956.2928472157696
 30
0.0
 40
4.000000000000122
100
AcDbArc
 50
179.999999999899
 51
291.1913187308293
  0
LINE
  5
D4
330
1F
100
AcDbEntity
  8
LAYER_01
100
AcDbLine
 10
-137.2938526647602
 20
962.4746882495351
 30
0.0
 11
-137.2938526647707
 21
956.2928472157766
 31
0.0
  0
ARC
  5
D5
330
1F
100
AcDbEntity
  8
LAYER_01
100
AcDbCircle
 10
-141.2938526647601
 20
962.4746882495422
 30
0.0
 40
3.999999999999982
100
AcDbArc
 50
359.9999999998974
 51
111.1913187308306
  0
ARC
  5
D6
330
1F
100
AcDbEntity
  8
LAYER_01
100
AcDbCircle
 10
-145.8228907323223
 20
974.1564950054117
 30
0.0
 40
8.52903806758149
100
AcDbArc
 50
68.80868126897475
 51
291.19131873083
  0
ARC
  5
D7
330
1F
100
AcDbEntity
  8
LAYER_01
100
AcDbCircle
 10
-141.2938526647202
 20
985.8383017612656
 30
0.0
 40
3.99999999999991
100
AcDbArc
 50
248.8086812689735
 51
359.9999999999072
  0
LINE
  5
D8
330
1F
100
AcDbEntity
  8
LAYER_01
100
AcDbLine
 10
-137.2938526641606
 20
988.9292222781371
 30
0.0
 11
-137.2938526647203
 21
985.8383017612592
 31
0.0
  0
ARC
  5
D9
330
1F
100
AcDbEntity
  8
LAYER_02
100
AcDbCircle
 10
-137.2938526641605
 20
1313.929222278421
 30
0.0
 40
325.0000000002838
100
AcDbArc
 50
254.9999999999451
 51
285.0000000000548
  0
ARC
  5
DA
330
1F
100
AcDbEntity
  8
LAYER_02
100
AcDbCircle
 10
-137.2938526641606
 20
1313.929222278432
 30
0.0
 40
384.0909090912575
100
AcDbArc
 50
254.9999999999457
 51
285.0000000000543
  0
LINE
  5
DB
330
1F
100
AcDbEntity
  8
LAYER_02
100
AcDbLine
 10
-38.68379943754746
 20
945.9114934985244
 30
0.0
 11
-37.88381034025048
 21
942.9258935444341
 31
0.0
  0
ARC
  5
DC
330
1F
100
AcDbEntity
  8
LAYER_02
100
AcDbCircle
 10
-34.82009613239074
 20
946.9467696789318
 30
0.0
 40
3.999999999999746
100
AcDbArc
 50
83.80868126902463
 51
194.9999999999617
  0
ARC
  5
DD
330
1F
100
AcDbEntity
  8
LAYER_02
100
AcDbCircle
 10
-33.46885536428186
 20
959.40272983002
 30
0.0
 40
8.52903806758137
100
AcDbArc
 50
263.808681269031
 51
126.1913187308814
  0
ARC
  5
DE
330
1F
100
AcDbEntity
  8
LAYER_02
100
AcDbCircle
 10
-40.86704427162186
 20
969.5142873653464
 30
0.0
 40
4.000000000000122
100
AcDbArc
 50
194.9999999999535
 51
306.1913187308839
  0
LINE
  5
DF
330
1F
100
AcDbEntity
  8
LAYER_02
100
AcDbLine
 10
-46.33072577010751
 20
974.4502110934613
 30
0.0
 11
-44.73074757677909
 21
968.4790111849394
 31
0.0
  0
ARC
  5
E0
330
1F
100
AcDbEntity
  8
LAYER_02
100
AcDbCircle
 10
-50.19442907526462
 20
973.4149349130545
 30
0.0
 40
3.999999999999982
100
AcDbArc
 50
14.99999999995239
 51
126.1913187308849
  0
ARC
  5
E1
330
1F
100
AcDbEntity
  8
LAYER_02
100
AcDbCircle
 10
-57.59261798260508
 20
983.5264924483804
 30
0.0
 40
8.52903806758149
100
AcDbArc
 50
83.80868126902904
 51
306.1913187308847
  0
ARC
  5
E2
330
1F
100
AcDbEntity
  8
LAYER_02
100
AcDbCircle
 10
-56.24137721449608
 20
995.982452599469
 30
0.0
 40
3.99999999999991
100
AcDbArc
 50
263.808681269028
 51
14.9999999999611
  0
LINE
  5
E3
330
1F
100
AcDbEntity
  8
LAYER_02
100
AcDbLine
 10
-53.17766300546754
 20
1000.00332873428
 30
0.0
 11
-52.37767390933919
 21
997.0177287798764
 31
0.0
  0
CIRCLE
  5
E4
330
1F
100
AcDbEntity
  8
LAYER_02
100
AcDbCircle
 10
-91.0320432382295
 20
652.5358930669707
 30
0.0
 40
4.0
  0
CIRCLE
  5
E5
330
1F
100
AcDbEntity
  8
LAYER_02
100
AcDbCircle
 10
-183.5556620907435
 20
652.5358930670566
 30
0.0
 40
4.0
  0
CIRCLE
  5
E6
330
1F
100
AcDbEntity
  8
LAYER_02
100
AcDbCircle
 10
-274.5582752201811
 20
670.3933292116582
 30
0.0
 40
4.0
  0
CIRCLE
  5
E7
330
1F
100
AcDbEntity
  8
LAYER_02
100
AcDbCircle
 10
-367.081894072695
 20
670.393329211744
 30
0.0
 40
4.0
  0
CIRCLE
  5
E8
330
1F
100
AcDbEntity
  8
LAYER_02
100
AcDbCircle
 10
-91.0320432382295
 20
714.5358930669707
 30
0.0
 40
4.0
  0
CIRCLE
  5
E9
330
1F
100
AcDbEntity
  8
LAYER_02
100
AcDbCircle
 10
-183.5556620907435
 20
714.5358930670566
 30
0.0
 40
4.0
  0
CIRCLE
  5
EA
330
1F
100
AcDbEntity
  8
LAYER_02
100
AcDbCircle
 10
-274.5582752201811
 20
732.3933292116582
 30
0.0
 40
4.0
  0
CIRCLE
  5
EB
330
1F
100
AcDbEntity
  8
LAYER_02
100
AcDbCircle
 10
-367.081894072695
 20
732.393329211744
 30
0.0
 40
4.0
  0
CIRCLE
  5
EC
330
1F
100
AcDbEntity
  8
LAYER_02
100
AcDbCircle
 10
-91.0320432382295
 20
776.5358930669707
 30
0.0
 40
4.0
  0
CIRCLE
  5
ED
330
1F
100
AcDbEntity
  8
LAYER_02
100
AcDbCircle
 10
-183.5556620907435
 20
776.5358930670566
 30
0.0
 40
4.0
  0
CIRCLE
  5
EE
330
1F
100
AcDbEntity
  8
LAYER_02
100
AcDbCircle
 10
-274.5582752201811
 20
794.3933292116582
 30
0.0
 40
4.0
  0
CIRCLE
  5
EF
330
1F
100
AcDbEntity
  8
LAYER_02
100
AcDbCircle
 10
-367.081894072695
 20
794.393329211744
 30
0.0
 40
4.0
  0
CIRCLE
  5
F0
330
1F
100
AcDbEntity
  8
LAYER_02
100
AcDbCircle
 10
-91.03204323822962
 20
838.5358930669704
 30
0.0
 40
4.0
  0
CIRCLE
  5
F1
330
1F
100
AcDbEntity
  8
LAYER_02
100
AcDbCircle
 10
-183.5556620907436
 20
838.5358930670562
 30
0.0
 40
4.0
  0
CIRCLE
  5
F2
330
1F
100
AcDbEntity
  8
LAYER_02
100
AcDbCircle
 10
-274.5582752201812
 20
856.3933292116578
 30
0.0
 40
4.0
  0
CIRCLE
  5
F3
330
1F
100
AcDbEntity
  8
LAYER_02
100
AcDbCircle
 10
-367.0818940726951
 20
856.3933292117437
 30
0.0
 40
4.0
  0
CIRCLE
  5
F4
330
1F
100
AcDbEntity
  8
LAYER_02
100
AcDbCircle
 10
-91.03204323822962
 20
900.5358930669704
 30
0.0
 40
4.0
  0
CIRCLE
  5
F5
330
1F
100
AcDbEntity
  8
LAYER_02
100
AcDbCircle
 10
-183.5556620907436
 20
900.5358930670562
 30
0.0
 40
4.0
  0
CIRCLE
  5
F6
330
1F
100
AcDbEntity
  8
LAYER_02
100
AcDbCircle
 10
-274.5582752201812
 20
918.3933292116578
 30
0.0
 40
4.0
  0
CIRCLE
  5
F7
330
1F
100
AcDbEntity
  8
LAYER_02
100
AcDbCircle
 10
-367.0818940726951
 20
918.3933292117437
 30
0.0
 40
4.0
  0
CIRCLE
  5
F8
330
1F
100
AcDbEntity
  8
LAYER_02
100
AcDbCircle
 10
-91.03204323822962
 20
962.5358930669704
 30
0.0
 40
4.0
  0
CIRCLE
  5
F9
330
1F
100
AcDbEntity
  8
LAYER_02
100
AcDbCircle
 10
-183.5556620907436
 20
962.5358930670562
 30
0.0
 40
4.0
  0
CIRCLE
  5
FA
330
1F
100
AcDbEntity
  8
LAYER_02
100
AcDbCircle
 10
-274.5582752201812
 20
980.3933292116578
 30
0.0
 40
4.0
  0
CIRCLE
  5
FB
330
1F
100
AcDbEntity
  8
LAYER_02
100
AcDbCircle
 10
-367.0818940726951
 20
980.3933292117437
 30
0.0
 40
4.0
  0
LINE
  5
FC
330
1F
100
AcDbEntity
  8
LAYER_01
100
AcDbLine
 10
-320.8200846467641
 20
954.000000000577
 30
0.0
 11
-320.8200846462045
 21
957.0909205174548
 31
0.0
  0
ARC
  5
FD
330
1F
100
AcDbEntity
  8
LAYER_01
100
AcDbCircle
 10
-316.8200846462046
 20
957.0909205174485
 30
0.0
 40
3.99999999999991
100
AcDbArc
 50
68.80868126897344
 51
179.9999999999072
  0
ARC
  5
FE
330
1F
100
AcDbEntity
  8
LAYER_01
100
AcDbCircle
 10
-312.2910465786025
 20
968.7727272733024
 30
0.0
 40
8.52903806758149
100
AcDbArc
 50
248.8086812689749
 51
111.1913187308302
  0
ARC
  5
FF
330
1F
100
AcDbEntity
  8
LAYER_01
100
AcDbCircle
 10
-316.8200846461647
 20
980.4545340291719
 30
0.0
 40
3.999999999999982
100
AcDbArc
 50
179.9999999998974
 51
291.1913187308306
  0
LINE
  5
100
330
1F
100
AcDbEntity
  8
LAYER_01
100
AcDbLine
 10
-320.8200846461646
 20
980.454534029179
 30
0.0
 11
-320.8200846461541
 21
986.6363750629374
 31
0.0
  0
ARC
  5
101
330
1F
100
AcDbEntity
  8
LAYER_01
100
AcDbCircle
 10
-324.8200846461542
 20
986.6363750629445
 30
0.0
 40
4.000000000000122
100
AcDbArc
 50
359.999999999899
 51
111.19131873083
  0
ARC
  5
102
330
1F
100
AcDbEntity
  8
LAYER_01
100
AcDbCircle
 10
-329.3491227137157
 20
998.318181818814
 30
0.0
 40
8.52903806758137
100
AcDbArc
 50
68.80868126897671
 51
291.191318730827
  0
ARC
  5
103
330
1F
100
AcDbEntity
  8
LAYER_01
100
AcDbCircle
 10
-324.820084646114
 20
1009.999988574668
 30
0.0
 40
3.999999999999746
100
AcDbArc
 50
248.8086812689701
 51
359.9999999999072
  0
LINE
  5
104
330
1F
100
AcDbEntity
  8
LAYER_01
100
AcDbLine
 10
-320.8200846461142
 20
1009.999988574661
 30
0.0
 11
-320.8200846467643
 21
1013.09090909154
 31
0.0
  0
LINE
  5
105
330
1F
100
AcDbEntity
  8
LAYER_02
100
AcDbLine
 10
-404.9362743054572
 20
942.9258935444344
 30
0.0
 11
-405.7362634015856
 21
945.9114934988377
 31
0.0
  0
ARC
  5
106
330
1F
100
AcDbEntity
  8
LAYER_02
100
AcDbCircle
 10
-401.8725600964287
 20
946.9467696792451
 30
0.0
 40
3.99999999999991
100
AcDbArc
 50
83.8086812690275
 51
194.9999999999611
  0
ARC
  5
107
330
1F
100
AcDbEntity
  8
LAYER_02
100
AcDbCircle
 10
-400.5213193283197
 20
959.4027298303337
 30
0.0
 40
8.52903806758149
100
AcDbArc
 50
263.808681269029
 51
126.1913187308847
  0
ARC
  5
108
330
1F
100
AcDbEntity
  8
LAYER_02
100
AcDbCircle
 10
-407.9195082356601
 20
969.5142873656596
 30
0.0
 40
3.999999999999982
100
AcDbArc
 50
194.9999999999524
 51
306.1913187308849
  0
LINE
  5
109
330
1F
100
AcDbEntity
  8
LAYER_02
100
AcDbLine
 10
-411.7832115408173
 20
968.4790111852527
 30
0.0
 11
-413.3831897341457
 21
974.4502110937747
 31
0.0
  0
ARC
  5
10A
330
1F
100
AcDbEntity
  8
LAYER_02
100
AcDbCircle
 10
-417.2468930393029
 20
973.4149349133677
 30
0.0
 40
4.000000000000122
100
AcDbArc
 50
14.99999999995354
 51
126.1913187308833
  0
ARC
  5
10B
330
1F
100
AcDbEntity
  8
LAYER_02
100
AcDbCircle
 10
-424.6450819466429
 20
983.5264924486941
 30
0.0
 40
8.52903806758137
100
AcDbArc
 50
83.80868126903094
 51
306.1913187308814
  0
ARC
  5
10C
330
1F
100
AcDbEntity
  8
LAYER_02
100
AcDbCircle
 10
-423.293841178534
 20
995.9824525997823
 30
0.0
 40
3.999999999999746
100
AcDbArc
 50
263.8086812690245
 51
14.99999999996173
  0
LINE
  5
10D
330
1F
100
AcDbEntity
  8
LAYER_02
100
AcDbLine
 10
-419.4301378733773
 20
997.0177287801897
 30
0.0
 11
-420.2301269706743
 21
1000.00332873428
 31
0.0
  0
ARC
  5
10E
330
1F
100
AcDbEntity
  8
LAYER_02
100
AcDbCircle
 10
-320.8200846467642
 20
629.000000000282
 30
0.0
 40
384.0909090912575
100
AcDbArc
 50
74.99999999994566
 51
105.0000000000543
  0
LINE
  5
10F
330
1F
100
AcDbEntity
  8
LAYER_02
100
AcDbLine
 10
-221.4100423228539
 20
1000.00332873428
 30
0.0
 11
-222.210031419523
 21
997.0177287800215
 31
0.0
  0
ARC
  5
110
330
1F
100
AcDbEntity
  8
LAYER_02
100
AcDbCircle
 10
-226.0737347246783
 20
998.0530049604351
 30
0.0
 40
4.000000000000019
100
AcDbArc
 50
233.808681269019
 51
344.9999999999466
  0
ARC
  5
111
330
1F
100
AcDbEntity
  8
LAYER_02
100
AcDbCircle
 10
-233.4719236320362
 20
987.9414474251216
 30
0.0
 40
8.529038067581622
100
AcDbArc
 50
53.8086812690167
 51
276.1913187308742
  0
ARC
  5
112
330
1F
100
AcDbEntity
  8
LAYER_02
100
AcDbCircle
 10
-232.1206828639485
 20
975.4854872740304
 30
0.0
 40
4.000000000000075
100
AcDbArc
 50
344.9999999999451
 51
96.1913187308717
  0
LINE
  5
113
330
1F
100
AcDbEntity
  8
LAYER_02
100
AcDbLine
 10
-228.2569795587931
 20
974.4502110936166
 30
0.0
 11
-229.8569577521318
 21
968.4790111850975
 31
0.0
  0
ARC
  5
114
330
1F
100
AcDbEntity
  8
LAYER_02
100
AcDbCircle
 10
-225.9932544469765
 20
967.4437350046837
 30
0.0
 40
4.00000000000002
100
AcDbArc
 50
164.9999999999449
 51
276.1913187308733
  0
ARC
  5
115
330
1F
100
AcDbEntity
  8
LAYER_02
100
AcDbCircle
 10
-224.6420136788887
 20
954.9877748535927
 30
0.0
 40
8.52903806758187
100
AcDbArc
 50
233.8086812690173
 51
96.19131873087409
  0
ARC
  5
116
330
1F
100
AcDbEntity
  8
LAYER_02
100
AcDbCircle
 10
-232.0402025862466
 20
944.876217318279
 30
0.0
 40
3.999999999999993
100
AcDbArc
 50
53.808681269019
 51
164.9999999999448
  0
LINE
  5
117
330
1F
100
AcDbEntity
  8
LAYER_02
100
AcDbLine
 10
-235.9039058914019
 20
945.9114934986928
 30
0.0
 11
-236.7038949880709
 21
942.9258935444343
 31
0.0
  0
ARC
  5
118
330
1F
100
AcDbEntity
  8
LAYER_02
100
AcDbCircle
 10
-320.8200846467643
 20
629.0000000002935
 30
0.0
 40
325.0000000002838
100
AcDbArc
 50
74.99999999994513
 51
105.0000000000548
  0
LINE
  5
119
330
1F
100
AcDbEntity
  8
LAYER_02
100
AcDbLine
 10
-404.9362743054572
 20
880.9258935444344
 30
0.0
 11
-405.7362634015856
 21
883.9114934988377
 31
0.0
  0
ARC
  5
11A
330
1F
100
AcDbEntity
  8
LAYER_02
100
AcDbCircle
 10
-401.8725600964287
 20
884.9467696792451
 30
0.0
 40
3.99999999999991
100
AcDbArc
 50
83.8086812690275
 51
194.9999999999611
  0
ARC
  5
11B
330
1F
100
AcDbEntity
  8
LAYER_02
100
AcDbCircle
 10
-400.5213193283197
 20
897.4027298303337
 30
0.0
 40
8.52903806758149
100
AcDbArc
 50
263.808681269029
 51
126.1913187308847
  0
ARC
  5
11C
330
1F
100
AcDbEntity
  8
LAYER_02
100
AcDbCircle
 10
-407.9195082356601
 20
907.5142873656596
 30
0.0
 40
3.999999999999982
100
AcDbArc
 50
194.9999999999524
 51
306.1913187308849
  0
LINE
  5
11D
330
1F
100
AcDbEntity
  8
LAYER_02
100
AcDbLine
 10
-411.7832115408173
 20
906.4790111852527
 30
0.0
 11
-413.3831897341457
 21
912.4502110937747
 31
0.0
  0
ARC
  5
11E
330
1F
100
AcDbEntity
  8
LAYER_02
100
AcDbCircle
 10
-417.2468930393029
 20
911.4149349133677
 30
0.0
 40
4.000000000000122
100
AcDbArc
 50
14.99999999995354
 51
126.1913187308833
  0
ARC
  5
11F
330
1F
100
AcDbEntity
  8
LAYER_02
100
AcDbCircle
 10
-424.6450819466429
 20
921.5264924486941
 30
0.0
 40
8.52903806758137
100
AcDbArc
 50
83.80868126903094
 51
306.1913187308814
  0
ARC
  5
120
330
1F
100
AcDbEntity
  8
LAYER_02
100
AcDbCircle
 10
-423.293841178534
 20
933.9824525997823
 30
0.0
 40
3.999999999999746
100
AcDbArc
 50
263.8086812690245
 51
14.99999999996173
  0
LINE
  5
121
330
1F
100
AcDbEntity
  8
LAYER_02
100
AcDbLine
 10
-419.4301378733773
 20
935.0177287801897
 30
0.0
 11
-420.2301269706743
 21
938.00332873428
 31
0.0
  0
ARC
  5
122
330
1F
100
AcDbEntity
  8
LAYER_02
100
AcDbCircle
 10
-320.8200846467642
 20
567.000000000282
 30
0.0
 40
384.0909090912575
100
AcDbArc
 50
74.99999999994566
 51
105.0000000000543
  0
LINE
  5
123
330
1F
100
AcDbEntity
  8
LAYER_02
100
AcDbLine
 10
-221.4100423228539
 20
938.0033287342799
 30
0.0
 11
-222.210031419523
 21
935.0177287800215
 31
0.0
  0
ARC
  5
124
330
1F
100
AcDbEntity
  8
LAYER_02
100
AcDbCircle
 10
-226.0737347246783
 20
936.0530049604351
 30
0.0
 40
4.000000000000019
100
AcDbArc
 50
233.808681269019
 51
344.9999999999466
  0
ARC
  5
125
330
1F
100
AcDbEntity
  8
LAYER_02
100
AcDbCircle
 10
-233.4719236320362
 20
925.9414474251216
 30
0.0
 40
8.529038067581622
100
AcDbArc
 50
53.8086812690167
 51
276.1913187308742
  0
ARC
  5
126
330
1F
100
AcDbEntity
  8
LAYER_02
100
AcDbCircle
 10
-232.1206828639485
 20
913.4854872740304
 30
0.0
 40
4.000000000000075
100
AcDbArc
 50
344.9999999999451
 51
96.1913187308717
  0
LINE
  5
127
330
1F
100
AcDbEntity
  8
LAYER_02
100
AcDbLine
 10
-228.2569795587931
 20
912.4502110936166
 30
0.0
 11
-229.8569577521318
 21
906.4790111850975
 31
0.0
  0
ARC
  5
128
330
1F
100
AcDbEntity
  8
LAYER_02
100
AcDbCircle
 10
-225.9932544469765
 20
905.4437350046837
 30
0.0
 40
4.00000000000002
100
AcDbArc
 50
164.9999999999449
 51
276.1913187308733
  0
ARC
  5
129
330
1F
100
AcDbEntity
  8
LAYER_02
100
AcDbCircle
 10
-224.6420136788887
 20
892.9877748535927
 30
0.0
 40
8.52903806758187
100
AcDbArc
 50
233.8086812690173
 51
96.19131873087409
  0
ARC
  5
12A
330
1F
100
AcDbEntity
  8
LAYER_02
100
AcDbCircle
 10
-232.0402025862466
 20
882.876217318279
 30
0.0
 40
3.999999999999993
100
AcDbArc
 50
53.808681269019
 51
164.9999999999448
  0
LINE
  5
12B
330
1F
100
AcDbEntity
  8
LAYER_02
100
AcDbLine
 10
-235.9039058914019
 20
883.9114934986928
 30
0.0
 11
-236.7038949880709
 21
880.9258935444343
 31
0.0
  0
ARC
  5
12C
330
1F
100
AcDbEntity
  8
LAYER_02
100
AcDbCircle
 10
-320.8200846467643
 20
567.0000000002935
 30
0.0
 40
325.0000000002838
100
AcDbArc
 50
74.99999999994513
 51
105.0000000000548
  0
LINE
  5
12D
330
1F
100
AcDbEntity
  8
LAYER_01
100
AcDbLine
 10
-320.8200846467641
 20
892.000000000577
 30
0.0
 11
-320.8200846462045
 21
895.0909205174548
 31
0.0
  0
ARC
  5
12E
330
1F
100
AcDbEntity
  8
LAYER_01
100
AcDbCircle
 10
-316.8200846462046
 20
895.0909205174485
 30
0.0
 40
3.99999999999991
100
AcDbArc
 50
68.80868126897344
 51
179.9999999999072
  0
ARC
  5
12F
330
1F
100
AcDbEntity
  8
LAYER_01
100
AcDbCircle
 10
-312.2910465786025
 20
906.7727272733024
 30
0.0
 40
8.52903806758149
100
AcDbArc
 50
248.8086812689749
 51
111.1913187308302
  0
ARC
  5
130
330
1F
100
AcDbEntity
  8
LAYER_01
100
AcDbCircle
 10
-316.8200846461647
 20
918.4545340291719
 30
0.0
 40
3.999999999999982
100
AcDbArc
 50
179.9999999998974
 51
291.1913187308306
  0
LINE
  5
131
330
1F
100
AcDbEntity
  8
LAYER_01
100
AcDbLine
 10
-320.8200846461646
 20
918.454534029179
 30
0.0
 11
-320.8200846461541
 21
924.6363750629374
 31
0.0
  0
ARC
  5
132
330
1F
100
AcDbEntity
  8
LAYER_01
100
AcDbCircle
 10
-324.8200846461542
 20
924.6363750629445
 30
0.0
 40
4.000000000000122
100
AcDbArc
 50
359.999999999899
 51
111.19131873083
  0
ARC
  5
133
330
1F
100
AcDbEntity
  8
LAYER_01
100
AcDbCircle
 10
-329.3491227137157
 20
936.318181818814
 30
0.0
 40
8.52903806758137
100
AcDbArc
 50
68.80868126897671
 51
291.191318730827
  0
ARC
  5
134
330
1F
100
AcDbEntity
  8
LAYER_01
100
AcDbCircle
 10
-324.820084646114
 20
947.9999885746678
 30
0.0
 40
3.999999999999746
100
AcDbArc
 50
248.8086812689701
 51
359.9999999999072
  0
LINE
  5
135
330
1F
100
AcDbEntity
  8
LAYER_01
100
AcDbLine
 10
-320.8200846461142
 20
947.9999885746614
 30
0.0
 11
-320.8200846467643
 21
951.0909090915396
 31
0.0
  0
LINE
  5
136
330
1F
100
AcDbEntity
  8
LAYER_01
100
AcDbLine
 10
-320.8200846467641
 20
830.000000000577
 30
0.0
 11
-320.8200846462045
 21
833.0909205174548
 31
0.0
  0
ARC
  5
137
330
1F
100
AcDbEntity
  8
LAYER_01
100
AcDbCircle
 10
-316.8200846462046
 20
833.0909205174485
 30
0.0
 40
3.99999999999991
100
AcDbArc
 50
68.80868126897344
 51
179.9999999999072
  0
ARC
  5
138
330
1F
100
AcDbEntity
  8
LAYER_01
100
AcDbCircle
 10
-312.2910465786025
 20
844.7727272733024
 30
0.0
 40
8.52903806758149
100
AcDbArc
 50
248.8086812689749
 51
111.1913187308302
  0
ARC
  5
139
330
1F
100
AcDbEntity
  8
LAYER_01
100
AcDbCircle
 10
-316.8200846461647
 20
856.4545340291719
 30
0.0
 40
3.999999999999982
100
AcDbArc
 50
179.9999999998974
 51
291.1913187308306
  0
LINE
  5
13A
330
1F
100
AcDbEntity
  8
LAYER_01
100
AcDbLine
 10
-320.8200846461646
 20
856.454534029179
 30
0.0
 11
-320.8200846461541
 21
862.6363750629374
 31
0.0
  0
ARC
  5
13B
330
1F
100
AcDbEntity
  8
LAYER_01
100
AcDbCircle
 10
-324.8200846461542
 20
862.6363750629445
 30
0.0
 40
4.000000000000122
100
AcDbArc
 50
359.999999999899
 51
111.19131873083
  0
ARC
  5
13C
330
1F
100
AcDbEntity
  8
LAYER_01
100
AcDbCircle
 10
-329.3491227137157
 20
874.318181818814
 30
0.0
 40
8.52903806758137
100
AcDbArc
 50
68.80868126897671
 51
291.191318730827
  0
ARC
  5
13D
330
1F
100
AcDbEntity
  8
LAYER_01
100
AcDbCircle
 10
-324.820084646114
 20
885.9999885746678
 30
0.0
 40
3.999999999999746
100
AcDbArc
 50
248.8086812689701
 51
359.9999999999072
  0
LINE
  5
13E
330
1F
100
AcDbEntity
  8
LAYER_01
100
AcDbLine
 10
-320.8200846461142
 20
885.9999885746614
 30
0.0
 11
-320.8200846467643
 21
889.0909090915396
 31
0.0
  0
LINE
  5
13F
330
1F
100
AcDbEntity
  8
LAYER_02
100
AcDbLine
 10
-404.9362743054572
 20
818.9258935444344
 30
0.0
 11
-405.7362634015856
 21
821.9114934988377
 31
0.0
  0
ARC
  5
140
330
1F
100
AcDbEntity
  8
LAYER_02
100
AcDbCircle
 10
-401.8725600964287
 20
822.9467696792451
 30
0.0
 40
3.99999999999991
100
AcDbArc
 50
83.8086812690275
 51
194.9999999999611
  0
ARC
  5
141
330
1F
100
AcDbEntity
  8
LAYER_02
100
AcDbCircle
 10
-400.5213193283197
 20
835.4027298303337
 30
0.0
 40
8.52903806758149
100
AcDbArc
 50
263.808681269029
 51
126.1913187308847
  0
ARC
  5
142
330
1F
100
AcDbEntity
  8
LAYER_02
100
AcDbCircle
 10
-407.9195082356601
 20
845.5142873656596
 30
0.0
 40
3.999999999999982
100
AcDbArc
 50
194.9999999999524
 51
306.1913187308849
  0
LINE
  5
143
330
1F
100
AcDbEntity
  8
LAYER_02
100
AcDbLine
 10
-411.7832115408173
 20
844.4790111852527
 30
0.0
 11
-413.3831897341457
 21
850.4502110937747
 31
0.0
  0
ARC
  5
144
330
1F
100
AcDbEntity
  8
LAYER_02
100
AcDbCircle
 10
-417.2468930393029
 20
849.4149349133677
 30
0.0
 40
4.000000000000122
100
AcDbArc
 50
14.99999999995354
 51
126.1913187308833
  0
ARC
  5
145
330
1F
100
AcDbEntity
  8
LAYER_02
100
AcDbCircle
 10
-424.6450819466429
 20
859.5264924486941
 30
0.0
 40
8.52903806758137
100
AcDbArc
 50
83.80868126903094
 51
306.1913187308814
  0
ARC
  5
146
330
1F
100
AcDbEntity
  8
LAYER_02
100
AcDbCircle
 10
-423.293841178534
 20
871.9824525997823
 30
0.0
 40
3.999999999999746
100
AcDbArc
 50
263.8086812690245
 51
14.99999999996173
  0
LINE
  5
147
330
1F
100
AcDbEntity
  8
LAYER_02
100
AcDbLine
 10
-419.4301378733773
 20
873.0177287801897
 30
0.0
 11
-420.2301269706743
 21
876.00332873428
 31
0.0
  0
ARC
  5
148
330
1F
100
AcDbEntity
  8
LAYER_02
100
AcDbCircle
 10
-320.8200846467642
 20
505.0000000002819
 30
0.0
 40
384.0909090912575
100
AcDbArc
 50
74.99999999994566
 51
105.0000000000543
  0
LINE
  5
149
330
1F
100
AcDbEntity
  8
LAYER_02
100
AcDbLine
 10
-221.4100423228539
 20
876.0033287342799
 30
0.0
 11
-222.210031419523
 21
873.0177287800215
 31
0.0
  0
ARC
  5
14A
330
1F
100
AcDbEntity
  8
LAYER_02
100
AcDbCircle
 10
-226.0737347246783
 20
874.0530049604351
 30
0.0
 40
4.000000000000019
100
AcDbArc
 50
233.808681269019
 51
344.9999999999466
  0
ARC
  5
14B
330
1F
100
AcDbEntity
  8
LAYER_02
100
AcDbCircle
 10
-233.4719236320362
 20
863.9414474251216
 30
0.0
 40
8.529038067581622
100
AcDbArc
 50
53.8086812690167
 51
276.1913187308742
  0
ARC
  5
14C
330
1F
100
AcDbEntity
  8
LAYER_02
100
AcDbCircle
 10
-232.1206828639485
 20
851.4854872740304
 30
0.0
 40
4.000000000000075
100
AcDbArc
 50
344.9999999999451
 51
96.1913187308717
  0
LINE
  5
14D
330
1F
100
AcDbEntity
  8
LAYER_02
100
AcDbLine
 10
-228.2569795587931
 20
850.4502110936166
 30
0.0
 11
-229.8569577521318
 21
844.4790111850975
 31
0.0
  0
ARC
  5
14E
330
1F
100
AcDbEntity
  8
LAYER_02
100
AcDbCircle
 10
-225.9932544469765
 20
843.4437350046837
 30
0.0
 40
4.00000000000002
100
AcDbArc
 50
164.9999999999449
 51
276.1913187308733
  0
ARC
  5
14F
330
1F
100
AcDbEntity
  8
LAYER_02
100
AcDbCircle
 10
-224.6420136788887
 20
830.9877748535927
 30
0.0
 40
8.52903806758187
100
AcDbArc
 50
233.8086812690173
 51
96.19131873087409
  0
ARC
  5
150
330
1F
100
AcDbEntity
  8
LAYER_02
100
AcDbCircle
 10
-232.0402025862466
 20
820.876217318279
 30
0.0
 40
3.999999999999993
100
AcDbArc
 50
53.808681269019
 51
164.9999999999448
  0
LINE
  5
151
330
1F
100
AcDbEntity
  8
LAYER_02
100
AcDbLine
 10
-235.9039058914019
 20
821.9114934986928
 30
0.0
 11
-236.7038949880709
 21
818.9258935444343
 31
0.0
  0
ARC
  5
152
330
1F
100
AcDbEntity
  8
LAYER_02
100
AcDbCircle
 10
-320.8200846467643
 20
505.0000000002935
 30
0.0
 40
325.0000000002838
100
AcDbArc
 50
74.99999999994513
 51
105.0000000000548
  0
LINE
  5
153
330
1F
100
AcDbEntity
  8
LAYER_01
100
AcDbLine
 10
-320.820084646764
 20
768.0000000005773
 30
0.0
 11
-320.8200846462044
 21
771.0909205174552
 31
0.0
  0
ARC
  5
154
330
1F
100
AcDbEntity
  8
LAYER_01
100
AcDbCircle
 10
-316.8200846462045
 20
771.0909205174488
 30
0.0
 40
3.99999999999991
100
AcDbArc
 50
68.80868126897344
 51
179.9999999999072
  0
ARC
  5
155
330
1F
100
AcDbEntity
  8
LAYER_01
100
AcDbCircle
 10
-312.2910465786024
 20
782.7727272733027
 30
0.0
 40
8.52903806758149
100
AcDbArc
 50
248.8086812689749
 51
111.1913187308302
  0
ARC
  5
156
330
1F
100
AcDbEntity
  8
LAYER_01
100
AcDbCircle
 10
-316.8200846461646
 20
794.4545340291722
 30
0.0
 40
3.999999999999982
100
AcDbArc
 50
179.9999999998974
 51
291.1913187308306
  0
LINE
  5
157
330
1F
100
AcDbEntity
  8
LAYER_01
100
AcDbLine
 10
-320.8200846461645
 20
794.4545340291793
 30
0.0
 11
-320.820084646154
 21
800.6363750629378
 31
0.0
  0
ARC
  5
158
330
1F
100
AcDbEntity
  8
LAYER_01
100
AcDbCircle
 10
-324.8200846461541
 20
800.6363750629448
 30
0.0
 40
4.000000000000122
100
AcDbArc
 50
359.999999999899
 51
111.19131873083
  0
ARC
  5
159
330
1F
100
AcDbEntity
  8
LAYER_01
100
AcDbCircle
 10
-329.3491227137156
 20
812.3181818188143
 30
0.0
 40
8.52903806758137
100
AcDbArc
 50
68.80868126897671
 51
291.191318730827
  0
ARC
  5
15A
330
1F
100
AcDbEntity
  8
LAYER_01
100
AcDbCircle
 10
-324.8200846461139
 20
823.9999885746681
 30
0.0
 40
3.999999999999746
100
AcDbArc
 50
248.8086812689701
 51
359.9999999999072
  0
LINE
  5
15B
330
1F
100
AcDbEntity
  8
LAYER_01
100
AcDbLine
 10
-320.8200846461141
 20
823.9999885746618
 30
0.0
 11
-320.8200846467641
 21
827.09090909154
 31
0.0
  0
LINE
  5
15C
330
1F
100
AcDbEntity
  8
LAYER_02
100
AcDbLine
 10
-404.9362743054571
 20
756.9258935444348
 30
0.0
 11
-405.7362634015855
 21
759.911493498838
 31
0.0
  0
ARC
  5
15D
330
1F
100
AcDbEntity
  8
LAYER_02
100
AcDbCircle
 10
-401.8725600964286
 20
760.9467696792454
 30
0.0
 40
3.99999999999991
100
AcDbArc
 50
83.8086812690275
 51
194.9999999999611
  0
ARC
  5
15E
330
1F
100
AcDbEntity
  8
LAYER_02
100
AcDbCircle
 10
-400.5213193283196
 20
773.402729830334
 30
0.0
 40
8.52903806758149
100
AcDbArc
 50
263.808681269029
 51
126.1913187308847
  0
ARC
  5
15F
330
1F
100
AcDbEntity
  8
LAYER_02
100
AcDbCircle
 10
-407.91950823566
 20
783.5142873656599
 30
0.0
 40
3.999999999999982
100
AcDbArc
 50
194.9999999999524
 51
306.1913187308849
  0
LINE
  5
160
330
1F
100
AcDbEntity
  8
LAYER_02
100
AcDbLine
 10
-411.7832115408171
 20
782.4790111852531
 30
0.0
 11
-413.3831897341456
 21
788.450211093775
 31
0.0
  0
ARC
  5
161
330
1F
100
AcDbEntity
  8
LAYER_02
100
AcDbCircle
 10
-417.2468930393028
 20
787.414934913368
 30
0.0
 40
4.000000000000122
100
AcDbArc
 50
14.99999999995354
 51
126.1913187308833
  0
ARC
  5
162
330
1F
100
AcDbEntity
  8
LAYER_02
100
AcDbCircle
 10
-424.6450819466428
 20
797.5264924486944
 30
0.0
 40
8.52903806758137
100
AcDbArc
 50
83.80868126903094
 51
306.1913187308814
  0
ARC
  5
163
330
1F
100
AcDbEntity
  8
LAYER_02
100
AcDbCircle
 10
-423.2938411785339
 20
809.9824525997826
 30
0.0
 40
3.999999999999746
100
AcDbArc
 50
263.8086812690245
 51
14.99999999996173
  0
LINE
  5
164
330
1F
100
AcDbEntity
  8
LAYER_02
100
AcDbLine
 10
-419.4301378733772
 20
811.01772878019
 30
0.0
 11
-420.2301269706742
 21
814.0033287342803
 31
0.0
  0
ARC
  5
165
330
1F
100
AcDbEntity
  8
LAYER_02
100
AcDbCircle
 10
-320.8200846467641
 20
443.0000000002823
 30
0.0
 40
384.0909090912575
100
AcDbArc
 50
74.99999999994566
 51
105.0000000000543
  0
LINE
  5
166
330
1F
100
AcDbEntity
  8
LAYER_02
100
AcDbLine
 10
-221.4100423228538
 20
814.0033287342802
 30
0.0
 11
-222.2100314195229
 21
811.0177287800218
 31
0.0
  0
ARC
  5
167
330
1F
100
AcDbEntity
  8
LAYER_02
100
AcDbCircle
 10
-226.0737347246782
 20
812.0530049604355
 30
0.0
 40
4.000000000000019
100
AcDbArc
 50
233.808681269019
 51
344.9999999999466
  0
ARC
  5
168
330
1F
100
AcDbEntity
  8
LAYER_02
100
AcDbCircle
 10
-233.4719236320361
 20
801.941447425122
 30
0.0
 40
8.529038067581622
100
AcDbArc
 50
53.8086812690167
 51
276.1913187308742
  0
ARC
  5
169
330
1F
100
AcDbEntity
  8
LAYER_02
100
AcDbCircle
 10
-232.1206828639484
 20
789.4854872740308
 30
0.0
 40
4.000000000000075
100
AcDbArc
 50
344.9999999999451
 51
96.1913187308717
  0
LINE
  5
16A
330
1F
100
AcDbEntity
  8
LAYER_02
100
AcDbLine
 10
-228.256979558793
 20
788.450211093617
 30
0.0
 11
-229.8569577521317
 21
782.4790111850979
 31
0.0
  0
ARC
  5
16B
330
1F
100
AcDbEntity
  8
LAYER_02
100
AcDbCircle
 10
-225.9932544469764
 20
781.4437350046841
 30
0.0
 40
4.00000000000002
100
AcDbArc
 50
164.9999999999449
 51
276.1913187308733
  0
ARC
  5
16C
330
1F
100
AcDbEntity
  8
LAYER_02
100
AcDbCircle
 10
-224.6420136788886
 20
768.987774853593
 30
0.0
 40
8.52903806758187
100
AcDbArc
 50
233.8086812690173
 51
96.19131873087409
  0
ARC
  5
16D
330
1F
100
AcDbEntity
  8
LAYER_02
100
AcDbCircle
 10
-232.0402025862465
 20
758.8762173182794
 30
0.0
 40
3.999999999999993
100
AcDbArc
 50
53.808681269019
 51
164.9999999999448
  0
LINE
  5
16E
330
1F
100
AcDbEntity
  8
LAYER_02
100
AcDbLine
 10
-235.9039058914018
 20
759.9114934986932
 30
0.0
 11
-236.7038949880708
 21
756.9258935444346
 31
0.0
  0
ARC
  5
16F
330
1F
100
AcDbEntity
  8
LAYER_02
100
AcDbCircle
 10
-320.8200846467641
 20
443.0000000002939
 30
0.0
 40
325.0000000002838
100
AcDbArc
 50
74.99999999994513
 51
105.0000000000548
  0
LINE
  5
170
330
1F
100
AcDbEntity
  8
LAYER_01
100
AcDbLine
 10
-320.820084646764
 20
706.0000000005773
 30
0.0
 11
-320.8200846462044
 21
709.0909205174552
 31
0.0
  0
ARC
  5
171
330
1F
100
AcDbEntity
  8
LAYER_01
100
AcDbCircle
 10
-316.8200846462045
 20
709.0909205174488
 30
0.0
 40
3.99999999999991
100
AcDbArc
 50
68.80868126897344
 51
179.9999999999072
  0
ARC
  5
172
330
1F
100
AcDbEntity
  8
LAYER_01
100
AcDbCircle
 10
-312.2910465786024
 20
720.7727272733027
 30
0.0
 40
8.52903806758149
100
AcDbArc
 50
248.8086812689749
 51
111.1913187308302
  0
ARC
  5
173
330
1F
100
AcDbEntity
  8
LAYER_01
100
AcDbCircle
 10
-316.8200846461646
 20
732.4545340291722
 30
0.0
 40
3.999999999999982
100
AcDbArc
 50
179.9999999998974
 51
291.1913187308306
  0
LINE
  5
174
330
1F
100
AcDbEntity
  8
LAYER_01
100
AcDbLine
 10
-320.8200846461645
 20
732.4545340291793
 30
0.0
 11
-320.820084646154
 21
738.6363750629378
 31
0.0
  0
ARC
  5
175
330
1F
100
AcDbEntity
  8
LAYER_01
100
AcDbCircle
 10
-324.8200846461541
 20
738.6363750629448
 30
0.0
 40
4.000000000000122
100
AcDbArc
 50
359.999999999899
 51
111.19131873083
  0
ARC
  5
176
330
1F
100
AcDbEntity
  8
LAYER_01
100
AcDbCircle
 10
-329.3491227137156
 20
750.3181818188143
 30
0.0
 40
8.52903806758137
100
AcDbArc
 50
68.80868126897671
 51
291.191318730827
  0
ARC
  5
177
330
1F
100
AcDbEntity
  8
LAYER_01
100
AcDbCircle
 10
-324.8200846461139
 20
761.9999885746681
 30
0.0
 40
3.999999999999746
100
AcDbArc
 50
248.8086812689701
 51
359.9999999999072
  0
LINE
  5
178
330
1F
100
AcDbEntity
  8
LAYER_01
100
AcDbLine
 10
-320.8200846461141
 20
761.9999885746618
 30
0.0
 11
-320.8200846467641
 21
765.09090909154
 31
0.0
  0
LINE
  5
179
330
1F
100
AcDbEntity
  8
LAYER_02
100
AcDbLine
 10
-404.9362743054571
 20
694.9258935444348
 30
0.0
 11
-405.7362634015855
 21
697.911493498838
 31
0.0
  0
ARC
  5
17A
330
1F
100
AcDbEntity
  8
LAYER_02
100
AcDbCircle
 10
-401.8725600964286
 20
698.9467696792454
 30
0.0
 40
3.99999999999991
100
AcDbArc
 50
83.8086812690275
 51
194.9999999999611
  0
ARC
  5
17B
330
1F
100
AcDbEntity
  8
LAYER_02
100
AcDbCircle
 10
-400.5213193283196
 20
711.402729830334
 30
0.0
 40
8.52903806758149
100
AcDbArc
 50
263.808681269029
 51
126.1913187308847
  0
ARC
  5
17C
330
1F
100
AcDbEntity
  8
LAYER_02
100
AcDbCircle
 10
-407.91950823566
 20
721.5142873656599
 30
0.0
 40
3.999999999999982
100
AcDbArc
 50
194.9999999999524
 51
306.1913187308849
  0
LINE
  5
17D
330
1F
100
AcDbEntity
  8
LAYER_02
100
AcDbLine
 10
-411.7832115408171
 20
720.4790111852531
 30
0.0
 11
-413.3831897341456
 21
726.450211093775
 31
0.0
  0
ARC
  5
17E
330
1F
100
AcDbEntity
  8
LAYER_02
100
AcDbCircle
 10
-417.2468930393028
 20
725.414934913368
 30
0.0
 40
4.000000000000122
100
AcDbArc
 50
14.99999999995354
 51
126.1913187308833
  0
ARC
  5
17F
330
1F
100
AcDbEntity
  8
LAYER_02
100
AcDbCircle
 10
-424.6450819466428
 20
735.5264924486944
 30
0.0
 40
8.52903806758137
100
AcDbArc
 50
83.80868126903094
 51
306.1913187308814
  0
ARC
  5
180
330
1F
100
AcDbEntity
  8
LAYER_02
100
AcDbCircle
 10
-423.2938411785339
 20
747.9824525997826
 30
0.0
 40
3.999999999999746
100
AcDbArc
 50
263.8086812690245
 51
14.99999999996173
  0
LINE
  5
181
330
1F
100
AcDbEntity
  8
LAYER_02
100
AcDbLine
 10
-419.4301378733772
 20
749.01772878019
 30
0.0
 11
-420.2301269706742
 21
752.0033287342803
 31
0.0
  0
ARC
  5
182
330
1F
100
AcDbEntity
  8
LAYER_02
100
AcDbCircle
 10
-320.8200846467641
 20
381.0000000002823
 30
0.0
 40
384.0909090912575
100
AcDbArc
 50
74.99999999994566
 51
105.0000000000543
  0
LINE
  5
183
330
1F
100
AcDbEntity
  8
LAYER_02
100
AcDbLine
 10
-221.4100423228538
 20
752.0033287342802
 30
0.0
 11
-222.2100314195229
 21
749.0177287800218
 31
0.0
  0
ARC
  5
184
330
1F
100
AcDbEntity
  8
LAYER_02
100
AcDbCircle
 10
-226.0737347246782
 20
750.0530049604355
 30
0.0
 40
4.000000000000019
100
AcDbArc
 50
233.808681269019
 51
344.9999999999466
  0
ARC
  5
185
330
1F
100
AcDbEntity
  8
LAYER_02
100
AcDbCircle
 10
-233.4719236320361
 20
739.941447425122
 30
0.0
 40
8.529038067581622
100
AcDbArc
 50
53.8086812690167
 51
276.1913187308742
  0
ARC
  5
186
330
1F
100
AcDbEntity
  8
LAYER_02
100
AcDbCircle
 10
-232.1206828639484
 20
727.4854872740308
 30
0.0
 40
4.000000000000075
100
AcDbArc
 50
344.9999999999451
 51
96.1913187308717
  0
LINE
  5
187
330
1F
100
AcDbEntity
  8
LAYER_02
100
AcDbLine
 10
-228.256979558793
 20
726.450211093617
 30
0.0
 11
-229.8569577521317
 21
720.4790111850979
 31
0.0
  0
ARC
  5
188
330
1F
100
AcDbEntity
  8
LAYER_02
100
AcDbCircle
 10
-225.9932544469764
 20
719.4437350046841
 30
0.0
 40
4.00000000000002
100
AcDbArc
 50
164.9999999999449
 51
276.1913187308733
  0
ARC
  5
189
330
1F
100
AcDbEntity
  8
LAYER_02
100
AcDbCircle
 10
-224.6420136788886
 20
706.987774853593
 30
0.0
 40
8.52903806758187
100
AcDbArc
 50
233.8086812690173
 51
96.19131873087409
  0
ARC
  5
18A
330
1F
100
AcDbEntity
  8
LAYER_02
100
AcDbCircle
 10
-232.0402025862465
 20
696.8762173182794
 30
0.0
 40
3.999999999999993
100
AcDbArc
 50
53.808681269019
 51
164.9999999999448
  0
LINE
  5
18B
330
1F
100
AcDbEntity
  8
LAYER_02
100
AcDbLine
 10
-235.9039058914018
 20
697.9114934986932
 30
0.0
 11
-236.7038949880708
 21
694.9258935444346
 31
0.0
  0
ARC
  5
18C
330
1F
100
AcDbEntity
  8
LAYER_02
100
AcDbCircle
 10
-320.8200846467641
 20
381.0000000002939
 30
0.0
 40
325.0000000002838
100
AcDbArc
 50
74.99999999994513
 51
105.0000000000548
  0
LINE
  5
18D
330
1F
100
AcDbEntity
  8
LAYER_01
100
AcDbLine
 10
-320.820084646764
 20
644.0000000005773
 30
0.0
 11
-320.8200846462044
 21
647.0909205174552
 31
0.0
  0
ARC
  5
18E
330
1F
100
AcDbEntity
  8
LAYER_01
100
AcDbCircle
 10
-316.8200846462045
 20
647.0909205174488
 30
0.0
 40
3.99999999999991
100
AcDbArc
 50
68.80868126897344
 51
179.9999999999072
  0
ARC
  5
18F
330
1F
100
AcDbEntity
  8
LAYER_01
100
AcDbCircle
 10
-312.2910465786024
 20
658.7727272733027
 30
0.0
 40
8.52903806758149
100
AcDbArc
 50
248.8086812689749
 51
111.1913187308302
  0
ARC
  5
190
330
1F
100
AcDbEntity
  8
LAYER_01
100
AcDbCircle
 10
-316.8200846461646
 20
670.4545340291722
 30
0.0
 40
3.999999999999982
100
AcDbArc
 50
179.9999999998974
 51
291.1913187308306
  0
LINE
  5
191
330
1F
100
AcDbEntity
  8
LAYER_01
100
AcDbLine
 10
-320.8200846461645
 20
670.4545340291793
 30
0.0
 11
-320.820084646154
 21
676.6363750629378
 31
0.0
  0
ARC
  5
192
330
1F
100
AcDbEntity
  8
LAYER_01
100
AcDbCircle
 10
-324.8200846461541
 20
676.6363750629448
 30
0.0
 40
4.000000000000122
100
AcDbArc
 50
359.999999999899
 51
111.19131873083
  0
ARC
  5
193
330
1F
100
AcDbEntity
  8
LAYER_01
100
AcDbCircle
 10
-329.3491227137156
 20
688.3181818188143
 30
0.0
 40
8.52903806758137
100
AcDbArc
 50
68.80868126897671
 51
291.191318730827
  0
ARC
  5
194
330
1F
100
AcDbEntity
  8
LAYER_01
100
AcDbCircle
 10
-324.8200846461139
 20
699.9999885746681
 30
0.0
 40
3.999999999999746
100
AcDbArc
 50
248.8086812689701
 51
359.9999999999072
  0
LINE
  5
195
330
1F
100
AcDbEntity
  8
LAYER_01
100
AcDbLine
 10
-320.8200846461141
 20
699.9999885746618
 30
0.0
 11
-320.8200846467641
 21
703.09090909154
 31
0.0
  0
LINE
  5
196
330
1F
100
AcDbEntity
  8
LAYER_02
100
AcDbLine
 10
-404.9362743054571
 20
632.9258935444348
 30
0.0
 11
-405.7362634015855
 21
635.911493498838
 31
0.0
  0
ARC
  5
197
330
1F
100
AcDbEntity
  8
LAYER_02
100
AcDbCircle
 10
-401.8725600964286
 20
636.9467696792454
 30
0.0
 40
3.99999999999991
100
AcDbArc
 50
83.8086812690275
 51
194.9999999999611
  0
ARC
  5
198
330
1F
100
AcDbEntity
  8
LAYER_02
100
AcDbCircle
 10
-400.5213193283196
 20
649.402729830334
 30
0.0
 40
8.52903806758149
100
AcDbArc
 50
263.808681269029
 51
126.1913187308847
  0
ARC
  5
199
330
1F
100
AcDbEntity
  8
LAYER_02
100
AcDbCircle
 10
-407.91950823566
 20
659.5142873656599
 30
0.0
 40
3.999999999999982
100
AcDbArc
 50
194.9999999999524
 51
306.1913187308849
  0
LINE
  5
19A
330
1F
100
AcDbEntity
  8
LAYER_02
100
AcDbLine
 10
-411.7832115408171
 20
658.4790111852531
 30
0.0
 11
-413.3831897341456
 21
664.450211093775
 31
0.0
  0
ARC
  5
19B
330
1F
100
AcDbEntity
  8
LAYER_02
100
AcDbCircle
 10
-417.2468930393028
 20
663.414934913368
 30
0.0
 40
4.000000000000122
100
AcDbArc
 50
14.99999999995354
 51
126.1913187308833
  0
ARC
  5
19C
330
1F
100
AcDbEntity
  8
LAYER_02
100
AcDbCircle
 10
-424.6450819466428
 20
673.5264924486944
 30
0.0
 40
8.52903806758137
100
AcDbArc
 50
83.80868126903094
 51
306.1913187308814
  0
ARC
  5
19D
330
1F
100
AcDbEntity
  8
LAYER_02
100
AcDbCircle
 10
-423.2938411785339
 20
685.9824525997826
 30
0.0
 40
3.999999999999746
100
AcDbArc
 50
263.8086812690245
 51
14.99999999996173
  0
LINE
  5
19E
330
1F
100
AcDbEntity
  8
LAYER_02
100
AcDbLine
 10
-419.4301378733772
 20
687.01772878019
 30
0.0
 11
-420.2301269706742
 21
690.0033287342803
 31
0.0
  0
ARC
  5
19F
330
1F
100
AcDbEntity
  8
LAYER_02
100
AcDbCircle
 10
-320.8200846467641
 20
319.0000000002823
 30
0.0
 40
384.0909090912575
100
AcDbArc
 50
74.99999999994566
 51
105.0000000000543
  0
LINE
  5
1A0
330
1F
100
AcDbEntity
  8
LAYER_02
100
AcDbLine
 10
-221.4100423228538
 20
690.0033287342802
 30
0.0
 11
-222.2100314195229
 21
687.0177287800218
 31
0.0
  0
ARC
  5
1A1
330
1F
100
AcDbEntity
  8
LAYER_02
100
AcDbCircle
 10
-226.0737347246782
 20
688.0530049604355
 30
0.0
 40
4.000000000000019
100
AcDbArc
 50
233.808681269019
 51
344.9999999999466
  0
ARC
  5
1A2
330
1F
100
AcDbEntity
  8
LAYER_02
100
AcDbCircle
 10
-233.4719236320361
 20
677.941447425122
 30
0.0
 40
8.529038067581622
100
AcDbArc
 50
53.8086812690167
 51
276.1913187308742
  0
ARC
  5
1A3
330
1F
100
AcDbEntity
  8
LAYER_02
100
AcDbCircle
 10
-232.1206828639484
 20
665.4854872740308
 30
0.0
 40
4.000000000000075
100
AcDbArc
 50
344.9999999999451
 51
96.1913187308717
  0
LINE
  5
1A4
330
1F
100
AcDbEntity
  8
LAYER_02
100
AcDbLine
 10
-228.256979558793
 20
664.450211093617
 30
0.0
 11
-229.8569577521317
 21
658.4790111850979
 31
0.0
  0
ARC
  5
1A5
330
1F
100
AcDbEntity
  8
LAYER_02
100
AcDbCircle
 10
-225.9932544469764
 20
657.4437350046841
 30
0.0
 40
4.00000000000002
100
AcDbArc
 50
164.9999999999449
 51
276.1913187308733
  0
ARC
  5
1A6
330
1F
100
AcDbEntity
  8
LAYER_02
100
AcDbCircle
 10
-224.6420136788886
 20
644.987774853593
 30
0.0
 40
8.52903806758187
100
AcDbArc
 50
233.8086812690173
 51
96.19131873087409
  0
ARC
  5
1A7
330
1F
100
AcDbEntity
  8
LAYER_02
100
AcDbCircle
 10
-232.0402025862465
 20
634.8762173182794
 30
0.0
 40
3.999999999999993
100
AcDbArc
 50
53.808681269019
 51
164.9999999999448
  0
LINE
  5
1A8
330
1F
100
AcDbEntity
  8
LAYER_02
100
AcDbLine
 10
-235.9039058914018
 20
635.9114934986932
 30
0.0
 11
-236.7038949880708
 21
632.9258935444346
 31
0.0
  0
ARC
  5
1A9
330
1F
100
AcDbEntity
  8
LAYER_02
100
AcDbCircle
 10
-320.8200846467641
 20
319.0000000002939
 30
0.0
 40
325.0000000002838
100
AcDbArc
 50
74.99999999994513
 51
105.0000000000548
  0
ENDSEC
  0
SECTION
  2
OBJECTS
  0
DICTIONARY
  5
C
330
0
100
AcDbDictionary
  3
ACAD_GROUP
350
D
  3
ACAD_LAYOUT
350
1A
  3
ACAD_MATERIAL
350
43
  3
ACAD_MLEADERSTYLE
350
1CC
  3
ACAD_MLINESTYLE
350
17
  3
ACAD_PLOTSETTINGS
350
19
  3
ACAD_SCALELIST
350
47
  3
ACAD_VISUALSTYLE
350
2A
  3
ACDBHEADERROUNDTRIPXREC
350
1AA
  3
ACDBVARIABLEDICTIONARY
350
1CA
  0
DICTIONARY
  5
D
102
{ACAD_REACTORS
330
C
102
}
330
C
100
AcDbDictionary
  0
DICTIONARY
  5
1A
102
{ACAD_REACTORS
330
C
102
}
330
C
100
AcDbDictionary
  0
DICTIONARY
  5
43
102
{ACAD_REACTORS
330
C
102
}
330
C
100
AcDbDictionary
  3
BYBLOCK
350
45
  3
BYLAYER
350
44
  3
GLOBAL
350
46
  0
DICTIONARY
  5
1CC
102
{ACAD_REACTORS
330
C
102
}
330
C
100
AcDbDictionary
  0
DICTIONARY
  5
17
102
{ACAD_REACTORS
330
C
102
}
330
C
100
AcDbDictionary
  3
STANDARD
350
18
  0
DICTIONARY
  5
19
102
{ACAD_REACTORS
330
C
102
}
330
C
100
AcDbDictionary
  0
DICTIONARY
  5
47
102
{ACAD_REACTORS
330
C
102
}
330
C
100
AcDbDictionary
  3
A0
350
48
  3
A1
350
49
  3
A2
350
4A
  3
A3
350
4B
  3
A4
350
4C
  3
A5
350
4D
  3
A6
350
4E
  3
A7
350
4F
  3
A8
350
50
  3
A9
350
51
  3
B0
350
52
  3
B1
350
53
  3
B2
350
54
  3
B3
350
55
  3
B4
350
56
  3
B5
350
57
  3
B6
350
58
  3
B7
350
59
  3
B8
350
5A
  3
B9
350
5B
  3
C0
350
5C
  3
C1
350
5D
  3
C2
350
5E
  3
C3
350
5F
  3
C4
350
60
  3
C5
350
61
  3
C6
350
62
  3
C7
350
63
  3
C8
350
64
  3
C9
350
65
  3
D0
350
66
  3
D1
350
67
  3
D2
350
68
  0
DICTIONARY
  5
2A
102
{ACAD_REACTORS
330
C
102
}
330
C
100
AcDbDictionary
  3
2DWIREFRAME
350
2F
  3
BASIC
350
32
  3
BRIGHTEN
350
36
  3
COLORCHANGE
350
3A
  3
CONCEPTUAL
350
34
  3
DIM
350
35
  3
EDGECOLOROFF
350
3D
  3
FACEPATTERN
350
39
  3
FLAT
350
2B
  3
FLATWITHEDGES
350
2C
  3
GOURAUD
350
2D
  3
GOURAUDWITHEDGES
350
2E
  3
HIDDEN
350
31
  3
JITTEROFF
350
3B
  3
LINEPATTERN
350
38
  3
OVERHANGOFF
350
3C
  3
REALISTIC
350
33
  3
SHADED
350
42
  3
SHADED_WITH_EDGES
350
41
  3
SHADES_OF_GRAY
350
3E
  3
SKETCHY
350
3F
  3
THICKEN
350
37
  3
WIREFRAME
350
30
  3
X-RAY
350
40
  0
DICTIONARY
  5
1AA
102
{ACAD_REACTORS
330
C
102
}
330
C
100
AcDbDictionary
  3
CEPSNTYPE
350
1B3
  3
DIMSTYLEDATA
350
1C9
  3
FINGERPRINTGUID
350
1B4
  3
HYPERLINKBASE
350
1AD
  3
INSUNITS
350
1B2
  3
LAYOUTDICT
350
1AF
  3
LWETCUNION
350
1B1
  3
PLOTSETDICT
350
1B0
  3
PSVPSCALE
350
1B6
  3
PUCSBASE
350
1B9
  3
PUCSORGBACK
350
1BF
  3
PUCSORGBOTTOM
350
1BB
  3
PUCSORGFRONT
350
1BE
  3
PUCSORGLEFT
350
1BC
  3
PUCSORGRIGHT
350
1BD
  3
PUCSORGTOP
350
1BA
  3
PUCSORTHOREF
350
1B7
  3
PUCSORTHOVIEW
350
1B8
  3
STYLESHEET
350
1AE
  3
TSTACKALIGN
350
1AB
  3
TSTACKSIZE
350
1AC
  3
UCSBASE
350
1C2
  3
UCSORGBACK
350
1C8
  3
UCSORGBOTTOM
350
1C4
  3
UCSORGFRONT
350
1C7
  3
UCSORGLEFT
350
1C5
  3
UCSORGRIGHT
350
1C6
  3
UCSORGTOP
350
1C3
  3
UCSORTHOREF
350
1C0
  3
UCSORTHOVIEW
350
1C1
  3
VERSIONGUID
350
1B5
  0
DICTIONARY
  5
1CA
102
{ACAD_REACTORS
330
C
102
}
330
C
100
AcDbDictionary
  3
CANNOSCALE
350
1D1
  3
DIMASSOC
350
1CF
  3
HIDETEXT
350
1D0
  3
MSLTSCALE
350
1D2
  0
MATERIAL
  5
45
102
{ACAD_REACTORS
330
43
102
}
102
{ACAD_XDICTIONARY
360
1D5
102
}
330
43
100
AcDbMaterial
  1
BYBLOCK
  0
MATERIAL
  5
44
102
{ACAD_REACTORS
330
43
102
}
102
{ACAD_XDICTIONARY
360
1D3
102
}
330
43
100
AcDbMaterial
  1
BYLAYER
  0
MATERIAL
  5
46
102
{ACAD_REACTORS
330
43
102
}
102
{ACAD_XDICTIONARY
360
1D7
102
}
330
43
100
AcDbMaterial
  1
GLOBAL
  0
MLINESTYLE
  5
18
102
{ACAD_REACTORS
330
17
102
}
330
17
100
AcDbMlineStyle
  2
Standard
 70
     0
  3

 62
   256
 51
90.0
 52
90.0
 71
     2
 49
0.5
 62
   256
  6
BYLAYER
 49
-0.5
 62
   256
  6
BYLAYER
  0
ACAD_PROXY_OBJECT
  5
48
102
{ACAD_REACTORS
330
47
102
}
330
47
100
AcDbProxyObject
 90
      499
 91
      503
 93
       41
310
903313A31580
  0
ACAD_PROXY_OBJECT
  5
49
102
{ACAD_REACTORS
330
47
102
}
330
47
100
AcDbProxyObject
 90
      499
 91
      503
 93
      105
310
903313A324000000000000004000
  0
ACAD_PROXY_OBJECT
  5
4A
102
{ACAD_REACTORS
330
47
102
}
330
47
100
AcDbProxyObject
 90
      499
 91
      503
 93
      105
310
903313A344000000000000104000
  0
ACAD_PROXY_OBJECT
  5
4B
102
{ACAD_REACTORS
330
47
102
}
330
47
100
AcDbProxyObject
 90
      499
 91
      503
 93
      105
310
903313A354000000000000144000
  0
ACAD_PROXY_OBJECT
  5
4C
102
{ACAD_REACTORS
330
47
102
}
330
47
100
AcDbProxyObject
 90
      499
 91
      503
 93
      105
310
903313A384000000000000204000
  0
ACAD_PROXY_OBJECT
  5
4D
102
{ACAD_REACTORS
330
47
102
}
330
47
100
AcDbProxyObject
 90
      499
 91
      503
 93
      113
310
904313A31304000000000000244000
  0
ACAD_PROXY_OBJECT
  5
4E
102
{ACAD_REACTORS
330
47
102
}
330
47
100
AcDbProxyObject
 90
      499
 91
      503
 93
      113
310
904313A31364000000000000304000
  0
ACAD_PROXY_OBJECT
  5
4F
102
{ACAD_REACTORS
330
47
102
}
330
47
100
AcDbProxyObject
 90
      499
 91
      503
 93
      113
310
904313A32304000000000000344000
  0
ACAD_PROXY_OBJECT
  5
50
102
{ACAD_REACTORS
330
47
102
}
330
47
100
AcDbProxyObject
 90
      499
 91
      503
 93
      113
310
904313A333040000000000003E4000
  0
ACAD_PROXY_OBJECT
  5
51
102
{ACAD_REACTORS
330
47
102
}
330
47
100
AcDbProxyObject
 90
      499
 91
      503
 93
      113
310
904313A34304000000000000444000
  0
ACAD_PROXY_OBJECT
  5
52
102
{ACAD_REACTORS
330
47
102
}
330
47
100
AcDbProxyObject
 90
      499
 91
      503
 93
      113
310
904313A35304000000000000494000
  0
ACAD_PROXY_OBJECT
  5
53
102
{ACAD_REACTORS
330
47
102
}
330
47
100
AcDbProxyObject
 90
      499
 91
      503
 93
      121
310
905313A3130304000000000000594000
  0
ACAD_PROXY_OBJECT
  5
54
102
{ACAD_REACTORS
330
47
102
}
330
47
100
AcDbProxyObject
 90
      499
 91
      503
 93
      105
310
903323A310000000000000010100
  0
ACAD_PROXY_OBJECT
  5
55
102
{ACAD_REACTORS
330
47
102
}
330
47
100
AcDbProxyObject
 90
      499
 91
      503
 93
      105
310
903343A310000000000000410100
  0
ACAD_PROXY_OBJECT
  5
56
102
{ACAD_REACTORS
330
47
102
}
330
47
100
AcDbProxyObject
 90
      499
 91
      503
 93
      105
310
903383A310000000000000810100
  0
ACAD_PROXY_OBJECT
  5
57
102
{ACAD_REACTORS
330
47
102
}
330
47
100
AcDbProxyObject
 90
      499
 91
      503
 93
      113
310
90431303A310000000000000910100
  0
ACAD_PROXY_OBJECT
  5
58
102
{ACAD_REACTORS
330
47
102
}
330
47
100
AcDbProxyObject
 90
      499
 91
      503
 93
      121
310
9053130303A310000000000001650100
  0
ACAD_PROXY_OBJECT
  5
59
102
{ACAD_REACTORS
330
47
102
}
330
47
100
AcDbProxyObject
 90
      499
 91
      503
 93
      257
310
90E312F31323822203D2031272D3022000000000000200FC000000000000284000
  0
ACAD_PROXY_OBJECT
  5
5A
102
{ACAD_REACTORS
330
47
102
}
330
47
100
AcDbProxyObject
 90
      499
 91
      503
 93
      249
310
90D312F363422203D2031272D3022000000000000240FC000000000000284000
  0
ACAD_PROXY_OBJECT
  5
5B
102
{ACAD_REACTORS
330
47
102
}
330
47
100
AcDbProxyObject
 90
      499
 91
      503
 93
      249
310
90D312F333222203D2031272D3022000000000000280FC000000000000284000
  0
ACAD_PROXY_OBJECT
  5
5C
102
{ACAD_REACTORS
330
47
102
}
330
47
100
AcDbProxyObject
 90
      499
 91
      503
 93
      249
310
90D312F313622203D2031272D30220000000000002C0FC000000000000284000
  0
ACAD_PROXY_OBJECT
  5
5D
102
{ACAD_REACTORS
330
47
102
}
330
47
100
AcDbProxyObject
 90
      499
 91
      503
 93
      249
310
90D332F333222203D2031272D30220000000000002E0FC000000000000284000
  0
ACAD_PROXY_OBJECT
  5
5E
102
{ACAD_REACTORS
330
47
102
}
330
47
100
AcDbProxyObject
 90
      499
 91
      503
 93
      241
310
90C312F3822203D2031272D3022000000000000300FC000000000000284000
  0
ACAD_PROXY_OBJECT
  5
5F
102
{ACAD_REACTORS
330
47
102
}
330
47
100
AcDbProxyObject
 90
      499
 91
      503
 93
      249
310
90D332F313622203D2031272D3022000000000000320FC000000000000284000
  0
ACAD_PROXY_OBJECT
  5
60
102
{ACAD_REACTORS
330
47
102
}
330
47
100
AcDbProxyObject
 90
      499
 91
      503
 93
      241
310
90C312F3422203D2031272D3022000000000000340FC000000000000284000
  0
ACAD_PROXY_OBJECT
  5
61
102
{ACAD_REACTORS
330
47
102
}
330
47
100
AcDbProxyObject
 90
      499
 91
      503
 93
      241
310
90C332F3822203D2031272D3022000000000000360FC000000000000284000
  0
ACAD_PROXY_OBJECT
  5
62
102
{ACAD_REACTORS
330
47
102
}
330
47
100
AcDbProxyObject
 90
      499
 91
      503
 93
      241
310
90C312F3222203D2031272D3022000000000000380FC000000000000284000
  0
ACAD_PROXY_OBJECT
  5
63
102
{ACAD_REACTORS
330
47
102
}
330
47
100
AcDbProxyObject
 90
      499
 91
      503
 93
      241
310
90C332F3422203D2031272D30220000000000003A0FC000000000000284000
  0
ACAD_PROXY_OBJECT
  5
64
102
{ACAD_REACTORS
330
47
102
}
330
47
100
AcDbProxyObject
 90
      499
 91
      503
 93
      161
310
90A3122203D2031272D30224000000000000284000
  0
ACAD_PROXY_OBJECT
  5
65
102
{ACAD_REACTORS
330
47
102
}
330
47
100
AcDbProxyObject
 90
      499
 91
      503
 93
      257
310
90E312D312F3222203D2031272D30220000000000003E0FC000000000000284000
  0
ACAD_PROXY_OBJECT
  5
66
102
{ACAD_REACTORS
330
47
102
}
330
47
100
AcDbProxyObject
 90
      499
 91
      503
 93
      225
310
90A3322203D2031272D302200000000000002100000000000000284000
  0
ACAD_PROXY_OBJECT
  5
67
102
{ACAD_REACTORS
330
47
102
}
330
47
100
AcDbProxyObject
 90
      499
 91
      503
 93
      225
310
90A3622203D2031272D302200000000000006100000000000000284000
  0
ACAD_PROXY_OBJECT
  5
68
102
{ACAD_REACTORS
330
47
102
}
330
47
100
AcDbProxyObject
 90
      499
 91
      503
 93
      249
310
90D31272D3022203D2031272D30220000000000000A100000000000000284000
  0
ACAD_PROXY_OBJECT
  5
2F
102
{ACAD_REACTORS
330
2A
102
}
330
2A
100
AcDbProxyObject
 90
      499
 91
      501
 93
      436
310
42CC9915DA5C99599C985B595049028333333333333E33F0000000000000F90107901411070040501600405405064090741402480A0340
1001
ACAD
1000
AcDbSavedByObjectVersion
1070
     0
  0
ACAD_PROXY_OBJECT
  5
32
102
{ACAD_REACTORS
330
2A
102
}
330
2A
100
AcDbProxyObject
 90
      499
 91
      501
 93
      388
310
4150985CDA58D07406404333333333333E33F0000000000000F90107A41107004050150841D405064090741402480A0350
1001
ACAD
1000
AcDbSavedByObjectVersion
1070
     0
  0
ACAD_PROXY_OBJECT
  5
36
102
{ACAD_REACTORS
330
2A
102
}
330
2A
100
AcDbProxyObject
 90
      499
 91
      501
 93
      428
310
42109C9A59DA1D195B90C409028333333333333E33F0000000000000F9010790141107004050150841D405064090741402480A029950
1001
ACAD
1000
AcDbSavedByObjectVersion
1070
     0
  0
ACAD_PROXY_OBJECT
  5
3A
102
{ACAD_REACTORS
330
2A
102
}
330
2A
100
AcDbProxyObject
 90
      499
 91
      501
 93
      452
310
42D0DBDB1BDC90DA185B99D95104090240C333333333333E33F0000000000000F90108901411070040501508421405064090741402480A0350
1001
ACAD
1000
AcDbSavedByObjectVersion
1070
     0
  0
ACAD_PROXY_OBJECT
  5
34
102
{ACAD_REACTORS
330
2A
102
}
330
2A
100
AcDbProxyObject
 90
      499
 91
      501
 93
      500
310
4290DBDB98D95C1D1D585B10940D028333333333333E33F0000000000000F90107902409070040501000000000018199010841D405064090740C02480A0340
1001
ACAD
1000
AcDbSavedByObjectVersion
1070
     0
  0
ACAD_PROXY_OBJECT
  5
35
102
{ACAD_REACTORS
330
2A
102
}
330
2A
100
AcDbProxyObject
 90
      499
 91
      501
 93
      412
310
40D11A5B50B409028333333333333E33F0000000000000F9010790141107004050150841D405064090741402480A02677FFFFFD0
1001
ACAD
1000
AcDbSavedByObjectVersion
1070
     0
  0
ACAD_PROXY_OBJECT
  5
3D
102
{ACAD_REACTORS
330
2A
102
}
330
2A
100
AcDbProxyObject
 90
      499
 91
      501
 93
      452
310
43115919D950DBDB1BDC93D999916409028333333333333E33F0000000000000F9010790141107004050150841D405064090741402480A0350
1001
ACAD
1000
AcDbSavedByObjectVersion
1070
     0
  0
ACAD_PROXY_OBJECT
  5
39
102
{ACAD_REACTORS
330
2A
102
}
330
2A
100
AcDbProxyObject
 90
      499
 91
      501
 93
      444
310
42D19858D95C185D1D195C9B90F409028333333333333E33F0000000000000F9010790141107004050150841D405064090741402480A0350
1001
ACAD
1000
AcDbSavedByObjectVersion
1070
     0
  0
ACAD_PROXY_OBJECT
  5
2B
102
{ACAD_REACTORS
330
2A
102
}
330
2A
100
AcDbProxyObject
 90
      499
 91
      501
 93
      380
310
41119B185D240901404333333333333E33F0000000000000F9010740A907004050150841D405064090741402480A1B50
1001
ACAD
1000
AcDbSavedByObjectVersion
1070
     0
  0
ACAD_PROXY_OBJECT
  5
2C
102
{ACAD_REACTORS
330
2A
102
}
330
2A
100
AcDbProxyObject
 90
      499
 91
      501
 93
      468
310
43519B185D15DA5D1A115919D95CD0140901404333333333333E33F0000000000000F90107409019070040501600405405064090741402480A1B50
1001
ACAD
1000
AcDbSavedByObjectVersion
1070
     0
  0
ACAD_PROXY_OBJECT
  5
2D
102
{ACAD_REACTORS
330
2A
102
}
330
2A
100
AcDbProxyObject
 90
      499
 91
      501
 93
      404
310
41D1DBDD5C985D5910240902404333333333333E33F0000000000000F9010740A9070040501641D405064090741402480A1B50
1001
ACAD
1000
AcDbSavedByObjectVersion
1070
     0
  0
ACAD_PROXY_OBJECT
  5
2E
102
{ACAD_REACTORS
330
2A
102
}
330
2A
100
AcDbProxyObject
 90
      499
 91
      501
 93
      492
310
4411DBDD5C985D5915DA5D1A115919D95CD0340902404333333333333E33F0000000000000F90107409019070040501600405405064090741402480A1B50
1001
ACAD
1000
AcDbSavedByObjectVersion
1070
     0
  0
ACAD_PROXY_OBJECT
  5
31
102
{ACAD_REACTORS
330
2A
102
}
330
2A
100
AcDbProxyObject
 90
      499
 91
      501
 93
      476
310
41921A5919195B90640502408333333333333E33F0000000000000F901079024090700405020000000000001110200405405064090740C02480A0340
1001
ACAD
1000
AcDbSavedByObjectVersion
1070
     0
  0
ACAD_PROXY_OBJECT
  5
3B
102
{ACAD_REACTORS
330
2A
102
}
330
2A
100
AcDbProxyObject
 90
      499
 91
      501
 93
      428
310
42529A5D1D195C93D999914409028333333333333E33F0000000000000F9010790141107004050150A41D405064090741402480A0350
1001
ACAD
1000
AcDbSavedByObjectVersion
1070
     0
  0
ACAD_PROXY_OBJECT
  5
38
102
{ACAD_REACTORS
330
2A
102
}
330
2A
100
AcDbProxyObject
 90
      499
 91
      501
 93
      444
310
42D31A5B995C185D1D195C9B90E409028333333333333E33F0000000000000F9010790141107004050750841D405064090741402483A0350
1001
ACAD
1000
AcDbSavedByObjectVersion
1070
     0
  0
ACAD_PROXY_OBJECT
  5
3C
102
{ACAD_REACTORS
330
2A
102
}
330
2A
100
AcDbProxyObject
 90
      499
 91
      501
 93
      444
310
42D3DD995C9A185B99D3D999915409028333333333333E33F0000000000000F9010790141107004050150941D405064090741402480A0350
1001
ACAD
1000
AcDbSavedByObjectVersion
1070
     0
  0
ACAD_PROXY_OBJECT
  5
33
102
{ACAD_REACTORS
330
2A
102
}
330
2A
100
AcDbProxyObject
 90
      499
 91
      501
 93
      428
310
425499585B1A5CDD1A58D08409038333333333333E33F0000000000000F9010740A907004050150800405405064090740C02480A1B40
1001
ACAD
1000
AcDbSavedByObjectVersion
1070
     0
  0
ACAD_PROXY_OBJECT
  5
42
102
{ACAD_REACTORS
330
2A
102
}
330
2A
100
AcDbProxyObject
 90
      499
 91
      501
 93
      420
310
4194DA1859195911B40902404333333333333E33F0000000000000F9010740A41107004050150800405405064090840C02480A0B40
1001
ACAD
1000
AcDbSavedByObjectVersion
1070
     0
  0
ACAD_PROXY_OBJECT
  5
41
102
{ACAD_REACTORS
330
2A
102
}
330
2A
100
AcDbProxyObject
 90
      499
 91
      501
 93
      516
310
4454DA18591959081DDA5D1A08195919D95CD1A40902404333333333333E33F0000000000000F901074090142907004050250800405405064090740C02480A0B40
1001
ACAD
1000
AcDbSavedByObjectVersion
1070
     0
  0
ACAD_PROXY_OBJECT
  5
3E
102
{ACAD_REACTORS
330
2A
102
}
330
2A
100
AcDbProxyObject
 90
      499
 91
      501
 93
      532
310
4394DA1859195CC81BD98811DC985E5174090240C333333333333E33F0000000000000F901079024090741D01000000000000111010841D405064090740C02480A0340
1001
ACAD
1000
AcDbSavedByObjectVersion
1070
     0
  0
ACAD_PROXY_OBJECT
  5
3F
102
{ACAD_REACTORS
330
2A
102
}
330
2A
100
AcDbProxyObject
 90
      499
 91
      501
 93
      476
310
41D4DAD95D18DA1E51840502408333333333333E33F0000000000000F901079024090741D01000000000000111010B41D405064090741802480A0340
1001
ACAD
1000
AcDbSavedByObjectVersion
1070
     0
  0
ACAD_PROXY_OBJECT
  5
37
102
{ACAD_REACTORS
330
2A
102
}
330
2A
100
AcDbProxyObject
 90
      499
 91
      501
 93
      412
310
41D51A1A58DAD95B90D409028333333333333E33F0000000000000F9010790141107004050150C41D405064090741402480A0350
1001
ACAD
1000
AcDbSavedByObjectVersion
1070
     0
  0
ACAD_PROXY_OBJECT
  5
30
102
{ACAD_REACTORS
330
2A
102
}
330
2A
100
AcDbProxyObject
 90
      499
 91
      501
 93
      420
310
4255DA5C99599C985B595059028333333333333E33F0000000000000F90107901411070040501600405405064090740C02480A0340
1001
ACAD
1000
AcDbSavedByObjectVersion
1070
     0
  0
ACAD_PROXY_OBJECT
  5
40
102
{ACAD_REACTORS
330
2A
102
}
330
2A
100
AcDbProxyObject
 90
      499
 91
      501
 93
      404
310
41560B54985E51940902404000000000000E03F0000000000000F9010740501907004050150841D405064090740C02480A1B40
1001
ACAD
1000
AcDbSavedByObjectVersion
1070
     0
  0
XRECORD
  5
1B3
102
{ACAD_REACTORS
330
1AA
102
}
330
1AA
100
AcDbXrecord
 90
        0
  0
XRECORD
  5
1C9
102
{ACAD_REACTORS
330
1AA
102
}
330
1AA
100
AcDbXrecord
1000
DSTYLE
1002
{
1070
   279
 70
     2
1070
   340
340
11
1002
}
  0
XRECORD
  5
1B4
102
{ACAD_REACTORS
330
1AA
102
}
330
1AA
100
AcDbXrecord
  1
{63D9F7AE-A19E-46B4-A9C5-D6CFC947C318}
  0
XRECORD
  5
1AD
102
{ACAD_REACTORS
330
1AA
102
}
330
1AA
100
AcDbXrecord
  1

  0
XRECORD
  5
1B2
102
{ACAD_REACTORS
330
1AA
102
}
330
1AA
100
AcDbXrecord
 90
        4
  0
XRECORD
  5
1AF
102
{ACAD_REACTORS
330
1AA
102
}
330
1AA
100
AcDbXrecord
340
1A
  0
XRECORD
  5
1B1
102
{ACAD_REACTORS
330
1AA
102
}
330
1AA
100
AcDbXrecord
 90
    10781
  0
XRECORD
  5
1B0
102
{ACAD_REACTORS
330
1AA
102
}
330
1AA
100
AcDbXrecord
340
19
  0
XRECORD
  5
1B6
102
{ACAD_REACTORS
330
1AA
102
}
330
1AA
100
AcDbXrecord
 40
0.0
  0
XRECORD
  5
1B9
102
{ACAD_REACTORS
330
1AA
102
}
330
1AA
100
AcDbXrecord
340
0
  0
XRECORD
  5
1BF
102
{ACAD_REACTORS
330
1AA
102
}
330
1AA
100
AcDbXrecord
 10
0.0
 20
0.0
 30
0.0
  0
XRECORD
  5
1BB
102
{ACAD_REACTORS
330
1AA
102
}
330
1AA
100
AcDbXrecord
 10
0.0
 20
0.0
 30
0.0
  0
XRECORD
  5
1BE
102
{ACAD_REACTORS
330
1AA
102
}
330
1AA
100
AcDbXrecord
 10
0.0
 20
0.0
 30
0.0
  0
XRECORD
  5
1BC
102
{ACAD_REACTORS
330
1AA
102
}
330
1AA
100
AcDbXrecord
 10
0.0
 20
0.0
 30
0.0
  0
XRECORD
  5
1BD
102
{ACAD_REACTORS
330
1AA
102
}
330
1AA
100
AcDbXrecord
 10
0.0
 20
0.0
 30
0.0
  0
XRECORD
  5
1BA
102
{ACAD_REACTORS
330
1AA
102
}
330
1AA
100
AcDbXrecord
 10
0.0
 20
0.0
 30
0.0
  0
XRECORD
  5
1B7
102
{ACAD_REACTORS
330
1AA
102
}
330
1AA
100
AcDbXrecord
340
0
  0
XRECORD
  5
1B8
102
{ACAD_REACTORS
330
1AA
102
}
330
1AA
100
AcDbXrecord
 70
     0
  0
XRECORD
  5
1AE
102
{ACAD_REACTORS
330
1AA
102
}
330
1AA
100
AcDbXrecord
  1

  0
XRECORD
  5
1AB
102
{ACAD_REACTORS
330
1AA
102
}
330
1AA
100
AcDbXrecord
 90
        1
  0
XRECORD
  5
1AC
102
{ACAD_REACTORS
330
1AA
102
}
330
1AA
100
AcDbXrecord
 90
       70
  0
XRECORD
  5
1C2
102
{ACAD_REACTORS
330
1AA
102
}
330
1AA
100
AcDbXrecord
340
0
  0
XRECORD
  5
1C8
102
{ACAD_REACTORS
330
1AA
102
}
330
1AA
100
AcDbXrecord
 10
0.0
 20
0.0
 30
0.0
  0
XRECORD
  5
1C4
102
{ACAD_REACTORS
330
1AA
102
}
330
1AA
100
AcDbXrecord
 10
0.0
 20
0.0
 30
0.0
  0
XRECORD
  5
1C7
102
{ACAD_REACTORS
330
1AA
102
}
330
1AA
100
AcDbXrecord
 10
0.0
 20
0.0
 30
0.0
  0
XRECORD
  5
1C5
102
{ACAD_REACTORS
330
1AA
102
}
330
1AA
100
AcDbXrecord
 10
0.0
 20
0.0
 30
0.0
  0
XRECORD
  5
1C6
102
{ACAD_REACTORS
330
1AA
102
}
330
1AA
100
AcDbXrecord
 10
0.0
 20
0.0
 30
0.0
  0
XRECORD
  5
1C3
102
{ACAD_REACTORS
330
1AA
102
}
330
1AA
100
AcDbXrecord
 10
0.0
 20
0.0
 30
0.0
  0
XRECORD
  5
1C0
102
{ACAD_REACTORS
330
1AA
102
}
330
1AA
100
AcDbXrecord
340
0
  0
XRECORD
  5
1C1
102
{ACAD_REACTORS
330
1AA
102
}
330
1AA
100
AcDbXrecord
 70
     0
  0
XRECORD
  5
1B5
102
{ACAD_REACTORS
330
1AA
102
}
330
1AA
100
AcDbXrecord
  1
{FAEB1C32-E019-11D5-929B-00C0DF256EC4}
  0
DICTIONARYVAR
  5
1D1
102
{ACAD_REACTORS
330
1CA
102
}
330
1CA
100
DictionaryVariables
280
     0
  1
1:1
  0
DICTIONARYVAR
  5
1CF
102
{ACAD_REACTORS
330
1CA
102
}
330
1CA
100
DictionaryVariables
280
     0
  1
2
  0
DICTIONARYVAR
  5
1D0
102
{ACAD_REACTORS
330
1CA
102
}
330
1CA
100
DictionaryVariables
280
     0
  1
1
  0
DICTIONARYVAR
  5
1D2
102
{ACAD_REACTORS
330
1CA
102
}
330
1CA
100
DictionaryVariables
280
     0
  1
1
  0
DICTIONARY
  5
1D5
330
45
100
AcDbDictionary
280
     1
  3
ACAD_XREC_ROUNDTRIP
360
1D6
  0
DICTIONARY
  5
1D3
330
44
100
AcDbDictionary
280
     1
  3
ACAD_XREC_ROUNDTRIP
360
1D4
  0
DICTIONARY
  5
1D7
330
46
100
AcDbDictionary
280
     1
  3
ACAD_XREC_ROUNDTRIP
360
1D8
  0
XRECORD
  5
1D6
102
{ACAD_REACTORS
330
1D5
102
}
330
1D5
100
AcDbXrecord
102
MATERIAL
148
0.0
149
0.0
149
0.0
 93
        0
 94
      127
282
     0
 72
     1
 77
     1
171
     1
175
     1
179
     1
273
     0
  0
XRECORD
  5
1D4
102
{ACAD_REACTORS
330
1D3
102
}
330
1D3
100
AcDbXrecord
102
MATERIAL
148
0.0
149
0.0
149
0.0
 93
        0
 94
      127
282
     0
 72
     1
 77
     1
171
     1
175
     1
179
     1
273
     0
  0
XRECORD
  5
1D8
102
{ACAD_REACTORS
330
1D7
102
}
330
1D7
100
AcDbXrecord
102
MATERIAL
148
0.0
149
0.0
149
0.0
 93
        0
 94
      127
282
     0
 72
     1
 77
     1
171
     1
175
     1
179
     1
273
     0
  0
ENDSEC
  0
EOF
